<?xml version="1.0" encoding="UTF-8" standalone="no"?>
<!-- Created with Inkscape (http://www.inkscape.org/) -->

<svg
   version="1.1"
   id="svg736"
   width="180"
   height="180"
   viewBox="0 0 180 180"
   sodipodi:docname="baskteball_project.svg"
   xml:space="preserve"
   inkscape:export-filename="basketball_project.png"
   inkscape:export-xdpi="600"
   inkscape:export-ydpi="600"
   inkscape:version="1.2.1 (9c6d41e4, 2022-07-14)"
   xmlns:inkscape="http://www.inkscape.org/namespaces/inkscape"
   xmlns:sodipodi="http://sodipodi.sourceforge.net/DTD/sodipodi-0.dtd"
   xmlns="http://www.w3.org/2000/svg"
   xmlns:svg="http://www.w3.org/2000/svg"><defs
     id="defs740" /><sodipodi:namedview
     id="namedview738"
     pagecolor="#ffffff"
     bordercolor="#666666"
     borderopacity="1.0"
     inkscape:showpageshadow="2"
     inkscape:pageopacity="0.0"
     inkscape:pagecheckerboard="0"
     inkscape:deskcolor="#d1d1d1"
     showgrid="false"
     inkscape:zoom="2.5833332"
     inkscape:cx="123.29033"
     inkscape:cy="96.967747"
     inkscape:window-width="1420"
     inkscape:window-height="759"
     inkscape:window-x="0"
     inkscape:window-y="25"
     inkscape:window-maximized="0"
     inkscape:current-layer="g742" /><g
     inkscape:groupmode="layer"
     inkscape:label="Image"
     id="g742"
     transform="translate(-34.560787,22.396344)"><g
       id="g4084"
       transform="rotate(90,100.48143,81.685086)"><rect
         style="fill:#4e2013;fill-opacity:1;stroke:none;stroke-width:0.709447;stroke-linecap:square;stroke-dasharray:none;stroke-opacity:1;paint-order:markers stroke fill"
         id="rect1485"
         width="158.86983"
         height="95.097748"
         x="7.0632238"
         y="9.9149961" /><path
         style="fill:#faf8fb;fill-opacity:1;stroke-width:0.32"
         d="m 62.233526,109.10953 c -0.112336,-0.18177 -0.156832,-1.00583 -0.09889,-1.83127 L 62.24,105.77747 35.2,105.73304 C 20.328,105.70859 7.7635325,105.66866 7.2789613,105.6443 L 6.3979222,105.6 6.4789613,57.52176 6.56,9.4435206 34.207744,9.4417606 c 27.350336,-0.00173 27.650432,-0.00864 27.89751,-0.6417603 0.13737,-0.352 0.259885,-1.18 0.272253,-1.84 C 62.412934,5.069888 63.04,5.5608064 63.04,7.4786528 v 1.7186525 l 2.16,0.1689001 c 1.188,0.092895 11.664,0.1475012 23.28,0.1213472 L 109.6,9.44 109.6966,7.5788666 c 0.12688,-2.4445674 0.8634,-2.3367124 0.8634,0.1264355 v 1.7234518 l 27.04,0.046345 c 14.872,0.025491 27.43647,0.06402 27.92104,0.085623 L 166.40208,9.6 l -0.081,48.08 -0.081,48.08 h -27.64775 c -27.35116,0 -27.65043,0.007 -27.89751,0.64 -0.13736,0.352 -0.25988,1.18 -0.27225,1.84 -0.0354,1.8884 -0.66249,1.40009 -0.66249,-0.51586 v -1.71586 l -2.32,-0.16584 c -1.276,-0.0912 -11.752,-0.14664 -23.28,-0.1232 l -20.96,0.0426 -0.09597,1.83906 c -0.09017,1.72795 -0.401494,2.26747 -0.870506,1.5086 z M 86.002768,87.623261 86.085538,70.446525 84.24277,70.072765 C 81.464581,69.509277 79.864508,68.69073 77.888994,66.822371 75.653976,64.708586 74.721333,63.135357 74.09036,60.414653 73.159916,56.402666 74.544306,51.54401 77.444159,48.644157 78.98966,47.098656 82.130703,45.496512 84.198536,45.198963 L 85.92,44.951258 86.002755,27.595629 86.08551,10.24 H 46.713971 7.3424278 l 0.088786,4.56 0.088786,4.56 L 16.16,19.4317 c 11.83721,0.09823 15.734104,0.81138 22.15991,4.055391 11.393184,5.751749 18.920215,16.323476 20.756768,29.152913 0.470964,3.289978 0.49824,4.435859 0.19042,8 C 57.984554,75.49017 48.833056,87.822375 35.133763,93.161153 29.582439,95.324567 26.761025,95.719575 16.40026,95.783889 L 7.3605206,95.84 7.3602602,100.40126 7.36,104.96253 46.64,104.88126 85.92,104.8 Z M 165.44,100.50156 c 0,-3.973976 -0.0608,-4.475208 -0.56,-4.612827 -0.308,-0.08492 -3.44,-0.124071 -6.96,-0.08701 -11.77343,0.123961 -16.45007,-0.677843 -23.04,-3.950179 -7.24596,-3.5981 -12.15277,-8.105184 -16.26268,-14.937895 -2.55286,-4.244109 -3.81244,-7.843417 -4.77954,-13.657709 -0.62472,-3.755881 -0.65161,-4.475302 -0.31697,-8.48 0.79845,-9.55519 4.48376,-17.582076 11.10356,-24.184403 5.53296,-5.518354 11.67741,-8.806663 19.51361,-10.443059 2.56865,-0.536398 4.37327,-0.633983 12.15917,-0.657505 L 165.44,19.463353 V 14.850411 10.23747 L 126.16,10.31873 86.88,10.4 l -0.08277,17.176738 -0.08277,17.176737 1.842768,0.377994 c 2.772851,0.568777 5.009357,1.807894 6.966461,3.859715 2.805974,2.941773 3.849453,6.112662 3.341859,10.155158 -0.341149,2.716903 -1.659552,5.473261 -3.549373,7.420592 -1.535721,1.582458 -4.562243,3.124378 -6.750707,3.43928 L 86.88,70.248742 86.797245,87.604371 86.71449,104.96 H 126.07724 165.44 Z M 25.608395,94.704685 C 50.466659,91.630723 65.425402,65.432902 55.369834,42.582342 53.59593,38.55128 51.070704,34.82863 47.924285,31.606243 44.840208,28.447703 42.747306,26.860966 39.019267,24.854887 32.151741,21.159433 28.909272,20.491051 16.72,20.258255 L 7.36,20.079493 v 10.565563 10.565562 l 0.72,0.156073 c 0.396,0.08584 7.488,0.115635 15.76,0.06622 8.272,-0.04942 16.228,-0.01222 17.68,0.08262 l 2.64,0.17248 v 1.671421 1.67142 l 1.58392,0.187591 c 3.498086,0.414297 7.432099,3.253398 9.109958,6.57448 1.632708,3.231712 1.832071,7.35376 0.50536,10.448854 -1.89086,4.411194 -5.100051,6.897565 -10.302582,7.98208 -0.788512,0.164375 -0.871722,0.325421 -0.96,1.858058 L 44,73.76 25.68,73.75776 7.36,73.75552 V 84.3976 95.039683 h 7.768395 c 4.272617,0 8.988617,-0.150893 10.48,-0.335315 z M 165.44,84.501565 c 0,-9.76657 -0.041,-10.549338 -0.56,-10.687283 -0.308,-0.08187 -7.472,-0.106013 -15.92,-0.05366 -8.448,0.05236 -16.39714,0.0184 -17.66476,-0.07547 l -2.30476,-0.170666 -0.0952,-1.637244 L 128.8,70.24 127.2,70.038566 c -5.05522,-0.636432 -9.3065,-4.737059 -10.4005,-10.031932 -1.36167,-6.590295 3.0831,-13.35288 9.65352,-14.687578 l 2.02698,-0.411754 0.16,-1.733651 0.16,-1.733651 18.32,2.02e-4 18.32,2.01e-4 V 30.762852 20.085299 l -9.52,0.153861 c -9.39315,0.151812 -9.57116,0.16719 -13.36,1.154161 -14.18975,3.696355 -24.47198,14.473978 -27.58843,28.91762 -0.85441,3.959897 -0.7602,11.898358 0.18705,15.762832 2.93702,11.981965 11.43408,21.793094 22.70437,26.215571 5.73026,2.248563 8.65363,2.651462 19.65701,2.709139 L 165.44,95.04 Z M 43.2,71.68 V 70.4 L 41.52,70.3871 C 39.676982,70.37296 24.866475,70.37459 14.16,70.39 l -6.8,0.01 v 1.28 1.28 H 25.28 43.2 Z m 122.24,0 V 70.4 l -6.16,-0.0043 c -3.388,-0.0022 -11.416,-0.01018 -17.84,-0.01741 l -11.68,-0.01312 -0.0984,1.297398 -0.0984,1.297402 h 17.9384 17.9384 v -1.28 z M 43.2,57.6 V 45.817872 L 25.28,45.776051 7.36,45.734234 V 57.6 69.465766 l 17.92,-0.04182 17.92,-0.04182 z m -5.587315,11.088845 c -0.400554,-0.292893 -0.473597,-0.502871 -0.227776,-0.654797 0.419334,-0.259162 1.655091,0.321136 1.655091,0.77721 0,0.443619 -0.740019,0.380153 -1.427315,-0.122413 z m -2.516247,-1.74648 C 34.444666,66.222163 34.416403,65.92 35.000819,65.92 c 0.656077,0 1.32593,0.921251 0.946058,1.301123 -0.205331,0.205331 -0.499648,0.108861 -0.850439,-0.278758 z M 8.32,58.4 c 0,-5.617779 0.068943,-6.56 0.48,-6.56 0.3929824,0 0.48,0.55111 0.48,3.04 0,1.672 0.1265299,3.04 0.2811776,3.04 0.1546474,0 0.4671724,-0.44903 0.6944984,-0.997846 0.227327,-0.548816 0.856797,-1.268279 1.398823,-1.598804 2.449547,-1.493731 5.627228,0.149178 5.624305,2.907853 -0.0034,3.249098 -3.688261,4.950227 -6.032756,2.785075 C 10.831375,60.633325 10.366939,59.996 10.213969,59.6 9.6216874,58.066739 9.28,58.915501 9.28,61.92 c 0,2.48889 -0.087018,3.04 -0.48,3.04 -0.411057,0 -0.48,-0.942221 -0.48,-6.56 z m 7.214546,1.934544 C 17.03205,58.83704 16.37701,56.305136 14.302113,55.570864 13.524685,55.295744 11.65435,56.11104 11.225757,56.911872 10.191623,58.84417 11.475656,61.12 13.6,61.12 c 0.793356,0 1.392252,-0.243162 1.934546,-0.785456 z m 17.421915,3.978842 c -0.479475,-0.895904 -0.03184,-1.552327 0.532384,-0.780701 0.502566,0.687296 0.566032,1.427315 0.122413,1.427315 -0.169808,0 -0.464468,-0.290976 -0.654797,-0.646614 z m -1.383128,-2.76672 C 31.456,61.429334 31.36,61.057334 31.36,60.72 c 0,-0.829904 0.772858,-0.534326 0.902256,0.345066 0.099,0.67279 -0.252214,0.91831 -0.688923,0.4816 z M 31.04,57.76 c 0,-0.44 0.144,-0.8 0.32,-0.8 0.176,0 0.32,0.132224 0.32,0.293827 0,0.161607 0.08741,0.521607 0.194236,0.8 0.12746,0.332157 0.01745,0.506173 -0.32,0.506173 C 31.219051,58.56 31.04,58.28145 31.04,57.76 Z m 0.32,-3.181114 c 0,-0.766265 0.510341,-1.375212 0.859722,-1.025833 C 32.49224,53.825574 32.028742,55.36 31.673903,55.36 31.501257,55.36 31.36,55.008499 31.36,54.578886 Z m 0.96,-2.677724 c 0,-0.552791 0.881581,-1.427399 1.224902,-1.215213 0.26665,0.164797 0.259162,0.388381 -0.02845,0.848886 C 33.130288,52.153216 32.32,52.401302 32.32,51.901162 Z m 2.106966,-2.57753 c -0.245494,-0.397219 0.984093,-1.428733 1.39809,-1.172867 0.189962,0.117401 0.263014,0.346733 0.162342,0.509625 -0.310694,0.502714 -1.379011,0.956788 -1.560432,0.663242 z M 37.12,47.051258 c 0,-0.285136 1.00239,-0.971258 1.418963,-0.971258 0.412963,0 0.141443,0.90672 -0.325136,1.085763 C 37.487853,47.444346 37.12,47.405837 37.12,47.051258 Z m 9.12,22.039833 C 51.587158,67.648438 54.908374,63.679242 55.267302,58.302528 55.54807,54.096605 53.950326,50.681069 50.521206,48.156694 48.704227,46.81911 47.683597,46.38472 45.182566,45.884512 L 44.16,45.68 v 11.88 c 0,9.291619 0.08715,11.87961 0.4,11.878214 0.22,-9.6e-4 0.976,-0.157187 1.68,-0.347123 z M 86.08,66.572333 V 63.704669 L 84.7316,63.341581 C 82.958208,62.864058 81.131309,61.024586 80.648061,59.229939 79.833754,56.20583 81.816064,52.625424 84.678365,51.95049 L 85.92,51.657712 86.01375,48.978608 c 0.05156,-1.473504 -0.04014,-2.812992 -0.203783,-2.976637 -0.534211,-0.534211 -4.262416,0.65265 -6.108371,1.944576 -8.181622,5.726067 -6.054006,17.965075 3.6584,21.044765 2.6856,0.851574 2.72,0.820982 2.72,-2.418979 z m 3.369603,2.371721 C 94.707955,67.574426 98.06416,63.09815 98.075066,57.44 98.079322,55.233658 97.9432,54.592653 97.089744,52.8 96.545104,51.656 95.485507,50.109347 94.735088,49.362992 93.174323,47.810678 90.074054,46.190986 88.08,45.886125 l -1.36,-0.207923 v 2.908566 2.908563 l 1.36,0.365581 c 1.71761,0.461709 3.610384,2.395072 4.090547,4.178259 0.795066,2.95265 -1.221273,6.543424 -4.048912,7.210458 L 86.88,63.542528 86.78799,66.491264 c -0.104323,3.34345 -0.248336,3.210736 2.661613,2.45279 z M 128.64,57.6 c 0,-9.586726 -0.0803,-11.84 -0.42192,-11.84 -1.01735,0 -4.02248,1.095456 -5.39443,1.966426 -1.79199,1.137619 -3.55596,3.213561 -4.50734,5.304476 -0.55691,1.223981 -0.6965,2.135703 -0.69953,4.569098 -0.003,2.657258 0.1084,3.281731 0.88734,4.96 1.65485,3.565472 5.94762,6.635018 9.57588,6.847245 0.52383,0.03066 0.56,-0.731911 0.56,-11.807245 z m 36.8,3.2e-4 V 45.734957 l -17.92,0.04104 -17.92,0.04104 v 11.782509 11.782506 l 17.92,0.04182 17.92,0.04182 z m -31.46463,11.308298 c -0.32124,-0.321236 1.01274,-1.138544 1.43367,-0.878394 0.25451,0.157296 0.18617,0.360282 -0.22172,0.658538 -0.66088,0.483244 -0.90439,0.527417 -1.21195,0.219856 z m 2.82885,-1.701872 c -0.26849,-0.43434 0.39059,-1.286746 0.99496,-1.286746 0.61684,0 0.54887,0.443024 -0.16741,1.091251 -0.41653,0.376947 -0.67736,0.438592 -0.82755,0.195578 z m 2.29702,-2.467741 c -0.27562,-0.445968 0.54111,-1.498304 1.03507,-1.333651 0.28881,0.09627 0.22832,0.34614 -0.21691,0.895977 -0.35543,0.438931 -0.7026,0.624653 -0.81816,0.437674 z M 163.52,61.92 c 0,-1.713568 -0.13308,-3.04 -0.30499,-3.04 -0.16774,0 -0.55255,0.521715 -0.85514,1.15937 -0.8667,1.826422 -3.06496,2.51984 -4.93034,1.555212 -2.16222,-1.118121 -2.50737,-4.329734 -0.64424,-5.994582 1.75567,-1.568826 4.44911,-1.005942 5.62377,1.175274 0.33906,0.6296 0.72773,1.144726 0.86371,1.144726 0.13598,0 0.24723,-1.368 0.24723,-3.04 0,-2.48889 0.087,-3.04 0.48,-3.04 0.41106,0 0.48,0.942221 0.48,6.56 0,5.617779 -0.0689,6.56 -0.48,6.56 -0.39298,0 -0.48,-0.55111 -0.48,-3.04 z m -2.85227,-1.210176 C 162.86991,59.01904 161.89556,55.68 159.2,55.68 c -2.54483,0 -3.75684,3.03553 -1.88458,4.72 0.88187,0.793414 2.5247,0.945245 3.35231,0.309824 z m -20.00839,1.081475 c -0.27392,-0.443213 0.0773,-1.631299 0.48222,-1.631299 0.37272,0 0.38121,0.973907 0.0135,1.554163 -0.19351,0.305395 -0.34054,0.328275 -0.49576,0.07714 z M 141.12,57.6 c 0,-0.528 0.144,-0.96 0.32,-0.96 0.176,0 0.32,0.432 0.32,0.96 0,0.528 -0.144,0.96 -0.32,0.96 -0.176,0 -0.32,-0.432 -0.32,-0.96 z m -0.50663,-3.03217 c -0.22966,-0.915033 0.0291,-1.419686 0.48522,-0.946496 0.46439,0.481722 0.53439,1.500724 0.11321,1.648202 -0.21351,0.07476 -0.4828,-0.241008 -0.59843,-0.701706 z m -1.33639,-3.043488 C 138.76624,50.706518 138.77714,50.56 139.34874,50.56 c 0.52169,0 1.22312,1.081475 0.90667,1.397926 -0.33456,0.33456 -0.56153,0.233978 -0.97843,-0.433584 z M 137.36,49.121334 C 136.90154,48.600608 136.83212,48 137.2304,48 c 0.42803,0 1.35398,1.148957 1.11697,1.385968 -0.30926,0.309251 -0.53549,0.248618 -0.98737,-0.264634 z M 134.48,47.14807 C 134.08913,46.990352 133.9025,46.08 134.26104,46.08 c 0.0996,0 0.45957,0.149066 0.8,0.331258 1.10684,0.592364 0.61299,1.218614 -0.58104,0.736812 z m -48.471686,10.308839 0.08831,-5.050464 -0.88831,0.211219 c -3.117124,0.741171 -4.77833,4.301667 -3.330823,7.139014 0.815923,1.599341 2.75249,3.071776 3.722509,2.830343 0.191699,-0.04771 0.355408,-2.104579 0.408314,-5.130112 z m 3.251913,4.348877 c 1.553783,-1.125828 2.100435,-2.214743 2.089706,-4.16265 -0.0076,-1.384032 -0.189011,-2.079219 -0.746951,-2.862771 C 89.821747,53.683219 87.548163,52.325936 87.029024,52.646784 86.851763,52.756336 86.72,54.959363 86.72,57.813578 v 4.975804 L 87.6,62.58025 c 0.484,-0.115021 1.231104,-0.46353 1.660227,-0.774464 z M 43.1384,43.526368 43.2368,42.24 H 25.298399 7.36 v 1.257744 c 0,1.060694 0.112801,1.273763 0.72,1.36 0.396,0.05624 8.424,0.06912 17.84,0.02861 l 17.12,-0.07363 0.0984,-1.286368 z m 122.24013,-0.0068 0.0985,-1.284938 -17.85853,0.0827 L 129.76,42.4 l -0.0981,1.179603 c -0.0961,1.155341 -0.073,1.181671 1.12,1.28 0.66996,0.05522 8.7061,0.06541 17.8581,0.02266 l 16.64,-0.07776 0.0985,-1.28494 z"
         id="path1334" /><circle
         style="fill:#4e2013;fill-opacity:1;stroke:none;stroke-width:0.985938;stroke-linecap:square;stroke-dasharray:none;stroke-opacity:1;paint-order:markers stroke fill"
         id="path4078"
         cx="86.604889"
         cy="57.482815"
         r="14.5" /><path
         style="fill:#faf8fb;fill-opacity:1;stroke-width:0.0962559"
         d="m 84.768177,71.988491 c -1.73352,-0.251759 -4.123829,-1.028571 -4.646842,-1.51015 -0.528698,-0.486813 -1.813096,-2.711031 -2.45673,-4.254366 -0.193346,-0.463615 -0.837554,-2.33301 -0.837557,-2.430467 0,-0.01323 0.06628,-0.02407 0.147284,-0.02407 0.243911,0 1.212522,0.438187 3.943601,1.78403 3.315575,1.633879 4.209925,2.018426 6.352903,2.73158 1.911912,0.636258 3.405867,0.899351 5.101575,0.898407 1.35715,-7.51e-4 2.554195,-0.168741 3.248641,-0.455898 0.413506,-0.170984 0.107278,0.181048 -0.577536,0.663918 -0.936279,0.660185 -2.509645,1.474357 -3.616501,1.871436 -1.580797,0.567102 -2.422395,0.705327 -4.493075,0.737945 -1.032347,0.01626 -2.00694,0.01069 -2.165763,-0.01237 z m -7.67622,-3.464356 c -1.327793,-1.146111 -3.100616,-3.408648 -3.303144,-4.215585 -0.07497,-0.298692 0.183526,-0.794817 0.459806,-0.882504 0.323855,-0.102789 1.325106,-0.06685 1.469193,0.05273 0.06959,0.05776 0.154849,0.255937 0.189454,0.440396 0.186687,0.995126 1.025108,3.143048 1.760952,4.51132 0.225587,0.41947 0.410159,0.776821 0.410159,0.794113 0,0.113379 -0.24565,-0.06106 -0.98642,-0.70047 z m 14.077252,-0.292172 c -1.118667,-0.107346 -2.931238,-0.57745 -4.668421,-1.210789 -1.611893,-0.587661 -2.409817,-0.94524 -5.294087,-2.37248 -2.721424,-1.346658 -3.199549,-1.565256 -4.004546,-1.83088 L 76.566574,62.608091 76.45981,61.817118 C 76.40109,61.382083 76.3234,60.748739 76.287165,60.409689 l -0.06588,-0.616455 0.326946,0.06958 c 2.947538,0.627315 8.352018,0.908336 11.3964,0.592587 5.454099,-0.565674 10.231104,-2.274132 12.486719,-4.465775 0.30302,-0.294432 0.58457,-0.501712 0.62566,-0.460621 0.0411,0.04109 0.0717,0.948234 0.0679,2.015873 -0.007,2.06827 -0.10974,2.761414 -0.66485,4.495193 -0.45169,1.410775 -1.327863,3.104424 -2.030922,3.925791 -0.678904,0.793144 -2.163285,1.626579 -3.618186,2.031505 -0.742015,0.206516 -2.652121,0.32956 -3.641778,0.234593 z m -18.37851,-6.127766 c -0.361102,-1.083902 -0.680201,-2.674989 -0.680201,-3.391612 0,-0.289298 0.01427,-0.525995 0.0317,-0.525995 0.01743,0 0.355197,0.184353 0.750585,0.409675 0.395388,0.225321 1.08993,0.53297 1.543428,0.683661 l 0.824541,0.273987 0.110133,1.073013 c 0.06058,0.590156 0.136186,1.229763 0.16803,1.421349 l 0.0579,0.348335 -0.821396,0.04311 c -0.68688,0.03605 -0.885311,0.08541 -1.211683,0.301392 -0.214659,0.142054 -0.409302,0.258281 -0.432542,0.258281 -0.02324,0 -0.176461,-0.40284 -0.34049,-0.895199 z m 10.485508,-2.442285 c -2.038699,-0.06418 -6.12332,-0.549558 -6.804672,-0.808607 l -0.249998,-0.09505 0.06842,-0.98369 c 0.03763,-0.541028 0.09869,-1.15695 0.135672,-1.368714 l 0.06725,-0.385024 0.768684,-0.05974 c 1.770574,-0.137611 3.331755,-0.933746 7.958101,-4.058293 3.677009,-2.483382 5.986873,-3.783652 7.885778,-4.439065 0.91261,-0.314992 2.406617,-0.631895 2.988213,-0.63385 0.440175,-0.0015 0.463235,0.01418 1.237821,0.840733 0.938811,1.001793 1.766423,2.218641 2.405879,3.537412 0.498825,1.028721 0.961205,2.332058 0.961205,2.709371 0,0.595149 -1.13019,1.74441 -2.546821,2.589786 -3.563518,2.126542 -9.247207,3.331912 -14.875534,3.154734 z M 74.605985,58.342185 C 73.765559,58.048094 73.05289,57.65217 72.520645,57.183668 l -0.436103,-0.383872 0.05506,-0.822638 c 0.07293,-1.089699 0.595989,-3.245567 0.934896,-3.853344 0.08606,-0.154338 0.08455,-0.158851 0.283367,0.847856 0.217368,1.100656 0.85816,2.029976 1.766968,2.562573 0.431175,0.252685 0.447989,0.27883 0.396071,0.615876 -0.02982,0.193594 -0.105489,0.815831 -0.168151,1.382751 l -0.113932,1.030763 z m 2.124807,-3.49817 c 0,-0.274965 0.499852,-1.970171 0.816676,-2.769689 0.667007,-1.683216 1.752714,-3.572199 2.849181,-4.95719 1.063814,-1.343746 3.134811,-3.235107 4.272283,-3.90171 l 0.443601,-0.25997 1.849201,0.04802 c 1.404258,0.03646 2.06193,0.09696 2.733317,0.251438 1.075152,0.247375 2.520916,0.762326 3.43953,1.225087 0.793365,0.399667 2.173645,1.280448 2.173645,1.387043 0,0.04027 -0.29238,0.12773 -0.649732,0.194352 -1.624965,0.302946 -4.014791,1.307188 -6.184456,2.598805 -0.922429,0.549128 -3.033318,1.933229 -4.895861,3.210195 -2.888657,1.980471 -4.92434,3.002605 -6.197657,3.111896 -0.60571,0.05199 -0.649728,0.04263 -0.649728,-0.138276 z m -1.619675,-0.50264 c -0.480777,-0.466579 -0.649102,-0.782536 -0.833438,-1.56442 -0.185735,-0.787822 -0.183043,-1.606312 0.0084,-2.545264 0.131706,-0.646057 0.228201,-0.854481 0.662084,-1.430073 1.401074,-1.858672 3.031393,-3.230481 5.087831,-4.281083 0.833394,-0.425768 2.168675,-0.964875 2.38984,-0.964875 0.05563,0 -0.393622,0.487296 -0.998341,1.082881 -0.604719,0.595584 -1.361217,1.407745 -1.681106,1.804802 -1.848047,2.293856 -3.254107,5.168248 -3.919857,8.013322 -0.0843,0.360239 -0.253482,0.332973 -0.715386,-0.11529 z"
         id="path1436"
         sodipodi:nodetypes="ssssssssssssssssssssssssssscsscsssssssssssssscsscssssssscsscssscssssssscsssssscssssscsssssssssssssssssssss" /></g></g></svg>
