<?xml version="1.0" encoding="UTF-8" standalone="no"?>
<!-- Created with Inkscape (http://www.inkscape.org/) -->

<svg
   version="1.1"
   id="svg736"
   width="742.66669"
   height="266.66666"
   viewBox="0 0 742.66669 266.66666"
   sodipodi:docname="redacted"
   inkscape:export-filename="../Github/bernibra.github.io/pet-projects/redacted.png"
   inkscape:export-xdpi="300"
   inkscape:export-ydpi="300"
   inkscape:version="1.2.1 (9c6d41e4, 2022-07-14)"
   xmlns:inkscape="http://www.inkscape.org/namespaces/inkscape"
   xmlns:sodipodi="http://sodipodi.sourceforge.net/DTD/sodipodi-0.dtd"
   xmlns="http://www.w3.org/2000/svg"
   xmlns:svg="http://www.w3.org/2000/svg">
  <defs
     id="defs740" />
  <sodipodi:namedview
     id="namedview738"
     pagecolor="#ffffff"
     bordercolor="#666666"
     borderopacity="1.0"
     inkscape:showpageshadow="2"
     inkscape:pageopacity="0.0"
     inkscape:pagecheckerboard="true"
     inkscape:deskcolor="#d1d1d1"
     showgrid="false"
     inkscape:zoom="0.88500003"
     inkscape:cx="283.05084"
     inkscape:cy="-15.819208"
     inkscape:window-width="1440"
     inkscape:window-height="732"
     inkscape:window-x="0"
     inkscape:window-y="25"
     inkscape:window-maximized="0"
     inkscape:current-layer="g742" />
  <g
     inkscape:groupmode="layer"
     inkscape:label="Image"
     id="g742">
    <path
       id="rect1511"
       style="fill:#4e2013;fill-opacity:1;stroke:none;stroke-width:1.41926;stroke-linecap:square;stroke-opacity:1;paint-order:markers stroke fill"
       d="m 612.97133,100.58479 c -3.3637,-0.32349 -6.09395,4.43624 -3.06581,6.94937 3.44772,2.86134 7.27246,11.34619 8.54603,18.95761 1.44443,8.63257 -0.24901,20.42956 -3.45666,24.08023 -0.43439,0.49437 -0.79003,1.47467 -0.79001,2.17879 0,0.70412 -1.06352,2.84769 -2.36451,4.76227 -2.61337,3.8459 -2.94265,5.87226 -1.23077,7.58415 1.49692,1.49691 1.44141,1.51437 4.08313,-1.3361 1.25949,-1.35901 2.54601,-3.275 2.85793,-4.25777 0.31192,-0.98278 0.96441,-1.78792 1.44974,-1.78792 0.48532,0 0.8815,-0.67755 0.8815,-1.50796 0,-0.83039 0.59497,-2.64088 1.31946,-4.02216 3.67763,-7.0117 4.54559,-10.54169 4.49616,-18.25075 -0.028,-4.35311 -0.2724,-8.9417 -0.54331,-10.19814 -1.7448,-8.09185 -7.88947,-21.09831 -10.71649,-22.68039 -0.49139,-0.27499 -0.98586,-0.42502 -1.46639,-0.47123 z m -482.44748,0.54054 c -2.16703,-0.25011 -3.05684,0.46432 -5.88493,4.729 -5.31762,8.01886 -7.26115,14.85061 -7.60356,26.74689 -0.21964,7.63127 0.0758,11.25412 1.11712,13.72133 6.00048,14.21591 8.9805,18.82681 12.22168,18.91049 1.11521,0.0288 2.28811,-0.62499 2.60567,-1.45251 0.48765,-1.27081 -1.59209,-6.38534 -3.23491,-7.9556 -4.00605,-3.82916 -6.99834,-16.05184 -6.33399,-25.86819 0.54835,-8.10213 2.18949,-12.54583 7.49267,-20.28261 3.39444,-4.95211 3.25246,-8.12958 -0.37975,-8.5488 z m 264.50287,7.69504 c -2.96981,-0.005 -4.66199,0.41953 -6.75809,1.49132 -4.30131,2.19941 -8.71236,7.00639 -8.71236,9.49405 0,1.01458 -0.42762,2.10664 -0.94801,2.42826 -1.35182,0.83548 -1.17078,17.74511 0.23838,22.32003 1.60843,5.2218 5.04841,8.39953 11.17665,10.32288 5.2362,1.64338 11.17349,1.60658 16.49886,-0.10257 5.89051,-1.8906 10.38761,-11.9114 6.71375,-14.9604 -2.00569,-1.66461 -6.27197,-0.17461 -7.96945,2.78306 -2.4252,4.22565 -9.70549,7.30117 -13.52176,5.71306 -4.52267,-1.88206 -5.65236,-3.55193 -6.7082,-9.9237 -1.70927,-10.31504 2.04479,-21.46369 7.43724,-22.08718 0.96078,-0.11113 2.38502,-0.27218 3.16561,-0.3576 5.01553,-0.54875 7.22002,0.24315 8.96183,3.21828 3.10228,5.29894 5.42348,6.42035 8.55157,4.13303 1.61459,-1.18062 1.67131,-1.66328 0.57935,-4.96739 -1.88381,-5.70004 -6.95756,-8.81566 -15.24593,-9.36376 -1.33575,-0.0883 -2.46949,-0.13979 -3.45944,-0.14137 z m 134.64368,1.88217 c -3.35715,0.31583 -6.45332,3.84556 -5.80178,7.17112 0.26612,1.35834 0.47359,9.78701 0.46293,18.73308 -0.0189,15.8058 0.0433,16.30966 2.11502,17.78506 2.53394,1.80456 15.30537,1.55544 22.77186,-0.44351 3.05756,-0.81859 5.07401,-2.03208 6.12886,-3.69229 0.86456,-1.36072 2.00673,-2.77767 2.53914,-3.14897 1.22462,-0.85404 1.69564,-21.3753 0.54885,-23.92501 -0.46811,-1.0408 -1.10587,-3.06508 -1.41647,-4.49616 -0.31059,-1.43108 -1.00249,-2.60012 -1.53568,-2.60012 -0.53319,0 -2.11737,-1.06629 -3.52042,-2.36728 -2.28657,-2.12023 -3.34864,-2.36451 -10.24804,-2.36451 -4.23352,0 -9.00374,-0.26008 -10.60008,-0.57934 -0.48003,-0.096 -0.96461,-0.11719 -1.44419,-0.0721 z m -185.07718,0.26056 c -0.64665,0.0634 -1.17206,0.22271 -1.41925,0.46292 -0.49437,0.48036 -1.90196,0.87318 -3.12958,0.87318 -1.31508,0 -1.97988,0.40821 -1.61883,0.99238 0.337,0.5453 0.33775,1.70399 0.003,2.57517 -0.50851,1.32514 -0.7413,1.36504 -1.43589,0.24116 -0.63607,-1.02919 -0.98152,-0.74816 -1.47193,1.20581 -0.74714,2.97681 0.0762,5.77472 1.44974,4.92582 1.44205,-0.89124 1.14137,0.41651 -0.46568,2.02354 -0.7806,0.7806 -1.41926,2.31769 -1.41926,3.41787 0,1.10017 -0.81671,2.88129 -1.81287,3.95563 -0.99618,1.07433 -2.01866,3.31077 -2.27304,4.97016 -0.55898,3.64626 -1.44008,5.22916 -2.53637,4.5516 -0.44847,-0.27716 -1.11463,-0.0244 -1.47746,0.56272 -0.36282,0.58706 -0.11465,1.40281 0.54885,1.81288 0.90665,0.56035 0.73244,1.04119 -0.69854,1.93484 -1.1844,0.73969 -1.73023,1.85285 -1.44421,2.94662 0.34481,1.31855 0.0771,1.61378 -1.07276,1.17256 -0.84454,-0.32407 -1.53291,-0.1196 -1.53291,0.45737 0,0.57608 0.49613,1.04781 1.10326,1.04781 0.60712,0 0.81931,0.28395 0.47124,0.63201 -0.34806,0.34807 0.0718,1.41436 0.93415,2.36728 1.84633,2.04016 1.56079,1.99221 4.32707,0.73181 h 0.003 c 1.37065,-0.62452 2.66,-2.49199 3.43172,-4.96463 1.82467,-5.84648 2.52588,-6.33734 9.00619,-6.32291 7.74203,0.0172 9.78432,0.67837 10.46424,3.38737 0.31418,1.25183 1.20299,2.27581 1.97366,2.27581 0.77067,0 1.39986,0.65074 1.39986,1.44421 0,0.79346 1.02535,1.83087 2.27579,2.30629 1.25042,0.47541 2.55249,1.31581 2.89395,1.86831 0.94336,1.52638 4.27755,1.19981 4.92304,-0.48232 0.52546,-1.3693 -8.43809,-25.27449 -10.24525,-27.32348 -0.43603,-0.49437 -0.79279,-1.58929 -0.79279,-2.43379 0,-0.84449 -1.24762,-4.11017 -2.77199,-7.25706 -2.21716,-4.5771 -3.3036,-5.82659 -5.43863,-6.24528 -0.73394,-0.14394 -1.5044,-0.17708 -2.15106,-0.11366 z m 101.2246,0.036 c -8.22438,0.10875 -16.57496,0.42817 -17.83495,0.86208 -0.73466,0.253 -1.12208,1.49813 -0.94525,3.03534 0.28938,2.51584 0.53087,2.6232 6.92166,3.07967 4.8361,0.34543 6.71166,0.85695 6.94936,1.89326 0.17904,0.78059 0.22116,5.88993 0.0942,11.35406 -0.39545,17.03042 -0.18794,21.74985 1.01454,23.19874 1.48003,1.78332 4.15448,1.80048 5.61881,0.0361 0.7899,-0.95178 1.13849,-6.73152 1.15315,-19.05464 l 0.0222,-17.68526 6.41161,0.53775 c 4.72582,0.3962 6.92063,0.18346 8.33813,-0.80941 2.19838,-1.53981 1.85265,-4.70387 -0.65974,-6.04848 -0.76082,-0.40717 -8.85937,-0.50792 -17.08375,-0.39916 z m -161.0385,0.11088 c -4.54448,0.008 -5.19294,0.473 -6.78583,2.16492 -1.85166,1.96678 -2.08061,2.86342 -1.43589,5.64931 0.42154,1.82136 0.7776,10.4221 0.79002,19.11283 0.02,14.02371 0.20752,15.91355 1.67705,16.79824 2.25724,1.35893 16.71867,0.91844 22.20637,-0.67636 3.23413,-0.93989 5.28648,-2.33893 7.45388,-5.0755 2.96417,-3.7426 2.99226,-3.88065 3.03809,-14.84121 0.042,-10.05996 -0.10738,-11.04812 -1.64378,-10.91332 -1.07718,0.0945 -1.35968,-0.17877 -0.7817,-0.75675 1.75017,-1.75017 0.0192,-5.38044 -3.91406,-8.20508 -3.77049,-2.70777 -4.50963,-2.86599 -14.58063,-3.14065 -2.5591,-0.0698 -4.50871,-0.11917 -6.02352,-0.11643 z m -80.37096,0.35759 c -1.55666,-0.0132 -3.54322,0.0245 -6.15658,0.0804 -5.94169,0.12717 -11.69586,0.7077 -12.78718,1.29175 -1.92072,1.02796 -1.98338,1.71043 -1.9681,21.3138 0.0158,20.19021 0.0224,20.25356 2.20096,21.38309 3.56486,1.84834 4.43973,0.13686 4.41022,-8.63473 -0.0146,-4.34485 0.2636,-8.37257 0.62093,-8.95074 2.03842,-3.29824 7.83804,1.08769 12.72064,9.62156 3.89586,6.80925 6.83598,9.41805 10.18427,9.0339 3.42209,-0.3926 3.84476,-2.55148 1.08108,-5.51625 -5.05251,-5.42017 -9.62175,-12.83129 -8.76502,-14.21752 0.31218,-0.50511 1.22391,-0.91752 2.02355,-0.91752 2.24419,0 6.82139,-3.63396 8.38249,-6.65276 2.73817,-5.29504 1.1855,-10.84667 -4.33261,-15.48987 -2.15357,-1.81208 -2.94466,-2.30558 -7.61465,-2.34509 z m 53.27756,0.19127 c -7.22674,-0.0714 -19.88529,0.4245 -20.81762,1.00067 -0.54987,0.33986 -1.28715,0.15226 -1.63823,-0.41578 -1.4643,-2.36931 -5.23852,4.07217 -5.30004,9.04498 -0.0292,2.36093 -0.0145,22.20133 0.0194,26.02064 0.0542,6.04271 2.70723,7.91217 11.53424,8.133 3.65971,0.0915 6.91568,0.42924 7.23487,0.74844 0.81928,0.81926 1.96031,0.7193 2.54192,-0.22176 0.27237,-0.44071 2.52049,-0.49521 4.99788,-0.11921 7.53572,1.14364 10.63339,-2.38731 5.6909,-6.48921 -0.80923,-0.6716 -4.44441,-1.05781 -9.27784,-0.98682 -15.19456,0.22321 -14.09831,0.618 -14.08169,-5.0866 0.007,-2.73207 0.33342,-5.46458 0.72072,-6.07343 0.46786,-0.73549 3.89484,-1.07673 10.21476,-1.01731 5.23179,0.0493 10.01844,-0.22533 10.63611,-0.60707 1.71879,-1.06227 1.33532,-4.82667 -0.67636,-6.64722 -0.98914,-0.89515 -2.03512,-1.24077 -2.32569,-0.77061 -0.77698,1.25715 -11.96112,1.18714 -11.96112,-0.0748 0,-0.69586 -0.37132,-0.66258 -1.13374,0.0998 -1.38677,1.38677 -4.21522,1.48309 -5.02562,0.17186 -0.32722,-0.52946 -0.31398,-3.21946 0.0305,-5.97639 l 0.62646,-5.01175 6.77474,0.30214 c 3.72489,0.1659 8.18477,0.49193 9.91261,0.72348 4.61965,0.6191 7.73939,-0.85439 7.73939,-3.65348 0,-1.3971 -0.65992,-2.51943 -1.65488,-2.81356 -0.56611,-0.16736 -2.37275,-0.25617 -4.78167,-0.27996 z m 237.96389,0.16909 c -12.59132,0 -14.59198,0.21164 -16.08583,1.70477 -1.50628,1.50557 -1.7366,3.8508 -1.97088,20.04422 l -0.26611,18.33946 2.44488,1.80179 c 1.82014,1.34196 4.08352,1.81275 8.87591,1.84337 3.53864,0.0226 6.69773,0.30277 7.01866,0.6237 0.80945,0.80943 1.96029,0.73056 2.51974,-0.17463 0.25824,-0.41786 2.51831,-0.50643 5.02283,-0.19682 7.64708,0.94532 11.29567,-2.17852 7.04085,-6.02906 -1.42135,-1.28629 -3.4306,-1.56909 -10.17319,-1.42481 -14.86856,0.31817 -13.7397,0.82707 -13.41364,-6.01797 l 0.28275,-5.91542 10.27297,-0.10811 c 7.62615,-0.0813 10.48886,-0.44705 11.10458,-1.41925 1.31941,-2.08332 1.01755,-3.19634 -1.50796,-5.56893 -1.30099,-1.22222 -2.36451,-1.72269 -2.36451,-1.11157 0,1.45318 -4.02887,1.43742 -5.48852,-0.0222 -0.88309,-0.88309 -1.13653,-0.88309 -1.13651,0 0,1.41679 -3.99121,1.49462 -5.38043,0.10534 -0.74071,-0.74071 -1.20542,-0.74071 -1.6632,0 -0.34965,0.56574 -1.46253,1.0284 -2.4726,1.0284 -1.59658,0 -1.83784,-0.68293 -1.83783,-5.2335 0,-6.47394 0.59461,-6.7748 11.99992,-6.09283 10.28935,0.61526 12.37857,0.2788 13.13922,-2.1178 1.12554,-3.54627 -0.88835,-4.05818 -15.9611,-4.05818 z m -204.20664,5.32775 c 0.98942,0.0136 2.12173,0.0646 3.41508,0.12473 5.5099,0.2561 7.05395,0.70621 9.07548,2.63339 1.33975,1.27725 2.71798,3.09234 3.06582,4.03601 0.34783,0.94368 1.06149,1.45209 1.58557,1.1282 2.29074,-1.41575 -0.51844,15.19554 -3.02977,17.91535 -0.93149,1.00881 -1.69369,2.16289 -1.69369,2.56685 0,1.69176 -4.67875,3.0453 -10.73313,3.10463 -3.56171,0.0349 -6.85566,-0.16884 -7.31804,-0.45461 -0.46237,-0.28575 -0.93022,-6.82949 -1.04227,-14.54183 -0.21464,-14.77517 -0.25103,-16.60771 6.67495,-16.51272 z m 253.09616,0.12473 c 1.50537,0.0334 2.8177,0.13144 3.67011,0.3077 1.43106,0.29593 2.60289,1.14294 2.60289,1.88218 0,0.73923 0.59251,1.34441 1.31669,1.34441 0.72417,0 1.57631,1.03508 1.89327,2.29798 0.31698,1.2629 1.3211,2.4897 2.23144,2.72763 1.57553,0.41177 1.57616,0.43883 0,0.54332 -0.91068,0.0603 -1.65764,0.52156 -1.65764,1.02562 0,0.50405 0.70853,0.64552 1.57449,0.31323 0.86596,-0.33229 1.33635,-0.2126 1.04226,0.26611 -0.71149,1.15816 -1.94459,7.78505 -2.05404,11.04083 -0.0481,1.43109 -0.41628,2.6029 -0.81773,2.6029 -0.40145,0 -1.17791,0.97983 -1.72419,2.17877 -0.54627,1.19893 -1.92087,2.76706 -3.05472,3.48439 -2.47153,1.56364 -14.50892,1.87939 -16.48777,0.43243 -1.11601,-0.81604 -1.31022,-3.57271 -1.04226,-14.82735 0.18102,-7.60299 0.6555,-14.14757 1.05334,-14.5446 0.69508,-0.69367 6.9377,-1.17583 11.45386,-1.07555 z m -348.94866,1.07555 c 1.09816,0.0266 2.51905,0.10868 4.37419,0.22452 4.44829,0.27775 8.14554,0.96979 8.54604,1.59943 0.38822,0.61034 0.71274,2.48162 0.72071,4.16075 0.0128,2.62543 -0.50975,3.30694 -3.72278,4.8593 -2.05494,0.99284 -3.95913,1.58209 -4.23005,1.31115 -0.27094,-0.27092 -2.74057,-0.53949 -5.48852,-0.59876 l -4.99513,-0.1081 -0.11087,-3.78375 c -0.0599,-2.08159 0.23981,-4.71743 0.66527,-5.85722 0.5491,-1.47107 0.94663,-1.88703 4.24114,-1.80732 z m 150.1252,7.25427 c 0.50107,0.19729 0.72561,1.18075 0.54885,3.01039 -0.20042,2.07472 0.0863,2.99811 0.88427,2.83851 1.8508,-0.37016 1.41315,4.19991 -0.474,4.95076 -2.9195,1.16158 -5.40614,1.39816 -6.63615,0.63201 -0.91834,-0.572 -0.59206,-1.99872 1.40264,-6.12054 1.83026,-3.78201 3.43928,-5.63993 4.27439,-5.31113 z m -38.12589,0.8815 c -0.5511,0 -0.73743,0.42762 -0.4158,0.94802 0.32162,0.52039 0.77121,0.94524 1.00069,0.94524 0.22948,0 0.41857,-0.42485 0.41857,-0.94524 0,-0.5204 -0.45235,-0.94802 -1.00346,-0.94802 z m 25.66027,0.94802 c -0.55111,0 -1.00345,0.42486 -1.00345,0.94524 0,0.5204 0.18908,0.94525 0.41856,0.94525 0.22948,0 0.67907,-0.42485 1.00069,-0.94525 0.32163,-0.52038 0.13527,-0.94524 -0.4158,-0.94524 z" />
  </g>
</svg>
