<?xml version="1.0" encoding="UTF-8" standalone="no"?>
<!-- Created with Inkscape (http://www.inkscape.org/) -->

<svg
   version="1.1"
   id="svg1432"
   width="1100"
   height="1100"
   viewBox="0 0 1100 1100"
   sodipodi:docname="website_project.svg"
   inkscape:export-filename="website_project.png"
   inkscape:export-xdpi="150"
   inkscape:export-ydpi="150"
   inkscape:version="1.2.1 (9c6d41e4, 2022-07-14)"
   xmlns:inkscape="http://www.inkscape.org/namespaces/inkscape"
   xmlns:sodipodi="http://sodipodi.sourceforge.net/DTD/sodipodi-0.dtd"
   xmlns="http://www.w3.org/2000/svg"
   xmlns:svg="http://www.w3.org/2000/svg">
  <defs
     id="defs1436" />
  <sodipodi:namedview
     id="namedview1434"
     pagecolor="#ffffff"
     bordercolor="#666666"
     borderopacity="1.0"
     inkscape:showpageshadow="2"
     inkscape:pageopacity="0.0"
     inkscape:pagecheckerboard="true"
     inkscape:deskcolor="#d1d1d1"
     showgrid="false"
     inkscape:zoom="0.25504323"
     inkscape:cx="913.57061"
     inkscape:cy="621.46327"
     inkscape:window-width="1433"
     inkscape:window-height="719"
     inkscape:window-x="0"
     inkscape:window-y="25"
     inkscape:window-maximized="0"
     inkscape:current-layer="g1438" />
  <g
     inkscape:groupmode="layer"
     inkscape:label="Image"
     id="g1438">
    <g
       id="g9994"
       transform="translate(-99.999994,-3.3920428e-5)">
      <ellipse
         style="fill:#13414e;fill-opacity:1;stroke:none;stroke-width:5.058;stroke-linecap:square;stroke-dasharray:none;stroke-opacity:1;paint-order:markers stroke fill"
         id="path4170"
         cx="650.00024"
         cy="549.99933"
         rx="484.45682"
         ry="484.46268" />
      <path
         style="fill:#e7ebec;fill-opacity:1;stroke:#e7ebec;stroke-width:1.45478;stroke-dasharray:none;stroke-opacity:1"
         d="M 618.82039,1035.9736 C 477.32324,1026.744 345.69081,955.55997 260.79236,842.35965 212.026,777.33647 180.00153,700.36506 168.31102,620.07901 162.71804,581.6685 161.81923,536.8789 165.88789,499.32841 179.61266,372.65926 240.41931,258.34511 337.33754,177.00964 424.77945,103.62685 535.56672,63.362493 650.0373,63.362493 c 105.57625,0 207.81798,34.085424 292.30379,97.448467 96.68261,72.5104 163.25481,179.28969 185.83841,298.07736 6.5483,34.44395 9.0231,64.32657 8.3433,100.74547 -0.4291,22.98891 -1.4905,36.7942 -4.4732,58.17697 -11.2832,80.89105 -43.4852,158.83808 -92.7674,224.54889 -27.0432,36.05845 -61.25259,70.2672 -96.94111,96.93936 -76.75592,57.3644 -167.14656,90.62999 -262.84845,96.73369 -13.00017,0.8291 -47.5715,0.7954 -60.67225,-0.058 z m 76.62333,-2.3422 c 72.0158,-7.2996 138.91738,-28.8138 199.3206,-64.09753 120.74938,-70.53419 205.07288,-189.24329 231.95088,-326.53674 14.5575,-74.35947 11.241,-153.09254 -9.5052,-225.65467 C 1070.8014,255.02356 945.06967,129.29183 782.75073,82.883196 696.82825,58.317082 603.24636,58.317082 517.32388,82.883196 355.00497,129.29183 229.27324,255.02356 182.8646,417.34246 c -24.56612,85.92248 -24.56612,179.50436 0,265.42684 44.38373,155.23659 161.26588,277.27307 314.28582,328.1454 39.40898,13.1017 77.10612,20.4212 123.44366,23.9684 1.95105,0.1494 16.95645,0.1958 33.34534,0.1032 21.63768,-0.1222 33.00377,-0.4932 41.5043,-1.3549 z m -60.24067,-37.3741 c -16.28037,-1.24774 -36.15188,-5.57157 -51.85642,-11.28348 -12.29562,-4.47204 -28.62909,-12.81696 -40.29327,-20.58621 -43.31113,-28.8486 -72.52491,-72.33021 -82.86085,-123.32963 -6.7845,-33.47588 -4.25944,-69.52125 7.16504,-102.28171 8.07533,-23.15653 21.71756,-46.10109 38.85518,-65.34963 24.30483,-27.29859 59.50192,-48.64198 95.22095,-57.74167 17.35931,-4.42241 30.18992,-6.00858 48.60362,-6.00858 31.23787,0 57.46545,6.08392 85.49388,19.83174 33.81799,16.58755 61.51103,42.13446 80.89926,74.62982 33.60447,56.32221 36.24935,126.24619 6.99796,185.0079 -9.12366,18.32809 -19.6528,33.32037 -33.51591,47.72286 -10.80677,11.22723 -20.0789,18.98484 -32.89125,27.5189 -35.82827,23.86441 -78.97761,35.153 -121.81819,31.86969 z m 41.43957,-2.33424 c 41.13925,-6.2116 77.31099,-23.7977 106.53449,-51.79544 33.06731,-31.68034 53.23599,-72.72944 58.43086,-118.92379 1.12598,-10.01247 0.94422,-32.39634 -0.34822,-42.88154 -2.68102,-21.75055 -8.82031,-42.3493 -18.40889,-61.76606 -6.63872,-13.44333 -10.06118,-19.07896 -18.52684,-30.50742 -23.60254,-31.86298 -55.65763,-54.97496 -93.98132,-67.76131 -20.19239,-6.737 -37.63029,-9.47753 -60.3054,-9.47753 -22.6751,0 -40.11301,2.74053 -60.30539,9.47753 -43.22437,14.42142 -78.2985,41.9234 -103.15718,80.88659 -10.14091,15.89473 -20.78087,42.24232 -24.83062,61.48769 -4.96507,23.5952 -5.47675,50.09623 -1.4222,73.6591 6.87111,39.93118 26.88578,77.36225 56.57558,105.80674 15.19253,14.55524 30.04583,24.82234 49.77647,34.40699 20.70238,10.05674 41.98825,15.93878 67.40015,18.62507 6.18737,0.65406 35.73068,-0.20418 42.56851,-1.23662 z M 553.54867,839.10792 c 0,-61.88191 0.18097,-77.68639 0.88684,-77.45124 0.68369,0.22775 0.92944,6.31727 1.07277,26.58194 l 0.18592,26.28641 2.29724,0.91707 c 1.26349,0.50436 4.21283,1.77149 6.55409,2.81576 2.34127,1.04435 6.9706,3.08253 10.2874,4.52936 3.3168,1.44683 7.3076,3.21754 8.86843,3.9349 9.27785,4.26387 13.31043,5.74178 14.57355,5.34085 2.03364,-0.64548 4.22755,0.26527 4.22755,1.75488 0,0.71239 0.52067,1.49501 1.15702,1.73921 0.99151,0.38049 1.09275,0.0418 0.70773,-2.36574 -0.37851,-2.36709 -0.20817,-2.97873 1.08109,-3.88175 1.98058,-1.38723 4.14892,-0.32445 4.14892,2.03357 0,1.5497 0.22389,1.66776 2.47059,1.30323 1.91501,-0.31082 2.57481,-0.12934 2.93405,0.80682 0.32382,0.84385 0.9535,1.08478 2.08969,0.79965 2.02225,-0.50757 4.01548,1.3187 3.71766,3.40626 -0.25643,1.79738 -3.96249,2.54389 -5.14647,1.03668 -0.40946,-0.52125 -1.61022,-0.95935 -2.66836,-0.97354 -1.80269,-0.0242 -1.85163,0.0539 -0.77689,1.24158 0.63085,0.69706 1.41636,1.26741 1.74556,1.26741 0.52938,0 3.62699,1.33445 17.27316,7.44133 1.95105,0.87315 5.94185,2.61768 8.86843,3.87686 2.92659,1.2591 6.59812,2.87947 8.15897,3.60087 1.56085,0.72132 5.87091,2.63683 9.57792,4.25671 3.70701,1.61979 8.01707,3.51382 9.57791,4.20896 1.56085,0.69514 5.39202,2.38646 8.5137,3.75844 3.1217,1.37206 8.38956,3.68927 11.70635,5.14937 3.3168,1.4601 7.30759,3.21095 8.86844,3.89069 7.21737,3.14326 15.21217,6.68184 18.44635,8.16443 1.95106,0.89444 6.74001,2.97681 10.64213,4.62748 3.90212,1.65067 7.41402,3.2267 7.80423,3.50233 0.39021,0.27563 2.62506,1.25037 4.96633,2.16602 5.31996,2.08069 7.44949,3.41825 7.44949,4.67928 0,1.71757 -0.25632,1.63023 -17.38214,-5.92093 -3.1217,-1.37645 -6.95287,-3.05883 -8.51371,-3.73858 -3.96874,-1.72842 -12.58779,-5.51305 -23.41268,-10.28043 -5.07275,-2.23407 -11.77729,-5.18357 -14.89898,-6.55435 -7.62156,-3.34681 -8.80234,-3.86742 -17.0274,-7.50781 -9.31522,-4.1229 -10.02501,-4.32453 -10.53585,-2.99334 -0.5014,1.30664 -3.54419,1.43903 -4.56302,0.19851 -0.4006,-0.48776 -0.83877,-1.66515 -0.97371,-2.61648 -0.21217,-1.49564 -1.9248,-2.47876 -12.66118,-7.26801 -12.28218,-5.47884 -14.1895,-6.14014 -14.1895,-4.91985 0,1.15105 -2.72783,1.35766 -4.21095,0.31884 -0.80567,-0.56431 -1.46485,-1.76737 -1.46485,-2.67345 0,-2.12111 -3.67272,-3.897 -5.28767,-2.55673 -1.45216,1.20518 -3.85422,0.24391 -4.35263,-1.74191 -0.58968,-2.34949 -2.5426,-2.92999 -3.7489,-1.11437 -1.07612,1.61973 -3.59478,1.93418 -4.91526,0.6137 -0.46825,-0.46825 -0.85137,-1.88344 -0.85137,-3.14482 0,-1.76021 -0.37115,-2.40739 -1.59632,-2.78348 -0.87797,-0.26953 -3.5119,-1.36958 -5.85317,-2.4445 -2.34126,-1.07499 -6.65133,-2.97987 -9.57791,-4.23309 -2.92659,-1.25328 -6.59812,-2.86762 -8.15897,-3.58746 -3.18716,-1.46989 -10.16758,-4.58661 -13.65739,-6.09794 l -2.3058,-0.9985 v 48.60854 48.60856 h 95.06968 c 84.03339,0 95.06968,0.12352 95.06968,1.06421 0,0.94077 -11.15453,1.06422 -96.13389,1.06422 h -96.1339 z m 98.61706,21.69809 c 0,-0.39021 -0.33811,-0.70948 -0.75135,-0.70948 -0.41324,0 -0.55403,0.31927 -0.31286,0.70948 0.24116,0.39021 0.57927,0.70947 0.75134,0.70947 0.17208,0 0.31287,-0.31926 0.31287,-0.70947 z m -51.79169,-21.99373 c 0,-0.39022 -0.33812,-0.70948 -0.75135,-0.70948 -0.41324,0 -0.55403,0.31926 -0.31287,0.70948 0.24116,0.39021 0.57928,0.70948 0.75135,0.70948 0.17208,0 0.31287,-0.31927 0.31287,-0.70948 z m 18.55277,-2.48316 c 0,-0.37071 -0.34321,-0.78844 -0.76268,-0.92821 -0.41948,-0.13984 -0.76269,0.27783 -0.76269,0.92821 0,0.65037 0.34321,1.06804 0.76269,0.9282 0.41947,-0.13977 0.76268,-0.5575 0.76268,-0.9282 z m -5.07274,-1.77369 c 0,-0.39022 -0.31927,-0.70948 -0.70948,-0.70948 -0.39022,0 -0.70948,0.31926 -0.70948,0.70948 0,0.39021 0.31926,0.70948 0.70948,0.70948 0.39021,0 0.70948,-0.31927 0.70948,-0.70948 z m -5.67581,-3.54738 c 0,-0.39021 -0.4789,-0.70947 -1.06421,-0.70947 -0.58532,0 -1.06422,0.31926 -1.06422,0.70947 0,0.39022 0.4789,0.70947 1.06422,0.70947 0.58531,0 1.06421,-0.31925 1.06421,-0.70947 z m 25.59781,81.30323 c -1.50582,-1.8144 -0.6456,-3.61569 1.7267,-3.61569 1.88114,0 2.11871,0.23866 2.11871,2.12842 0,1.61761 -0.35544,2.17923 -1.48103,2.34006 -0.81457,0.11636 -1.87854,-0.26739 -2.36438,-0.85279 z m 2.7812,-1.48727 c 0,-0.58531 -0.47889,-1.06421 -1.06421,-1.06421 -0.58532,0 -1.06421,0.4789 -1.06421,1.06421 0,0.58532 0.47889,1.06422 1.06421,1.06422 0.58532,0 1.06421,-0.4789 1.06421,-1.06422 z m 98.91081,-2.03151 c -0.22328,-0.58184 -0.3009,-1.79951 -0.17249,-2.70587 0.19352,-1.36588 0.65846,-1.64789 2.71664,-1.64789 2.36492,0 2.48316,0.11826 2.48316,2.48316 0,2.28401 -0.1853,2.50104 -2.31067,2.70586 -1.54954,0.14935 -2.44439,-0.12579 -2.71664,-0.83526 z m 3.25362,-1.8706 c 0,-0.39022 -0.31926,-0.70948 -0.70947,-0.70948 -0.39021,0 -0.70948,0.31926 -0.70948,0.70948 0,0.39021 0.31927,0.70948 0.70948,0.70948 0.39021,0 0.70947,-0.31927 0.70947,-0.70948 z m -60.19009,-3.46111 c -0.52191,-0.33082 -0.84117,-1.36353 -0.70948,-2.29493 0.19165,-1.35538 0.6643,-1.69345 2.36787,-1.69345 1.70357,0 2.17623,0.33807 2.36787,1.69345 0.22755,1.60944 -0.8246,2.89642 -2.36787,2.89642 -0.39021,0 -1.13649,-0.27066 -1.65839,-0.60149 z m 2.7226,-1.85996 c 0,-0.58531 -0.4789,-1.06421 -1.06421,-1.06421 -0.58532,0 -1.06422,0.4789 -1.06422,1.06421 0,0.58532 0.4789,1.06422 1.06422,1.06422 0.58531,0 1.06421,-0.4789 1.06421,-1.06422 z m -30.94444,-0.66803 c -0.68867,-1.79463 0.05,-3.58208 1.57055,-3.80046 1.90048,-0.27286 3.37006,1.50913 2.77938,3.37023 -0.54114,1.705 -3.73939,2.02129 -4.34993,0.43023 z m 3.11232,-1.23868 c -0.4385,-1.31551 -1.96584,-1.53375 -1.96584,-0.28081 0,0.61781 0.5055,1.12331 1.12334,1.12331 0.61784,0 0.99696,-0.37915 0.8425,-0.8425 z m -69.07528,-11.48435 c -0.85026,-2.21576 0.01,-3.63634 2.20218,-3.63634 1.88113,0 2.1187,0.23867 2.1187,2.12842 0,1.79562 -0.30572,2.16362 -1.95509,2.35333 -1.24766,0.14353 -2.1037,-0.1624 -2.36579,-0.84541 z m 3.25667,-1.50792 c 0,-0.58531 -0.47889,-1.06421 -1.06421,-1.06421 -0.58532,0 -1.06421,0.4789 -1.06421,1.06421 0,0.58532 0.47889,1.06422 1.06421,1.06422 0.58532,0 1.06421,-0.4789 1.06421,-1.06422 z m -28.02199,-4.60434 c -0.60486,-1.9058 0.84346,-3.68723 2.77353,-3.41152 1.1256,0.16084 1.48105,0.72246 1.48105,2.34007 0,1.77758 -0.31155,2.16446 -1.89016,2.34701 -1.4088,0.16296 -2.01093,-0.16191 -2.36442,-1.27556 z m 3.40521,-1.06174 c 0.0769,-0.38489 -0.41882,-0.80738 -1.1017,-0.93885 -0.77659,-0.14955 -1.24157,0.19837 -1.24157,0.92914 0,1.23433 2.09671,1.243 2.34327,0.01 z m 53.77132,1.48884 c -1.14475,-1.37936 0.1627,-3.98172 2.00046,-3.98172 1.94656,0 3.34477,1.97213 2.43147,3.42946 -0.98393,1.57014 -3.34319,1.86408 -4.43193,0.55226 z m 3.31873,-1.27685 c -0.4385,-1.3155 -1.96583,-1.53374 -1.96583,-0.28081 0,0.61782 0.5055,1.12332 1.12333,1.12332 0.61784,0 0.99696,-0.37915 0.8425,-0.84251 z m 53.09277,-0.49436 c -1.9455,-2.14978 -0.91068,-4.48019 1.86588,-4.20201 2.66663,0.26719 4.07455,2.14879 2.95009,3.94256 -1.11054,1.77155 -3.33887,1.8916 -4.81597,0.25945 z m -39.01697,-4.03556 c -0.23545,-0.61363 -0.0895,-1.74837 0.32444,-2.52176 0.59674,-1.11501 1.35238,-1.36142 3.64994,-1.19022 3.08757,0.23016 4.64246,1.69713 3.88658,3.66693 -0.62153,1.61965 -7.24215,1.65762 -7.86096,0.0447 z m 3.1142,-1.42669 c 0,-1.25293 -1.52734,-1.0347 -1.96584,0.28082 -0.15446,0.46335 0.22466,0.84249 0.8425,0.84249 0.61784,0 1.12334,-0.5055 1.12334,-1.12331 z m 3.54737,0.4557 c 0,-0.36716 -0.31926,-0.86492 -0.70948,-1.10607 -0.3902,-0.24115 -0.70946,0.0589 -0.70946,0.66761 0,0.60831 0.31926,1.10607 0.70946,1.10607 0.39022,0 0.70948,-0.30038 0.70948,-0.66761 z m 7.36722,1.06378 c -0.75572,-1.96935 0.0513,-3.58881 1.78835,-3.58881 1.95352,0 3.33104,1.76986 2.68595,3.45097 -0.55224,1.43909 -3.93496,1.54332 -4.4743,0.13784 z m 3.11232,-1.23866 c -0.4385,-1.31552 -1.96584,-1.53375 -1.96584,-0.28082 0,0.61781 0.50551,1.12331 1.12334,1.12331 0.61784,0 0.99696,-0.37914 0.8425,-0.84249 z m -37.64616,0.39943 c -0.27661,-0.27662 -0.50291,-1.40746 -0.50291,-2.51311 0,-1.76517 0.26213,-2.01015 2.15069,-2.01015 2.39594,0 3.48141,1.61909 2.32398,3.46642 -0.77569,1.2381 -3.15691,1.87167 -3.97176,1.05684 z m 2.68973,-2.27657 c 0,-1.28323 -1.38866,-1.04896 -1.66408,0.28067 -0.15324,0.73984 0.11272,1.06415 0.70948,0.8652 0.52503,-0.17495 0.9546,-0.69067 0.9546,-1.14587 z m -14.03046,-1.63264 c -1.48846,-0.833 -1.59296,-2.97135 -0.20163,-4.1261 0.56188,-0.46634 1.12059,-1.53977 1.24157,-2.38539 0.42258,-2.95383 4.83155,-2.00455 4.83155,1.04022 0,0.74489 -0.4789,1.53815 -1.06421,1.76277 -0.58532,0.22462 -1.06422,1.0015 -1.06422,1.72644 0,1.74134 -2.14425,2.87678 -3.74306,1.98206 z m 1.96938,-2.74247 c -0.34326,-0.55539 -0.75138,-0.5966 -1.22437,-0.12367 -0.39021,0.39021 -0.47777,1.08444 -0.19458,1.54261 0.34326,0.55538 0.75138,0.5966 1.22437,0.12366 0.39021,-0.39021 0.47777,-1.08443 0.19458,-1.5426 z m 2.32057,-2.97094 c -0.43851,-1.3155 -1.96583,-1.53374 -1.96583,-0.28081 0,0.61782 0.5055,1.12332 1.12333,1.12332 0.61784,0 0.99696,-0.37915 0.8425,-0.84251 z m 86.15099,5.66694 c -1.36232,-1.36233 -0.9894,-3.28232 0.87474,-4.50375 3.06059,-2.0054 5.63389,0.57056 4.22852,4.23287 -0.50878,1.32586 -3.86986,1.5043 -5.10326,0.27088 z m -103.58338,-9.22318 c -1.38837,-1.38838 -1.02182,-3.96526 0.639,-4.49232 1.08445,-0.34424 1.27768,-0.68578 0.70947,-1.25393 -2.05942,-2.05947 0.35924,-5.33285 2.92554,-3.95937 1.69929,0.90941 1.59211,3.14908 -0.21116,4.41216 -0.92015,0.64449 -1.18586,1.2066 -0.70947,1.50103 1.23774,0.76495 0.87035,3.11673 -0.61073,3.90935 -1.71027,0.9153 -1.71043,0.9153 -2.74265,-0.11692 z m 2.53341,-2.11955 c -0.43851,-1.31552 -1.96583,-1.53375 -1.96583,-0.28082 0,0.61781 0.5055,1.12331 1.12333,1.12331 0.61784,0 0.99696,-0.37914 0.8425,-0.84249 z m 1.22681,-6.25225 c -0.34327,-0.55538 -0.75139,-0.5966 -1.22437,-0.12367 -0.39021,0.39021 -0.47777,1.08444 -0.19458,1.54261 0.34325,0.55538 0.75138,0.5966 1.22437,0.12366 0.39021,-0.39021 0.47776,-1.08443 0.19458,-1.5426 z m 72.8631,6.95285 c -1.40509,-1.40511 -1.04768,-4.6665 0.56758,-5.17917 2.43556,-0.77305 4.25685,0.24917 4.25685,2.38909 0,2.17773 -1.1407,3.64145 -2.83789,3.64145 -0.62434,0 -1.51828,-0.38312 -1.98654,-0.85137 z m -31.08244,-0.87074 c -0.87065,-2.26883 0.0378,-4.30375 2.02343,-4.53234 1.53169,-0.1763 2.12884,0.17942 2.80982,1.674 0.74938,1.64471 0.68476,2.02961 -0.48433,2.88445 -1.74364,1.275 -3.85451,1.2623 -4.34892,-0.0263 z m 2.56154,-1.51238 c 0,-0.60838 -0.31926,-0.90878 -0.70948,-0.66763 -0.39021,0.24115 -0.70948,0.73893 -0.70948,1.10608 0,0.36722 0.31927,0.66761 0.70948,0.66761 0.39022,0 0.70948,-0.49776 0.70948,-1.10606 z m -38.14258,-3.97499 c -1.17452,-1.17446 -1.10786,-2.35914 0.19352,-3.43917 0.953,-0.79092 0.94443,-0.98312 -0.0772,-1.73006 -2.2255,-1.62739 0.19059,-5.43458 2.81075,-4.42912 1.29282,0.49608 1.5855,3.69098 0.40495,4.42061 -0.49274,0.3045 -0.31796,0.95069 0.50229,1.85705 0.95634,1.05676 1.07763,1.67776 0.50586,2.59008 -0.94492,1.5077 -3.18589,1.88493 -4.34022,0.73061 z m 2.99325,-1.25519 c 0.5247,-0.84897 -0.80995,-1.69012 -1.75495,-1.10608 -0.79346,0.49039 -0.27257,1.76653 0.72104,1.76653 0.34415,0 0.80941,-0.29721 1.03391,-0.66045 z m -0.32444,-6.07958 c 0,-0.58531 -0.47889,-1.06421 -1.06421,-1.06421 -0.58532,0 -1.06421,0.4789 -1.06421,1.06421 0,0.58532 0.47889,1.06422 1.06421,1.06422 0.58532,0 1.06421,-0.4789 1.06421,-1.06422 z m 53.03328,4.55477 c -2.48233,-1.44584 -1.01528,-4.9095 2.07944,-4.9095 2.23576,0 3.13045,3.35397 1.25958,4.72199 -1.53696,1.12381 -1.71434,1.13381 -3.33902,0.18751 z m 3.01527,-2.82293 c 0,-0.36723 -0.4789,-0.66762 -1.06422,-0.66762 -1.09714,0 -1.4095,0.83718 -0.61051,1.63612 0.56682,0.56687 1.67473,-0.0739 1.67473,-0.9685 z m -70.67506,-0.27145 c -0.75572,-1.96936 0.0513,-3.58881 1.78836,-3.58881 1.95351,0 3.33103,1.76986 2.68595,3.45096 -0.55225,1.4391 -3.93497,1.54333 -4.47431,0.13785 z m 3.27492,-1.46039 c 0,-0.58531 -0.4789,-1.06421 -1.06422,-1.06421 -0.58531,0 -1.06421,0.4789 -1.06421,1.06421 0,0.58532 0.4789,1.06422 1.06421,1.06422 0.58532,0 1.06422,-0.4789 1.06422,-1.06422 z m 33.10884,-6.50354 c -0.77089,-0.77084 -0.53933,-3.43371 0.37838,-4.35143 2.27097,-2.27095 5.29395,0.17986 3.92575,3.18271 -0.71373,1.56645 -3.22461,2.24826 -4.30413,1.16872 z m 3.07439,-2.71963 c 0,-0.58531 -0.47889,-1.06421 -1.06421,-1.06421 -0.58532,0 -1.06421,0.4789 -1.06421,1.06421 0,0.58532 0.47889,1.06422 1.06421,1.06422 0.58532,0 1.06421,-0.4789 1.06421,-1.06422 z m 15.40454,-3.63308 c -1.08188,-1.08188 -0.48236,-3.72815 0.94743,-4.18193 1.86359,-0.59149 3.64267,0.87954 3.3702,2.78661 -0.21298,1.4906 -3.24311,2.46989 -4.31763,1.39532 z m 2.87922,-1.82101 c -0.43851,-1.31551 -1.96583,-1.53374 -1.96583,-0.28081 0,0.61781 0.5055,1.12331 1.12333,1.12331 0.61784,0 0.99696,-0.37914 0.8425,-0.8425 z m -49.70353,-3.14425 c -0.27864,-0.27861 -0.50661,-1.37389 -0.50661,-2.434 0,-1.39774 0.43532,-2.0413 1.58408,-2.34169 1.25545,-0.32834 1.40263,-0.59567 0.70947,-1.28883 -2.09697,-2.097 -0.0983,-5.06842 2.88448,-4.28842 0.9518,0.24888 1.26263,0.10429 0.93063,-0.43285 -0.27416,-0.44364 -0.14286,-1.47111 0.29181,-2.28324 1.14061,-2.13127 3.59077,-1.52637 4.68075,1.1556 0.77618,1.9099 0.70998,2.48848 -0.51525,4.50325 -1.16484,1.91544 -1.71014,2.23541 -3.18064,1.86634 -2.2882,-0.57431 -3.46552,0.11068 -2.399,1.39576 0.43911,0.52905 0.69406,1.69791 0.56656,2.59738 -0.17551,1.23804 -0.75511,1.68656 -2.38575,1.84634 -1.18466,0.11607 -2.3819,-0.017 -2.66053,-0.29564 z m 3.04076,-2.79512 c 0,-0.60838 -0.31926,-0.90876 -0.70948,-0.66761 -0.3902,0.24115 -0.70947,0.73891 -0.70947,1.10607 0,0.36723 0.31927,0.66761 0.70947,0.66761 0.39022,0 0.70948,-0.49776 0.70948,-1.10607 z m 1.06421,-5.16093 c 0,-1.28323 -1.38866,-1.04896 -1.66407,0.28066 -0.15324,0.73985 0.11272,1.06414 0.70947,0.86521 0.52503,-0.17496 0.9546,-0.69067 0.9546,-1.14587 z m 3.90212,0.9878 c 0,-0.17205 -0.31926,-0.51018 -0.70948,-0.75133 -0.39021,-0.24115 -0.70948,-0.10036 -0.70948,0.31288 0,0.41319 0.31927,0.75133 0.70948,0.75133 0.39022,0 0.70948,-0.14076 0.70948,-0.31288 z m 6.89083,2.71034 c -1.02233,-1.02228 -0.49114,-3.72538 0.81344,-4.13944 2.23381,-0.70898 3.74654,0.31068 3.50834,2.36468 -0.16145,1.39228 -0.6688,1.91332 -2.01598,2.0704 -0.99014,0.1155 -2.02775,-0.0178 -2.3058,-0.29564 z m 3.04182,-2.04273 c 0,-0.58531 -0.4789,-1.06421 -1.06421,-1.06421 -0.58532,0 -1.06422,0.4789 -1.06422,1.06421 0,0.58532 0.4789,1.06422 1.06422,1.06422 0.58531,0 1.06421,-0.4789 1.06421,-1.06422 z m 3.23745,-2.34198 c -0.72116,-2.27215 0.28398,-3.78937 2.35161,-3.54957 1.54622,0.17929 1.86043,0.57525 1.86043,2.34418 0,1.77759 -0.31155,2.16446 -1.89016,2.34702 -1.35852,0.15714 -2.01158,-0.16397 -2.32188,-1.14163 z m 3.14783,-1.20539 c 0,-0.58531 -0.4789,-1.06421 -1.06422,-1.06421 -0.58531,0 -1.06421,0.4789 -1.06421,1.06421 0,0.58532 0.4789,1.06422 1.06421,1.06422 0.58532,0 1.06422,-0.4789 1.06422,-1.06422 z m -40.2982,-5.46296 c -1.27696,-1.27698 -1.02628,-3.26195 0.51619,-4.08743 2.0274,-1.08507 3.59877,-0.16772 3.59877,2.1009 0,2.56766 -2.38328,3.71821 -4.11496,1.98653 z m 3.00106,-1.19667 c 0.21384,-0.34602 -0.0582,-1.00001 -0.60443,-1.45344 -1.10589,-0.91777 -2.23832,0.13686 -1.47431,1.37305 0.54289,0.8784 1.56119,0.91778 2.07874,0.0804 z m 47.96755,-1.11055 c -1.48037,-1.78368 -0.59939,-3.58142 1.75512,-3.58142 1.24667,0 2.61143,-0.58404 3.31584,-1.41895 0.958,-1.13552 1.45403,-1.26202 2.48316,-0.63342 2.77278,1.69359 1.27147,5.57222 -1.84173,4.75809 -0.75807,-0.1983 -1.46521,0.12458 -1.71845,0.78447 -0.53906,1.40476 -2.85984,1.45776 -3.99394,0.0912 z m 2.80962,-1.453 c 0,-0.58532 -0.4789,-1.06421 -1.06421,-1.06421 -0.58532,0 -1.06422,0.47889 -1.06422,1.06421 0,0.58532 0.4789,1.06421 1.06422,1.06421 0.58531,0 1.06421,-0.47889 1.06421,-1.06421 z m 4.96632,-2.12842 c 0,-0.58532 -0.4789,-1.06422 -1.06422,-1.06422 -0.58531,0 -1.06421,0.4789 -1.06421,1.06422 0,0.58531 0.4789,1.06421 1.06421,1.06421 0.58532,0 1.06422,-0.4789 1.06422,-1.06421 z m 0.0525,-15.15575 c -0.90871,-1.69791 0.58439,-3.90196 2.40156,-3.5451 1.98793,0.39035 2.97646,2.38774 1.8522,3.74241 -1.25957,1.51764 -3.38879,1.41896 -4.25376,-0.19731 z m 3.10989,-0.75842 c 0.52469,-0.84896 -0.80995,-1.69012 -1.75496,-1.10608 -0.79345,0.49039 -0.27256,1.76653 0.72104,1.76653 0.34416,0 0.80942,-0.2972 1.03392,-0.66045 z M 588.753,791.80955 c -0.12369,-0.48777 -0.54897,-1.88238 -0.94505,-3.0992 -0.80295,-2.46678 -0.0595,-4.52766 1.63321,-4.52766 1.48783,0 5.25709,2.91134 5.25709,4.06047 0,0.52572 -0.51561,1.74268 -1.14582,2.70452 -1.2168,1.85705 -4.40199,2.4291 -4.79943,0.86187 z m 1.68842,-5.54029 c 0,-0.36723 -0.31927,-0.66762 -0.70948,-0.66762 -0.39022,0 -0.70948,0.49777 -0.70948,1.10608 0,0.60837 0.31926,0.90876 0.70948,0.66761 0.39021,-0.24115 0.70948,-0.73892 0.70948,-1.10607 z m -18.17389,-1.69039 c -0.21586,-0.56255 -0.28129,-1.60015 -0.14539,-2.3058 0.34489,-1.79086 4.36607,-1.79711 4.71074,-0.007 0.50899,2.64301 -3.63339,4.74185 -4.56535,2.31317 z m 3.11232,-1.6821 c 0.15446,-0.46336 -0.22467,-0.8425 -0.84251,-0.8425 -0.61783,0 -1.12333,0.5055 -1.12333,1.1233 0,1.25294 1.52733,1.03471 1.96584,-0.2808 z m 32.14567,-7.51419 c -1.50582,-1.81442 -0.6456,-3.61571 1.72671,-3.61571 1.88112,0 2.1187,0.23867 2.1187,2.12843 0,1.6176 -0.35545,2.17923 -1.48103,2.34006 -0.81456,0.11635 -1.87854,-0.2674 -2.36438,-0.85278 z m 2.7812,-1.48728 c 0,-0.58532 -0.4789,-1.06422 -1.06422,-1.06422 -0.58531,0 -1.06421,0.4789 -1.06421,1.06422 0,0.58531 0.4789,1.06421 1.06421,1.06421 0.58532,0 1.06422,-0.4789 1.06422,-1.06421 z m -25.31739,-53.57033 c -1.66196,-0.66962 -3.06165,-2.75431 -3.06165,-4.56 0,-2.19993 2.67081,-3.94875 6.03054,-3.94875 3.30575,0 3.94217,-0.62315 2.15296,-2.10807 -0.67799,-0.56268 -2.03545,-0.69461 -3.9021,-0.37924 -2.27273,0.38397 -2.86245,0.26715 -2.86245,-0.56705 0,-1.30295 1.50226,-1.91197 4.71626,-1.91197 4.42186,0 5.21639,0.90073 5.21639,5.91361 0,2.4446 0.36166,4.80639 0.80368,5.24841 0.44202,0.44203 0.59789,1.33999 0.34635,1.99549 -0.3683,0.95975 -0.66002,1.02359 -1.49834,0.32786 -0.78665,-0.65286 -1.59053,-0.67239 -3.29011,-0.0799 -2.58502,0.90115 -2.58763,0.90118 -4.65153,0.0696 z m 5.03929,-2.55412 c 0.61723,-0.23685 1.12223,-1.19464 1.12223,-2.12842 0,-1.40287 -0.35964,-1.69778 -2.07039,-1.69778 -1.13872,0 -2.57541,0.19378 -3.19264,0.43064 -1.13083,0.43393 -1.52626,2.47622 -0.64925,3.35322 0.59069,0.5907 3.29868,0.61463 4.79005,0.0423 z m 12.65121,2.18516 c -1.3941,-0.98293 -1.59632,-1.74951 -1.59632,-6.05159 0,-4.78152 -0.052,-4.9261 -1.77369,-4.9261 -1.10363,0 -1.77369,-0.40204 -1.77369,-1.06422 0,-0.66217 0.67006,-1.06421 1.77369,-1.06421 1.49779,0 1.77369,-0.33109 1.77369,-2.12842 0,-1.65544 0.31532,-2.12843 1.41895,-2.12843 1.10363,0 1.41895,0.47299 1.41895,2.12843 0,1.89193 0.23649,2.12842 2.12842,2.12842 1.41896,0 2.12843,0.35475 2.12843,1.06421 0,0.70948 -0.70947,1.06422 -2.12843,1.06422 h -2.12842 v 4.61159 c 0,4.48108 0.0516,4.61159 1.82571,4.61159 1.35594,0 1.76483,0.31946 1.58907,1.24158 -0.31458,1.65051 -2.67424,1.91045 -4.65636,0.51293 z m 13.30266,0.59102 c -3.07578,-1.09925 -3.8547,-5.80973 -1.26109,-7.62637 0.86725,-0.60744 2.80625,-1.10444 4.30887,-1.10444 2.22325,0 2.68598,-0.23123 2.48462,-1.24158 -0.18873,-0.947 -1.00066,-1.25828 -3.42202,-1.31192 -4.50889,-0.0999 -4.75717,-0.20577 -3.21636,-1.37118 0.75745,-0.57291 2.73474,-1.04165 4.394,-1.04165 3.97229,0 5.22569,1.72952 5.22569,7.21075 0,2.23142 0.33475,4.26402 0.74392,4.51689 0.50778,0.31382 0.4779,0.78031 -0.0942,1.46957 -0.57133,0.68842 -1.10792,0.78582 -1.68599,0.30607 -0.55731,-0.46252 -1.67852,-0.46552 -3.2712,-0.009 -2.63982,0.75709 -2.65306,0.75773 -4.2063,0.20262 z m 5.54555,-4.65133 c 0.20741,-1.80246 0.0337,-1.95105 -2.28082,-1.95105 -1.66978,0 -2.7183,0.41407 -3.1439,1.24158 -1.09031,2.11991 -0.19117,3.11022 2.61167,2.87644 2.23244,-0.1862 2.61945,-0.48432 2.81305,-2.16697 z m 25.92282,4.65271 c -0.83723,-0.16376 -2.10158,-0.93794 -2.80969,-1.72039 -1.09197,-1.2066 -1.13261,-1.51832 -0.26767,-2.0529 0.66166,-0.40892 1.41885,-0.26914 2.15608,0.39806 2.31575,2.09572 7.0551,1.07428 7.0551,-1.52054 0,-1.34682 -0.8415,-2.11235 -4.16757,-3.79135 -2.29217,-1.15708 -4.36739,-2.62448 -4.61159,-3.26088 -1.5316,-3.99127 0.75475,-6.71684 5.63443,-6.71684 3.35484,0 6.17992,2.21493 4.70557,3.68927 -0.61746,0.61747 -1.15421,0.51343 -2.19082,-0.42468 -2.07486,-1.87774 -5.34391,-1.26855 -5.61313,1.04601 -0.17915,1.54015 0.25432,2.03796 2.75733,3.16667 5.94717,2.68179 7.55279,5.21839 5.60586,8.85626 -0.59502,1.11181 -5.13008,3.04742 -6.37694,2.72172 -0.1951,-0.051 -1.03974,-0.22664 -1.87696,-0.39041 z m 49.05643,-0.48449 c -1.26355,-0.92261 -1.44398,-2.00974 -1.65355,-9.96271 -0.23462,-8.90415 -0.23964,-8.92712 -1.95105,-8.92712 -1.0522,0 -1.71582,-0.4116 -1.71582,-1.06421 0,-0.7883 0.82772,-1.06421 3.19264,-1.06421 h 3.19264 v 9.57791 9.57792 h 2.18044 c 1.69333,0 2.12785,0.27736 1.94499,1.24158 -0.30408,1.60347 -3.3462,1.96736 -5.19029,0.62084 z m 15.41222,-0.12896 c -1.48578,-1.04069 -1.57681,-1.61411 -1.57681,-9.93266 v -8.82821 h -2.18755 c -3.5537,0 -2.05398,-1.74431 1.7109,-1.98993 l 3.31454,-0.21623 v 9.61678 9.61679 h 2.12843 c 2.29407,0 2.98316,1.64862 1.00619,2.40726 -1.7398,0.66762 -2.68807,0.52226 -4.3957,-0.6738 z m 13.20038,0.39272 c -3.074,-0.89973 -3.60886,-1.40523 -2.67607,-2.52917 0.60874,-0.7335 1.17128,-0.79731 2.19566,-0.24907 0.75748,0.40538 2.40009,0.63813 3.65025,0.51719 3.23036,-0.31247 2.92669,-2.12796 -0.54626,-3.26573 -5.07771,-1.66353 -6.69547,-4.3757 -4.04225,-6.77683 2.10426,-1.90432 9.34468,-1.20442 9.34468,0.9033 0,1.03634 -2.25779,1.53628 -3.24352,0.71821 -1.28732,-1.0684 -4.20597,-0.54892 -4.20597,0.7486 0,0.61387 1.19615,1.44328 2.83791,1.96782 3.39274,1.08398 5.33236,3.15983 4.81195,5.1499 -0.61859,2.36554 -4.76085,3.80082 -8.12638,2.81578 z M 567.0287,711.10674 v -9.22317 h 4.20618 c 4.48901,0 5.98147,0.84069 7.20485,4.0584 0.88867,2.33739 0.81782,8.01914 -0.13405,10.74969 -1.01294,2.90571 -2.48845,3.63826 -7.32822,3.63826 h -3.94876 z m 8.10828,5.97987 c 0.79676,-0.79675 1.1149,-2.50313 1.1149,-5.97987 0,-5.52141 -0.95524,-7.09474 -4.30753,-7.09474 h -2.07775 v 7.09474 7.09476 h 2.07775 c 1.14277,0 2.57946,-0.5017 3.19263,-1.11489 z m 85.54245,-7.45083 c 0,-9.8021 0.10355,-10.67441 1.24159,-10.45746 1.04555,0.19932 1.29758,1.28412 1.59632,6.87106 l 0.35473,6.63437 2.33922,-2.91693 c 1.30071,-1.62192 2.95436,-2.91693 3.72475,-2.91693 1.95484,0 1.74626,0.63496 -1.19968,3.65187 l -2.5852,2.64748 3.006,3.59035 c 2.6141,3.12224 2.81574,3.59033 1.54661,3.59033 -0.80266,0 -2.73998,-1.35687 -4.30517,-3.01526 l -2.84578,-3.01528 -0.0178,3.01528 c -0.0149,2.53637 -0.24309,3.01526 -1.43668,3.01526 -1.35619,0 -1.41895,-0.47299 -1.41895,-10.69414 z m 19.15583,5.01835 v -5.67581 h -2.12842 c -1.45229,0 -2.12843,-0.35042 -2.12843,-1.10308 0,-0.87334 0.70192,-1.05805 3.37001,-0.88685 l 3.37,0.21625 0.20721,5.49842 c 0.20015,5.31072 0.26675,5.49844 1.95106,5.49844 1.07711,0 1.74385,0.40689 1.74385,1.06421 0,0.78831 -0.82772,1.06421 -3.19264,1.06421 h -3.19264 z m -0.43987,-11.67238 c -0.54139,-1.41082 0.26063,-2.51714 1.82478,-2.51714 1.3947,0 2.14731,1.21792 1.6441,2.66054 -0.42676,1.22346 -2.98495,1.11771 -3.46888,-0.1434 z m -339.7019,-9.38251 C 315.2702,690.321 291.4872,680.3629 270.84647,664.77257 263.4616,659.19462 249.9493,645.66108 244.30276,638.18712 229.6621,618.80824 220.2952,596.9771 216.07789,572.40434 c -1.70094,-9.91078 -1.70094,-34.78614 0,-44.69692 5.42203,-31.59229 18.86154,-57.85572 40.86597,-79.86015 27.75237,-27.75238 63.39044,-42.52432 102.59209,-42.52432 55.60204,0 106.01009,31.65589 130.16197,81.74079 26.82383,55.62586 15.4438,122.26855 -28.30019,165.72904 -27.53545,27.35698 -63.89379,42.18183 -102.81372,41.92155 -6.12584,-0.041 -14.62657,-0.54276 -18.89052,-1.11509 z m 43.00288,-1.72547 c 30.80623,-5.22382 57.7755,-19.33626 79.35583,-41.52522 15.98746,-16.43835 25.96099,-32.56802 33.30187,-53.85739 15.33293,-44.46715 7.55878,-94.28948 -20.64092,-132.28178 -6.37973,-8.59516 -19.62325,-21.94166 -28.11338,-28.33199 -38.62406,-29.07146 -86.76919,-37.2064 -132.14424,-22.32802 -51.91942,17.02427 -89.97053,62.50125 -97.5071,116.53609 -1.44645,10.37072 -1.44645,29.57013 0,39.94084 9.16074,65.67967 62.31415,116.45698 129.07874,123.30858 9.25905,0.95019 26.5005,0.2632 36.6692,-1.46111 z M 329.70924,623.0726 c -5.85317,-0.30706 -12.89538,-0.76009 -15.64936,-1.00674 l -5.00721,-0.44847 -1.66622,-3.05016 c -1.62423,-2.97329 -1.65376,-3.34515 -1.17187,-14.75582 0.31503,-7.45923 0.20534,-13.99229 -0.30235,-18.00898 -0.6648,-5.25972 -0.61042,-7.18431 0.32851,-11.62439 1.00019,-4.72974 1.00668,-5.4086 0.0584,-6.10876 -0.72596,-0.53603 -1.06679,-2.04181 -1.06679,-4.71304 0,-4.1237 0.5219,-4.7844 3.78277,-4.78868 1.15189,-10e-4 2.07294,-1.02626 3.66672,-4.07948 l 2.12842,-4.07746 9.35386,-0.19765 c 9.05485,-0.19131 9.36102,-0.248 9.57791,-1.77368 l 0.22406,-1.57604 h 25.18638 25.18637 l 0.22671,1.59632 c 0.22168,1.56094 0.42889,1.59631 9.35224,1.59631 h 9.12552 l 1.49322,2.09705 c 0.82128,1.15337 1.83205,3.06895 2.24615,4.25685 0.6276,1.80035 1.13101,2.1598 3.02477,2.1598 3.10558,0 3.9746,1.11558 3.9746,5.10222 0,2.54424 -0.33155,3.60652 -1.31793,4.22253 -1.28222,0.80075 -1.28271,0.98121 -0.0178,6.65828 1.19146,5.34713 1.21466,6.3218 0.27738,11.65285 -0.8315,4.72931 -0.88681,7.99383 -0.29569,17.45039 l 0.72718,11.63274 -1.85164,3.15959 c -1.812,3.09192 -1.94584,3.16867 -6.24925,3.58347 -17.70479,1.7065 -53.28706,2.19809 -75.34513,1.04095 z m 65.16503,-3.55146 c 10.9257,-0.6939 14.23411,-1.29948 13.1302,-2.40339 -0.19906,-0.19907 -11.29816,0.0127 -24.66467,0.47039 -18.70351,0.64057 -29.87223,0.63738 -48.47625,-0.0138 -13.2954,-0.46539 -24.26668,-0.75295 -24.3806,-0.63904 -0.11392,0.11393 0.0163,0.56853 0.28922,1.01024 1.24914,2.02114 59.81216,3.11832 84.1021,1.57565 z m -1.667,-4.20393 c 17.33748,-1.06262 16.31866,-0.74005 16.31427,-5.16545 -0.002,-2.03093 -0.20981,-6.80543 -0.46175,-10.60999 l -0.45807,-6.91738 H 359.04546 309.4892 v 9.51989 c 0,5.23594 -0.18632,10.00542 -0.41404,10.59886 -0.30489,0.79454 0.20942,1.1842 1.95106,1.4782 9.68485,1.63484 62.0044,2.33253 82.18105,1.09587 z m -67.65292,-3.37201 c -0.18508,-0.29947 -0.12411,-4.21045 0.1355,-8.69107 l 0.47202,-8.14657 h 33.34533 33.34534 l 0.1992,8.69106 0.19921,8.69108 h -33.68004 c -18.52403,0 -33.83147,-0.24503 -34.01656,-0.5445 z m 65.5245,-8.32394 v -6.74002 H 359.5072 327.93555 v 2.37909 c 0,1.3085 -0.20512,4.34151 -0.4558,6.74002 l -0.45581,4.36092 h 32.02745 32.02746 z m -37.80505,4.17223 c -1.0252,-1.0252 -0.46841,-3.78803 0.91233,-4.52697 2.16992,-1.16131 4.39979,0.30376 4.12201,2.70825 -0.17802,1.54094 -0.62999,1.9435 -2.37381,2.11433 -1.18466,0.11604 -2.3819,-0.0169 -2.66053,-0.29561 z m 3.61517,-2.22118 c -0.13151,-0.68287 -0.70926,-1.24158 -1.28389,-1.24158 -0.57463,0 -1.15237,0.55871 -1.28389,1.24158 -0.16776,0.87114 0.21531,1.24159 1.28389,1.24159 1.06858,0 1.45165,-0.37045 1.28389,-1.24159 z m 25.01022,1.64876 c -0.46184,-0.55648 -0.74038,-2.39225 -0.61899,-4.07949 l 0.22073,-3.0677 h 3.19264 3.19264 l 0.22073,3.0677 c 0.26026,3.61736 -0.72788,5.09127 -3.41337,5.09127 -1.07508,0 -2.33255,-0.45531 -2.79438,-1.01178 z m 4.78827,-3.42245 c 0.21045,-2.54279 0.12411,-2.66053 -1.95105,-2.66053 -1.98778,0 -2.17126,0.19986 -2.17126,2.36491 0,2.79686 0.50121,3.44299 2.45396,3.16345 1.11477,-0.15958 1.49884,-0.81978 1.66835,-2.86783 z m -50.67522,-0.8454 c -0.82897,-2.16028 0.0574,-3.58528 2.36954,-3.80932 1.92236,-0.18628 2.34486,0.0552 2.72151,1.556 0.24523,0.97708 0.23734,2.11391 -0.0176,2.52629 -0.69287,1.12108 -4.61965,0.90981 -5.07353,-0.27297 z m 3.98439,-1.46039 c 0,-0.59123 -0.63065,-1.06421 -1.41895,-1.06421 -0.78831,0 -1.41895,0.47298 -1.41895,1.06421 0,0.59123 0.63064,1.06422 1.41895,1.06422 0.7883,0 1.41895,-0.47299 1.41895,-1.06422 z m 23.13639,1.36756 c -0.74584,-1.94365 0.87347,-3.95977 2.98455,-3.71587 1.57291,0.18172 1.94193,0.62018 2.12566,2.52568 0.21207,2.19955 0.10932,2.30579 -2.22989,2.30579 -1.57547,0 -2.60528,-0.39886 -2.88032,-1.1156 z m 4.03851,-1.35784 c 0.0769,-0.38487 -0.41881,-0.80736 -1.10168,-0.93887 -0.7766,-0.14955 -1.24159,0.19842 -1.24159,0.92915 0,1.23434 2.09671,1.24303 2.34327,0.01 z m 5.02396,1.45067 c -0.8194,-2.1353 0.0585,-3.58536 2.30331,-3.80438 2.41004,-0.23515 3.46766,1.13218 2.71356,3.50816 -0.51099,1.60998 -4.42407,1.84104 -5.01687,0.29622 z m 3.98438,-1.46039 c 0,-0.59123 -0.63064,-1.06421 -1.41895,-1.06421 -0.7883,0 -1.41896,0.47298 -1.41896,1.06421 0,0.59123 0.63066,1.06422 1.41896,1.06422 0.78831,0 1.41895,-0.47299 1.41895,-1.06422 z M 318.0029,588.36182 v -2.13414 l 41.32693,0.18309 41.32693,0.18309 -0.13357,1.95105 c -0.13155,1.92162 -0.0709,1.95105 4.02311,1.95105 4.59291,0 4.17809,0.49514 5.35663,-6.39367 l 0.42626,-2.49157 -50.83899,0.007 -50.839,0.007 0.41119,2.48448 c 0.22615,1.36646 0.41471,3.36245 0.419,4.43553 0.007,1.91077 0.0957,1.95106 4.26466,1.95106 h 4.25685 v -2.13415 z m 80.88017,1.06993 c 0,-0.93319 -4.84807,-1.06421 -39.37587,-1.06421 -34.5278,0 -39.37588,0.13102 -39.37588,1.06421 0,0.93319 4.84808,1.06421 39.37588,1.06421 34.5278,0 39.37587,-0.13102 39.37587,-1.06421 z m 11.35161,-10.23136 c 0,-0.35941 -0.65241,-3.40045 -1.44979,-6.75787 -1.47324,-6.20313 -1.39991,-7.48767 0.42745,-7.48767 0.56229,0 1.02234,-0.63852 1.02234,-1.41894 0,-1.09341 -0.47299,-1.41895 -2.06155,-1.41895 -1.84395,0 -2.29039,-0.48903 -4.2296,-4.63299 l -2.16803,-4.63299 -9.06437,0.19877 c -7.97604,0.1749 -9.09296,0.34784 -9.30246,1.44035 -0.21209,1.106 0.4455,1.24277 6.02184,1.25244 3.44295,0.005 6.63866,0.25169 7.10155,0.54603 1.1158,0.70951 5.30054,15.22373 4.59323,15.93104 -0.30306,0.30306 -19.20939,0.4686 -42.01407,0.36789 -36.35686,-0.16059 -41.45007,-0.31421 -41.35755,-1.24737 0.29519,-2.97731 3.88067,-14.51444 4.66558,-15.01257 0.4976,-0.31578 3.53864,-0.57904 6.75788,-0.58502 5.40534,-0.01 5.85317,-0.12104 5.85317,-1.45101 0,-1.38229 -0.36338,-1.43217 -9.0458,-1.24158 l -9.04581,0.19856 -2.17255,4.25685 c -1.89513,3.7133 -2.46134,4.28525 -4.43423,4.47918 -1.68749,0.16588 -2.26166,0.57114 -2.26166,1.59632 0,0.7557 0.41504,1.37399 0.92231,1.37399 2.05896,0 2.52953,1.48081 1.5472,4.86888 -0.52465,1.80955 -1.17153,4.8066 -1.43753,6.6601 l -0.48362,3.37 h 50.80804 c 30.49535,0 50.80803,-0.26124 50.80803,-0.65344 z M 335.0303,568.85697 c 0,-1.76746 -0.0236,-1.77369 -6.74001,-1.77369 -5.8177,0 -6.74002,-0.1618 -6.74002,-1.18246 0,-1.83702 -0.47231,-0.86186 -1.00223,2.06931 l -0.48102,2.66053 h 7.48164 7.48164 z m 46.1159,-8.86843 v -10.64213 h -21.99374 -21.99373 v 10.64213 10.64212 h 21.99373 21.99374 z m 17.72719,9.75527 c -0.0255,-2.34073 -0.90016,-4.08693 -1.71024,-3.41462 -0.46042,0.38212 -3.69388,0.78792 -7.18545,0.90179 -5.97041,0.19472 -6.36184,0.30208 -6.57505,1.80336 -0.2234,1.57295 -0.11179,1.59632 7.62685,1.59632 5.81505,0 7.85106,-0.2302 7.84389,-0.88685 z m -63.84309,-7.98159 v -3.19264 h -5.67579 -5.67581 v 3.19264 3.19263 h 5.67581 5.67579 z m 60.3054,0 v -3.19264 h -6.03054 -6.03054 v 3.19264 3.19263 h 6.03054 6.03054 z m -108.3325,-52.9144 c -2.32189,-0.85891 -3.05511,-2.87696 -3.05511,-8.40856 0,-4.50409 0.14102,-5.01297 1.38911,-5.01297 1.24184,0 1.41107,0.58291 1.59631,5.49843 0.19331,5.12926 0.31702,5.514 1.84258,5.73027 2.85505,0.40473 3.6857,-1.0262 3.6857,-6.34924 0,-4.40647 0.13755,-4.87946 1.41895,-4.87946 1.32058,0 1.41896,0.47299 1.41896,6.82276 0,6.52181 -0.064,6.80604 -1.44977,6.44364 -0.79737,-0.20851 -2.31682,-0.13045 -3.37656,0.17348 -1.05973,0.30393 -2.62131,0.29567 -3.47017,-0.0183 z m 16.27809,-0.31187 c -0.882,-0.62382 -1.59632,-0.79357 -1.59632,-0.37934 0,0.41234 -0.47889,0.74971 -1.06421,0.74971 -0.8989,0 -1.06421,-1.66122 -1.06421,-10.69415 0,-9.80194 0.10355,-10.67443 1.24157,-10.45787 0.97167,0.18492 1.28679,1.08654 1.44954,4.14734 l 0.20795,3.91105 2.73929,-0.26123 c 4.01712,-0.38309 5.71324,1.55735 5.71324,6.53625 0,2.60949 -0.39421,4.2894 -1.24157,5.29081 -1.72465,2.03819 -4.44326,2.53098 -6.38528,1.15743 z m 4.85358,-3.70172 c 1.01387,-2.66669 0.21842,-6.38458 -1.48143,-6.92409 -2.57641,-0.81772 -4.259,0.81755 -4.259,4.13923 0,3.40722 0.93669,4.72853 3.3521,4.72853 1.14497,0 1.87534,-0.5944 2.38833,-1.94367 z m 12.35055,3.80609 c -1.26354,-0.92261 -1.44398,-2.00974 -1.65354,-9.96271 -0.23463,-8.90415 -0.23964,-8.92712 -1.95106,-8.92712 -1.05219,0 -1.71583,-0.41161 -1.71583,-1.06421 0,-0.78831 0.82773,-1.06422 3.19264,-1.06422 h 3.19264 v 9.57792 9.57792 h 2.18045 c 1.69333,0 2.12785,0.27736 1.94499,1.24158 -0.30408,1.60347 -3.3462,1.96736 -5.19029,0.62084 z m 29.45785,0.0813 c -3.36101,-1.73333 -4.52538,-6.53529 -2.52339,-10.40672 1.14477,-2.21376 2.37077,-2.88864 5.24746,-2.88864 1.94685,0 5.06617,1.72537 5.06617,2.80223 0,1.16581 -2.2531,1.4313 -3.29603,0.38837 -3.23964,-3.23964 -6.89111,2.28954 -4.48324,6.78869 0.808,1.50976 3.48974,1.83067 4.75178,0.56863 0.44202,-0.44202 1.36256,-0.58922 2.04562,-0.32711 1.16274,0.4462 1.15447,0.56244 -0.12968,1.82316 -1.87117,1.83702 -4.56456,2.34168 -6.67869,1.25139 z m 14.17551,0.4018 c -3.07578,-1.09926 -3.8547,-5.80973 -1.26108,-7.62637 0.86724,-0.60744 2.80625,-1.10444 4.30887,-1.10444 2.22325,0 2.68598,-0.23123 2.48462,-1.24159 -0.18873,-0.947 -1.00066,-1.25827 -3.42202,-1.31192 -4.50889,-0.0999 -4.75717,-0.20576 -3.21636,-1.37117 0.75744,-0.57291 2.73474,-1.04165 4.394,-1.04165 3.97229,0 5.22569,1.72951 5.22569,7.21074 0,2.23142 0.33476,4.26403 0.74392,4.51689 0.50778,0.31383 0.4779,0.78032 -0.0942,1.46958 -0.57133,0.68841 -1.10792,0.78582 -1.68599,0.30606 -0.55731,-0.46251 -1.67852,-0.46552 -3.2712,-0.009 -2.63982,0.75709 -2.65306,0.75773 -4.20631,0.20262 z m 5.54556,-4.65133 c 0.20741,-1.80246 0.0337,-1.95106 -2.28082,-1.95106 -1.66978,0 -2.71831,0.41408 -3.14391,1.24159 -1.0903,2.11991 -0.19116,3.11021 2.61168,2.87644 2.23244,-0.18621 2.61945,-0.48432 2.81305,-2.16697 z m 12.01397,4.37739 c -1.00666,-0.58632 -1.24159,-1.72333 -1.24159,-6.00896 v -5.28582 h -2.12843 c -1.41894,0 -2.12842,-0.35473 -2.12842,-1.06421 0,-0.70947 0.70948,-1.06421 2.12842,-1.06421 1.89194,0 2.12843,-0.23649 2.12843,-2.12843 0,-1.41894 0.35473,-2.12842 1.06421,-2.12842 0.70948,0 1.06422,0.70948 1.06422,2.12842 0,1.95951 0.19708,2.12843 2.48316,2.12843 1.73427,0 2.48317,0.32095 2.48317,1.06421 0,0.74327 -0.7489,1.06421 -2.48317,1.06421 h -2.48316 v 4.6116 c 0,4.41631 0.0733,4.61159 1.73181,4.61159 2.0636,0 3.10618,1.32464 1.72909,2.19688 -1.28254,0.81235 -2.81368,0.76822 -4.34774,-0.12529 z m 29.5494,-0.25261 c -2.60852,-1.12864 -3.12146,-2.23288 -3.12146,-6.71966 0,-4.10055 2.03176,-6.45093 5.57641,-6.45093 3.46413,0 5.7752,2.66842 5.7752,6.66821 0,5.33125 -3.87008,8.38887 -8.23015,6.50238 z m 4.54088,-2.67036 c 1.0452,-1.0452 1.11356,-5.13727 0.11693,-6.99949 -0.9829,-1.83655 -3.18621,-1.73745 -4.5464,0.20451 -1.27805,1.82465 -1.38102,3.27915 -0.41252,5.82648 0.75197,1.97784 3.31916,2.49133 4.84199,0.9685 z m 25.68299,2.76239 c -3.60891,-1.23071 -2.71123,-2.26575 1.96506,-2.26575 4.99931,0 5.55627,-1.53304 1.15258,-3.17244 -3.65874,-1.36206 -5.24606,-2.6703 -5.24606,-4.32369 0,-3.01571 6.65627,-4.71096 9.61968,-2.45 1.16217,0.88667 1.21701,1.15587 0.3512,1.72417 -0.65464,0.42971 -1.51311,0.41275 -2.37187,-0.0468 -1.62065,-0.86734 -4.97047,-0.16352 -4.59421,0.96528 0.14724,0.4417 1.52679,1.23828 3.06568,1.77015 5.81083,2.00836 6.79747,5.73998 2.04291,7.72657 -2.80086,1.17027 -2.76721,1.16985 -5.98497,0.0726 z m -172.40247,-9.00577 v -9.22317 h 4.25685 c 5.56265,0 7.09476,1.37019 7.09476,6.34505 0,4.25045 -1.58669,5.71602 -6.18841,5.71602 h -3.03477 v 3.19264 c 0,2.36492 -0.27591,3.19264 -1.06422,3.19264 -0.89139,0 -1.06421,-1.49778 -1.06421,-9.22318 z m 8.65582,-1.0928 c 0.55566,-1.21952 0.60382,-2.42388 0.14899,-3.72474 -0.56757,-1.62327 -1.13942,-1.95643 -3.67428,-2.14063 l -3.0021,-0.21817 v 3.94291 3.94291 h 2.85311 c 2.36689,0 2.99304,-0.30714 3.67428,-1.80228 z m 57.32537,4.64018 v -5.67581 h -2.48316 c -1.73427,0 -2.48317,-0.32094 -2.48317,-1.06421 0,-0.80406 0.86715,-1.06421 3.54739,-1.06421 h 3.54737 v 5.67581 5.6758 h 2.12843 c 1.41894,0 2.12842,0.35473 2.12842,1.06421 0,0.7883 -0.82772,1.06421 -3.19264,1.06421 h -3.19264 z m 61.72435,0 v -5.67581 h -2.12843 c -1.41895,0 -2.12842,-0.35473 -2.12842,-1.06421 0,-0.80406 0.86714,-1.06421 3.54738,-1.06421 h 3.54737 v 5.67581 c 0,5.5812 0.0296,5.6758 1.77369,5.6758 1.10363,0 1.77368,0.40203 1.77368,1.06421 0,0.7883 -0.82772,1.06421 -3.19264,1.06421 h -3.19263 z m 26.96006,-1.06421 c 0,-6.7788 0.55028,-8.03437 2.61592,-5.96872 0.55541,0.55541 0.90473,0.55541 1.24798,0 0.26218,-0.42422 1.55717,-0.7713 2.87775,-0.7713 3.51267,0 4.60995,1.9796 4.60995,8.31683 0,4.65324 -0.1372,5.1632 -1.38911,5.1632 -1.24165,0 -1.4111,-0.58286 -1.59632,-5.49074 -0.17572,-4.65632 -0.40391,-5.52831 -1.50157,-5.73799 -2.61155,-0.49885 -4.02671,1.86533 -4.02671,6.7271 0,4.02864 -0.14908,4.50163 -1.41894,4.50163 -1.31938,0 -1.41895,-0.47299 -1.41895,-6.74001 z m -88.89637,-10.02637 c -0.27363,-0.27363 -0.49751,-1.08283 -0.49751,-1.79823 0,-0.92382 0.52823,-1.3007 1.82303,-1.3007 1.48258,0 1.7807,0.29676 1.59632,1.58907 -0.2244,1.57281 -1.96133,2.47036 -2.92184,1.50986 z m 61.49644,-0.58179 c -0.54536,-1.42117 0.26397,-2.51714 1.85882,-2.51714 1.6327,0 2.27673,0.91644 1.70008,2.41915 -0.54179,1.41188 -3.02845,1.48035 -3.5589,0.098 z m 525.1825,202.12996 c -48.23871,-6.56921 -90.02525,-36.89368 -111.12059,-80.64008 -26.82383,-55.62587 -15.44381,-122.26856 28.30019,-165.72904 27.21116,-27.03481 63.49975,-41.99604 101.86179,-41.99604 39.20162,0 74.83973,14.77194 102.59213,42.52432 22.0043,22.00443 35.4438,48.26786 40.8659,79.86015 1.7009,9.91078 1.7009,34.78614 0,44.69692 -5.4221,31.59229 -18.8616,57.85572 -40.8659,79.86015 -23.0819,23.08182 -51.74986,37.2675 -83.64999,41.39216 -10.50272,1.35799 -28.13538,1.37259 -37.98353,0.0314 z m 31.1312,-0.32536 c 24.78246,-2.27179 47.93862,-10.4269 68.21382,-24.02348 33.9274,-22.75174 56.6614,-59.00161 62.2838,-99.31297 0.65,-4.6597 1.11,-12.93689 1.11,-19.97042 0,-7.03353 -0.46,-15.31072 -1.11,-19.97042 -7.5365,-54.03484 -45.5876,-99.51182 -97.50702,-116.53609 -45.37505,-14.87838 -93.52019,-6.74344 -132.14424,22.32802 -8.49014,6.39033 -21.73365,19.73683 -28.11339,28.33199 -34.48539,46.46077 -37.79047,109.25145 -8.37259,159.06463 11.91435,20.17453 30.20206,38.3581 51.09415,50.80318 24.79411,14.76946 56.04535,21.89814 84.54547,19.28556 z m -15.78582,-47.8771 c -1.26819,-0.55058 -2.30579,-1.33281 -2.30579,-1.73827 0,-0.40546 -1.08096,-1.44581 -2.40215,-2.31186 -3.88714,-2.54807 -4.76498,-4.97618 -4.97172,-13.75177 -0.10046,-4.2629 -0.56169,-8.44972 -1.02604,-9.31311 -0.46392,-0.8627 -1.45236,-5.067 -2.19654,-9.3429 -1.50678,-8.65811 -1.38922,-8.36788 -7.29936,-18.01726 -5.01273,-8.1842 -6.66843,-12.24942 -7.31178,-17.95284 -2.11069,-18.71069 14.04924,-35.48222 32.92114,-34.16711 2.97646,0.20741 6.36952,0.76961 7.54016,1.24932 6.0377,2.47412 8.84155,4.24114 12.47648,7.86281 7.13845,7.11242 10.16195,16.26731 8.70023,26.34381 -0.84854,5.84932 -2.5041,9.84478 -6.91973,16.69948 -4.93603,7.66265 -6.01578,10.306 -7.18982,17.60169 -0.60973,3.78932 -1.59093,7.82236 -2.18043,8.96229 -0.72473,1.4015 -1.16162,4.86728 -1.34929,10.70343 -0.16523,5.13864 -0.57822,8.73104 -1.02064,8.87851 -0.40873,0.13624 -0.74311,0.67825 -0.74311,1.20448 0,0.52623 -1.03761,1.69423 -2.3058,2.59554 -1.26818,0.90131 -2.94431,2.33053 -3.72474,3.17604 -1.84804,2.00216 -5.75143,2.59398 -8.69107,1.31772 z m 7.62685,-2.13378 c 0.76511,-0.92191 0.40739,-1.06422 -2.67514,-1.06422 -2.50849,0 -3.67877,0.31399 -3.96667,1.06422 -0.32445,0.84537 0.22568,1.06421 2.67507,1.06421 1.87543,0 3.4296,-0.41697 3.96674,-1.06421 z m 2.66054,-3.17354 c 3.0914,-1.40323 4.1522,-2.604 1.57901,-1.7873 -0.78993,0.25073 -4.70091,0.47377 -8.69107,0.49566 -3.99016,0.0218 -6.85375,0.1848 -6.36357,0.36203 0.49025,0.17722 0.71082,0.61422 0.49025,0.97111 -0.22058,0.35688 -0.0631,0.64888 0.35034,0.64888 0.41319,0 0.75133,-0.33811 0.75133,-0.75136 0,-0.41323 0.32444,-0.5508 0.72104,-0.3057 0.3966,0.24508 0.53735,0.74283 0.31288,1.10608 -0.7768,1.25688 7.72888,0.67724 10.84979,-0.7394 z m -0.53211,-2.89887 c 0,-0.41325 0.28975,-0.57225 0.64392,-0.35336 0.35425,0.21888 1.39186,0.0983 2.3058,-0.2679 0.91401,-0.36623 1.20177,-0.68612 0.63944,-0.71085 -0.75466,-0.0332 -0.66172,-0.33888 0.35475,-1.16711 1.10663,-0.90173 1.14204,-1.04879 0.17991,-0.74876 -4.85954,1.5155 -8.04012,2.0153 -13.44803,2.11323 -5.80847,0.10514 -7.12078,0.5817 -3.80108,1.38019 2.91012,0.69997 13.12529,0.50895 13.12529,-0.24544 z m -16.31793,-1.37708 c 0,-0.39022 -0.33814,-0.70948 -0.75133,-0.70948 -0.41328,0 -0.55403,0.31926 -0.31288,0.70948 0.24115,0.39021 0.57928,0.70948 0.75134,0.70948 0.17211,0 0.31287,-0.31927 0.31287,-0.70948 z m 17.06019,-2.10727 c 1.38376,-0.39461 3.13971,-1.21695 3.90211,-1.82741 1.31097,-1.04972 1.28997,-1.06372 -0.38752,-0.25808 -1.72934,0.83054 -1.7426,0.81681 -0.5321,-0.54883 1.84911,-2.08606 1.52984,-2.39135 -1.41895,-1.35671 -5.22614,1.83371 -17.45005,2.8604 -19.15583,1.60891 -0.60455,-0.44354 -0.88685,-0.31188 -0.88685,0.41353 0,1.36174 1.29969,2.42158 3.54738,2.89275 2.48295,0.52048 11.91245,-0.0631 14.93176,-0.92416 z m -13.15807,-0.0212 c -0.24115,-0.39021 0.0781,-0.70948 0.70947,-0.70948 0.63137,0 0.95063,0.31927 0.70948,0.70948 -0.24115,0.39022 -0.56042,0.70948 -0.70948,0.70948 -0.14905,0 -0.46832,-0.31926 -0.70947,-0.70948 z m 3.19264,0.0511 c 0,-0.43295 1.45151,-0.7647 3.37,-0.77021 1.85351,-0.005 4.16817,-0.18693 5.1437,-0.40356 1.29245,-0.287 1.48493,-0.21159 0.70947,0.27793 -1.67798,1.05922 -9.22317,1.79208 -9.22317,0.89584 z m 9.71888,-4.66488 c 6.22047,-1.84729 6.76988,-4.58016 0.64478,-3.20749 -3.98718,0.89354 -15.13226,1.19224 -17.28105,0.46312 -1.32054,-0.44807 -1.59632,-0.28432 -1.59632,0.94798 0,0.88169 0.65144,1.75148 1.59632,2.13126 2.56476,1.03089 12.726,0.82636 16.63627,-0.33487 z m -12.68981,-0.12767 c 0.51217,-0.20495 1.12409,-0.17975 1.35985,0.056 0.23576,0.23575 -0.18333,0.40343 -0.93119,0.37263 -0.82654,-0.034 -0.99461,-0.20216 -0.42866,-0.42864 z m 7.93725,-0.55862 c 3.3168,-0.48368 6.14029,-0.78937 6.27446,-0.67928 0.64909,0.5327 -5.62621,1.70547 -8.75762,1.63667 -3.12169,-0.0686 -2.82371,-0.18347 2.48316,-0.95739 z m 7.09475,-1.36402 c 0,-0.15335 0.4955,-0.46896 1.10104,-0.70135 0.63143,-0.24228 0.91621,-0.12334 0.66761,0.27884 -0.41659,0.67414 -1.76865,0.99712 -1.76865,0.42251 z m 0.37751,-2.8776 c 1.58647,-0.66287 2.4604,-1.50798 2.4604,-2.37924 0,-1.27869 -0.19873,-1.29968 -3.70197,-0.39094 -2.03613,0.52816 -5.78748,0.98273 -8.33634,1.01015 -2.88054,0.031 -4.11516,0.25318 -3.26252,0.58709 2.46642,0.96587 0.26712,1.33963 -5.04877,0.85801 -0.46144,-0.0418 -1.05506,-0.75672 -1.31913,-1.5887 -0.36368,-1.14571 -0.62207,-1.28302 -1.06521,-0.56598 -1.48961,2.41022 1.51708,3.39716 10.51827,3.45265 4.8577,0.0299 8.11689,-0.29848 9.75527,-0.98304 z m -15.09911,-2.27977 c -0.48777,-0.19681 -1.28593,-0.19681 -1.77369,0 -0.48776,0.19682 -0.0887,0.35786 0.88684,0.35786 0.97553,0 1.37461,-0.16104 0.88685,-0.35786 z m 0.54778,-4.18925 c 0.45939,-1.39188 0.64377,-2.72215 0.4098,-2.95615 -0.23407,-0.23399 -0.42548,0.0885 -0.42548,0.71679 0,0.62823 -0.70955,1.63923 -1.57681,2.24667 -1.08188,0.75779 -1.24888,1.1201 -0.5321,1.15431 0.67116,0.032 0.53735,0.2679 -0.37426,0.65961 -1.37262,0.58983 -1.36865,0.61137 0.12232,0.6596 1.15687,0.0375 1.74963,-0.5814 2.37653,-2.48083 z m 8.99806,-0.74018 c -0.79056,-2.57579 -3.47253,-3.97305 -4.89531,-2.55031 -0.40915,0.40919 -1.18397,0.57514 -1.72175,0.36878 -0.53771,-0.20636 -0.98206,0.058 -0.98745,0.58755 -0.007,0.52951 -0.19724,1.66228 -0.42653,2.51726 -0.38192,1.42432 -0.12856,1.57287 3.02498,1.77369 5.50929,0.35083 5.88014,0.15103 5.00606,-2.69697 z m 7.78096,1.46905 c 1.54332,-0.99779 1.75304,-1.72152 3.78214,-13.05224 0.89089,-4.97495 2.61364,-8.7775 7.32512,-16.16863 4.49822,-7.05662 6.31901,-11.86017 6.70454,-17.68795 1.05081,-15.88402 -11.1941,-29.75575 -27.60511,-31.27259 -11.10357,-1.02628 -23.98906,6.60274 -28.63408,16.95319 -5.39356,12.01847 -4.1031,19.2961 6.47007,36.48735 3.44727,5.60495 4.04308,7.41111 5.94753,18.029 0.86726,4.83546 1.46428,5.98426 3.7439,7.20427 0.9951,0.53255 1.24945,0.52126 0.90252,-0.0401 -0.28045,-0.4538 0.31997,-1.0869 1.43173,-1.50959 1.05314,-0.4004 1.73076,-0.91201 1.50586,-1.13691 -0.2249,-0.2249 -1.3866,0.0789 -2.58157,0.67495 -2.22031,1.10763 -2.84649,0.73135 -1.32126,-0.79391 0.46825,-0.46826 1.54581,-0.85137 2.39449,-0.85137 1.97673,0 2.42995,-2.13563 2.42995,-11.44992 0,-3.93676 0.34778,-7.5726 0.79248,-8.28469 0.6408,-1.02607 -0.0518,-3.36701 -3.61989,-12.22881 -2.42676,-6.02791 -4.73106,-11.55745 -5.12056,-12.28785 -0.53807,-1.00908 -0.39291,-1.63625 0.60461,-2.61138 1.63364,-1.59697 13.48926,-2.61573 17.51247,-1.50486 1.43081,0.39506 2.60144,0.47502 2.60144,0.17768 0,-0.71834 4.23876,0.0803 6.02805,1.13581 1.23634,0.72929 1.31182,1.09021 0.59334,2.8379 -0.45279,1.10129 -2.60513,6.3124 -4.78307,11.58025 -3.90069,9.43507 -4.63223,12.53075 -3.2804,13.88255 0.37744,0.37748 0.77652,4.67158 0.88685,9.54245 0.19113,8.44283 0.27151,8.86625 1.72275,9.07314 0.83717,0.11935 2.08394,0.83769 2.77049,1.59631 1.4606,1.61398 0.57609,1.79709 -1.41306,0.29255 -0.75751,-0.57291 -1.7153,-1.0315 -2.12843,-1.01909 -0.4132,0.0124 -0.13153,0.4913 0.6259,1.06421 1.34396,1.01649 1.33914,1.04165 -0.20021,1.04165 -0.97277,0 -1.82335,-0.61192 -2.21902,-1.59632 l -0.64166,-1.59632 -0.0447,1.61858 c -0.0248,0.89023 0.43207,1.80165 1.0152,2.0254 0.58304,0.22375 0.8547,0.73919 0.60362,1.14543 -0.60441,0.9779 3.1339,0.0645 5.19826,-1.27018 z m -16.2694,-17.53136 c -0.13856,-2.43883 -0.25187,-0.44343 -0.25187,4.43421 0,4.87765 0.11331,6.87305 0.25187,4.43422 0.13856,-2.43882 0.13856,-6.42962 0,-8.86843 z m 2.92757,9.03355 0.66144,-2.82565 0.0712,3.01527 c 0.0681,2.86844 0.17602,3.01527 2.22158,3.01527 h 2.15027 l -0.19922,-8.69107 -0.19922,-8.69108 -2.83789,-0.19741 c -2.22229,-0.1546 -2.60705,-0.0259 -1.7737,0.59365 0.86875,0.64579 0.77106,0.72682 -0.5321,0.44121 -1.58951,-0.34838 -1.59632,-0.3118 -1.59632,8.59406 0,9.04732 0.66421,10.59717 2.03392,4.74575 z m 2.36121,-1.4067 c 0.0141,-1.17064 0.17346,-1.56364 0.35339,-0.87334 0.17985,0.69029 0.16807,1.64808 -0.0263,2.12843 -0.19432,0.48033 -0.34146,-0.0845 -0.32706,-1.25509 z m -2.9202,-3.60649 c 0.034,-0.82651 0.2022,-0.99461 0.42866,-0.42865 0.20497,0.51215 0.17979,1.12408 -0.0561,1.35983 -0.23577,0.23575 -0.40349,-0.18328 -0.37269,-0.93118 z m 7.55201,0.23649 c -0.15736,-1.26819 -0.28613,-0.23059 -0.28613,2.30579 0,2.53638 0.12877,3.57398 0.28613,2.30579 0.15736,-1.26819 0.15736,-3.3434 0,-4.61158 z m -9.12889,-23.00342 c -0.68961,-0.83092 -0.68535,-1.16427 0.0205,-1.60044 1.23932,-0.76593 -0.9292,-8.1286 -2.94808,-10.00948 -0.82214,-0.7659 -1.19511,-1.40224 -0.82888,-1.41411 0.36623,-0.0118 0.13246,-0.33284 -0.51948,-0.71328 -0.76666,-0.44737 -1.82385,-0.44894 -2.99299,-0.004 -2.11665,0.80477 -2.27771,0.15742 3.74043,15.03646 1.99681,4.93685 3.69558,9.56618 3.77497,10.2874 0.0795,0.72121 0.2525,-1.35356 0.38461,-4.61063 0.16055,-3.96 -0.0482,-6.26964 -0.63094,-6.97147 z m 5.90646,5.79706 0.22603,-6.74161 -2.8379,0.0949 -2.8379,0.095 2.48317,0.52268 c 1.65541,0.34846 1.95105,0.55381 0.88684,0.61608 -1.32573,0.0776 -1.59632,0.50428 -1.59632,2.51744 0,1.33321 0.39908,2.58596 0.88684,2.78388 0.66741,0.2708 0.62349,0.54609 -0.17736,1.11248 -0.84379,0.59672 -0.86217,0.75488 -0.0887,0.76349 0.6955,0.007 0.85811,0.59782 0.56658,2.05552 -0.43483,2.1742 -0.0856,2.92166 1.36532,2.92166 0.64463,0 0.96099,-1.89863 1.12339,-6.7416 z m 10.12917,-17.20264 c 0.39021,-1.29862 0.1167,-1.7337 -1.46876,-2.3365 -1.59029,-0.60463 -2.17057,-0.50694 -3.15808,0.53155 -1.55879,1.63925 -4.38272,10.28951 -3.82961,11.73085 0.23307,0.60733 0.0827,1.31502 -0.33409,1.57263 -0.44434,0.2746 -0.75502,3.01929 -0.75105,6.63441 l 0.007,6.16604 4.52765,-11.35161 c 2.49019,-6.24339 4.74341,-12.0697 5.00719,-12.94737 z m -8.69455,5.32756 c 1.53211,-4.14084 2.10224,-7.08123 1.2738,-6.56922 -0.34183,0.21125 -0.93794,-0.18132 -1.32467,-0.8724 -0.83222,-1.48703 -7.23452,-1.82721 -7.70709,-0.40951 -0.15524,0.46585 -0.82037,0.67518 -1.47806,0.46518 -0.71366,-0.22787 -0.89982,-0.1403 -0.46179,0.21722 0.40369,0.32947 1.50046,2.92952 2.43732,5.77787 1.65443,5.02998 1.76539,5.17272 3.85984,4.96633 1.8569,-0.183 2.3292,-0.67957 3.40065,-3.57547 z m 20.4304,36.31168 c 0,-0.41324 0.31927,-0.55403 0.70948,-0.31286 0.39021,0.24116 0.70947,0.57927 0.70947,0.75135 0,0.17207 -0.31926,0.31286 -0.70947,0.31286 -0.39021,0 -0.70948,-0.33811 -0.70948,-0.75135 z m -1.85343,-3.17291 c -0.64718,-0.9877 -0.9973,-1.97516 -0.77815,-2.19435 0.21923,-0.2192 0.90919,0.58893 1.53324,1.79582 1.36802,2.64541 0.88436,2.90067 -0.75509,0.39853 z m -45.22848,0.0221 c 0.22462,-0.58532 0.73253,-1.06422 1.12878,-1.06422 0.41526,0 0.34629,0.45081 -0.16276,1.06422 -0.48577,0.58531 -0.99376,1.06421 -1.12884,1.06421 -0.13508,0 -0.0617,-0.4789 0.16282,-1.06421 z m 2.09551,-3.54738 c 0.63917,-0.97553 1.27818,-1.77369 1.42009,-1.77369 0.14181,0 -0.10579,0.79816 -0.55028,1.77369 -0.44441,0.97554 -1.0835,1.7737 -1.42008,1.7737 -0.33658,0 -0.089,-0.79816 0.55027,-1.7737 z m -5.74108,0.35474 c 0.24115,-0.39021 0.57929,-0.70947 0.75134,-0.70947 0.17211,0 0.31288,0.31926 0.31288,0.70947 0,0.39021 -0.33814,0.70948 -0.75134,0.70948 -0.41326,0 -0.55403,-0.31927 -0.31288,-0.70948 z m 50.00374,-3.20979 c -0.49358,-0.59474 -0.71813,-1.26061 -0.49904,-1.47971 0.21909,-0.2191 0.75474,0.26752 1.19029,1.08136 0.92927,1.73642 0.58432,1.93525 -0.69125,0.39835 z m -59.93639,-0.33757 c 0.24115,-0.39022 0.57929,-0.70948 0.75134,-0.70948 0.17211,0 0.31288,0.31926 0.31288,0.70948 0,0.3902 -0.33815,0.70946 -0.75134,0.70946 -0.41327,0 -0.55403,-0.31926 -0.31288,-0.70946 z m 12.81617,-0.20797 c 0.26642,-0.6997 0.66315,-1.09346 0.88159,-0.87502 0.21845,0.21844 4.3e-4,0.79091 -0.48443,1.27218 -0.70067,0.69546 -0.78219,0.61398 -0.39716,-0.39716 z m -11.04248,-0.80745 c 0,-0.75167 4.49062,-4.66312 4.89233,-4.26138 0.17076,0.17076 0.17587,0.39028 0.0114,0.48784 -0.16453,0.0976 -1.33516,1.11507 -2.60143,2.26115 -1.2662,1.1461 -2.30225,1.82666 -2.30225,1.51239 z m 68.58263,-0.16705 c -0.26016,-0.26014 -0.473,-0.80289 -0.473,-1.20611 0,-0.44455 0.33047,-0.40266 0.83951,0.10642 0.4618,0.46176 0.67465,1.0045 0.47301,1.20611 -0.20164,0.20161 -0.57943,0.15372 -0.83952,-0.10642 z m -60.94733,-1.30864 c 0.41086,-0.78479 1.46152,-2.06184 2.33488,-2.8379 1.58618,-1.40946 1.5871,-1.40944 0.84088,0.0159 -0.41086,0.78478 -1.46153,2.06184 -2.33489,2.8379 -1.58617,1.40947 -1.5871,1.40945 -0.84087,-0.0159 z m 54.08905,0.3208 c 0,-0.41324 0.31926,-0.55403 0.70947,-0.31286 0.39021,0.24117 0.70948,0.57927 0.70948,0.75135 0,0.17207 -0.31927,0.31286 -0.70948,0.31286 -0.39021,0 -0.70947,-0.3381 -0.70947,-0.75135 z m -2.0572,-2.29618 c -0.89742,-1.49438 -0.88231,-1.50949 0.33935,-0.33937 0.70323,0.67358 1.12593,1.37741 0.93927,1.56405 -0.18666,0.18665 -0.76205,-0.36445 -1.27862,-1.22468 z m 5.18243,-0.60034 c -1.34672,-1.51405 -1.34587,-1.51597 0.24477,-0.53882 0.87797,0.53935 1.59632,1.22311 1.59632,1.51945 0,0.85544 -0.3951,0.64498 -1.84109,-0.98063 z m -64.30626,-2.64488 c 1.27435,-1.22152 2.67422,-2.22095 3.11091,-2.22095 0.43667,0 -0.12707,0.6957 -1.25273,1.546 -3.60917,2.72616 -4.23542,2.95364 -1.85818,0.67495 z m 5.13248,1.50017 c 0,-0.39021 0.4789,-1.10693 1.06422,-1.5927 0.59361,-0.49268 1.06421,-0.5695 1.06421,-0.17374 0,0.39021 -0.4789,1.10693 -1.06421,1.5927 -0.59362,0.49268 -1.06422,0.5695 -1.06422,0.17374 z m 61.14534,-2.44375 c -1.68415,-1.17126 -2.89011,-2.30159 -2.67983,-2.51187 0.30295,-0.30293 2.77752,1.27072 6.03763,3.83948 0.16255,0.12811 0.16255,0.36096 0,0.51743 -0.16261,0.15648 -1.67358,-0.67379 -3.3578,-1.84504 z m 5.85828,-1.60955 c -0.75743,-0.57289 -1.01718,-1.05179 -0.57716,-1.06421 0.43995,-0.0125 1.19738,0.45633 1.68316,1.04165 1.12155,1.35137 0.66322,1.36072 -1.106,0.0226 z m -74.80785,-1.12359 c 2.03911,-1.38832 4.96633,-2.83483 4.96633,-2.45413 0,0.53136 -4.45068,3.19698 -5.32106,3.18691 -0.39022,-0.004 -0.23059,-0.33427 0.35473,-0.73278 z m 7.80423,0.0368 c 0,-0.39022 0.33814,-0.70948 0.75134,-0.70948 0.41326,0 0.55403,0.31926 0.31288,0.70948 -0.24115,0.39021 -0.5793,0.70948 -0.75134,0.70948 -0.17212,0 -0.31288,-0.31927 -0.31288,-0.70948 z m 60.3054,-2.48316 c -1.13687,-0.6499 -1.3766,-1.02296 -0.66769,-1.03908 0.60823,-0.0138 1.72566,0.44361 2.48316,1.01652 1.76369,1.33397 0.50593,1.34961 -1.81547,0.0226 z M 900.8563,587.3988 c 1.63215,-1.12973 4.59208,-2.1429 4.59208,-1.57184 0,0.38438 -4.72347,2.54048 -5.56555,2.54048 -0.23427,0 0.20376,-0.43589 0.97347,-0.96864 z m 76.24908,-0.4503 c -2.83408,-1.55159 -2.63045,-1.76748 0.60362,-0.64007 1.22881,0.42839 2.23428,1.06691 2.23428,1.41895 0,0.80543 0.11217,0.83622 -2.8379,-0.77888 z m -78.36155,-3.40255 c 1.00249,-0.8398 6.04856,-2.45627 6.44141,-2.06344 0.18701,0.18703 -1.17085,0.85487 -3.01741,1.48408 -3.78022,1.28803 -4.39384,1.39188 -3.424,0.57936 z m 80.84471,-0.14482 c -1.35396,-0.58181 -1.34581,-0.61203 0.17737,-0.65961 0.87798,-0.0275 1.59632,0.26939 1.59632,0.65961 0,0.3902 -0.0798,0.68703 -0.17737,0.65959 -0.0976,-0.0273 -0.81589,-0.32424 -1.59632,-0.65959 z m -3.54738,-1.41896 c -0.24115,-0.39021 -0.11919,-0.70947 0.27103,-0.70947 0.3902,0 0.90677,0.31926 1.14792,0.70947 0.24115,0.39021 0.11919,0.70948 -0.27101,0.70948 -0.39022,0 -0.90678,-0.31927 -1.14794,-0.70948 z m -80.84924,-2.1785 c 0.2989,-0.48362 3.75944,-1.38333 9.54699,-2.48214 1.36573,-0.25929 2.26968,-0.24728 2.00881,0.0267 -0.66032,0.69331 -11.9492,3.09206 -11.5558,2.45544 z m 82.97767,-1.36887 c -0.52345,-0.847 0.86683,-0.847 2.8379,0 1.26698,0.54445 1.21448,0.61508 -0.49025,0.65961 -1.05002,0.0275 -2.1065,-0.2694 -2.34765,-0.65961 z m -3.54737,-0.70948 c -1.15674,-0.49707 -1.19724,-0.61896 -0.21923,-0.6596 0.65981,-0.0275 1.39702,0.26939 1.63817,0.6596 0.50423,0.81581 0.47954,0.81581 -1.41894,0 z m -78.75176,-2.8379 c 0.24115,-0.39021 0.75772,-0.70948 1.14793,-0.70948 0.39022,0 0.51218,0.31927 0.27103,0.70948 -0.24115,0.39021 -0.75772,0.70947 -1.14794,0.70947 -0.39021,0 -0.51217,-0.31926 -0.27102,-0.70947 z m 89.61559,0.22483 c 0.51218,-0.20495 1.1241,-0.17975 1.35985,0.056 0.23576,0.23574 -0.18333,0.40343 -0.93118,0.37262 -0.82654,-0.034 -0.99462,-0.20216 -0.42867,-0.42863 z m -87.07332,-0.47976 c 0.8359,-0.72083 4.27337,-1.15088 3.86061,-0.48298 -0.25088,0.40585 -1.28862,0.73791 -2.30615,0.73791 -1.01754,0 -1.717,-0.11472 -1.55446,-0.25493 z m 80.11159,-0.31208 c 0,-0.31186 1.11743,-0.43656 2.48317,-0.27712 1.36574,0.15944 2.48316,0.4146 2.48316,0.56701 0,0.15242 -1.11742,0.27712 -2.48316,0.27712 -1.36574,0 -2.48317,-0.25515 -2.48317,-0.56701 z m -78.92081,-4.19163 c 0.88252,-0.16969 2.15957,-0.16326 2.8379,0.0144 0.67825,0.17758 -0.0439,0.31642 -1.60462,0.30855 -1.56085,-0.007 -2.11587,-0.15317 -1.23328,-0.32287 z m 5.00237,0.0171 c 0.51216,-0.20495 1.12409,-0.17975 1.35985,0.056 0.23576,0.23574 -0.18333,0.40343 -0.93118,0.37262 -0.82655,-0.034 -0.99462,-0.20216 -0.42867,-0.42863 z m 71.96739,-0.004 c 0.68287,-0.17845 1.8003,-0.17845 2.48316,0 0.68287,0.17845 0.12416,0.32446 -1.24157,0.32446 -1.36575,0 -1.92446,-0.14601 -1.24159,-0.32446 z m 5.36541,0.004 c 0.51216,-0.20495 1.12409,-0.17975 1.35985,0.056 0.23576,0.23574 -0.18333,0.40343 -0.93118,0.37262 -0.82655,-0.034 -0.99462,-0.20216 -0.42867,-0.42863 z m -79.68294,-3.77217 -1.41895,-0.60975 1.41895,0.0209 c 0.78043,0.0115 2.21711,0.27647 3.19264,0.58889 l 1.77369,0.56804 -1.77369,0.0209 c -0.97553,0.0115 -2.41221,-0.25353 -3.19264,-0.5889 z m 74.14016,-0.17225 c 0,-0.29548 0.93169,-0.53723 2.07039,-0.53723 1.13871,0 2.5754,-0.19378 3.19264,-0.43064 0.61724,-0.23685 1.12225,-0.10937 1.12225,0.2833 0,0.39267 -1.43669,0.82821 -3.19264,0.96786 -1.75595,0.13966 -3.19264,0.0122 -3.19264,-0.28329 z m -81.41228,-1.02629 c 0.68287,-0.17844 1.8003,-0.17844 2.48316,0 0.68287,0.17845 0.12416,0.32446 -1.24158,0.32446 -1.36574,0 -1.92445,-0.14601 -1.24158,-0.32446 z m 89.79295,0.004 c 0.51218,-0.20494 1.1241,-0.17974 1.35986,0.056 0.23576,0.23574 -0.18333,0.40343 -0.93119,0.37262 -0.82653,-0.0341 -0.99461,-0.20216 -0.42867,-0.42863 z m -85.71347,-3.45023 -2.48316,-0.98917 2.8379,0.41972 c 1.56084,0.23086 3.1412,0.70027 3.51191,1.04316 0.99461,0.91995 -0.97333,0.67887 -3.86665,-0.47371 z m 79.46122,0.40876 c 0,-0.27034 1.43669,-0.82028 3.19264,-1.22209 1.75595,-0.40182 3.19264,-0.5094 3.19264,-0.23907 0,0.27034 -1.43669,0.82029 -3.19264,1.2221 -1.75595,0.40181 -3.19264,0.5094 -3.19264,0.23906 z m -77.3328,-4.27795 c -1.46122,-0.46796 -1.52366,-0.57858 -0.35473,-0.6279 0.78042,-0.0329 1.89784,0.24964 2.48316,0.6279 1.24307,0.80335 0.38007,0.80335 -2.12843,0 z m 75.91386,0 c 0.58531,-0.37826 1.54311,-0.68775 2.12842,-0.68775 0.94595,0 0.94595,0.0764 0,0.68775 -0.58531,0.37826 -1.54311,0.68774 -2.12842,0.68774 -0.94595,0 -0.94595,-0.0764 0,-0.68774 z m -79.81596,-1.41896 c -0.24115,-0.3902 -0.11919,-0.70947 0.27101,-0.70947 0.39021,0 0.90678,0.31927 1.14793,0.70947 0.24116,0.39022 0.1192,0.70948 -0.27102,0.70948 -0.3902,0 -0.90677,-0.31926 -1.14792,-0.70948 z m 83.93978,0.22483 c 0.51218,-0.20495 1.1241,-0.17975 1.35985,0.056 0.23576,0.23575 -0.18333,0.40344 -0.93118,0.37263 -0.82655,-0.034 -0.99462,-0.20216 -0.42867,-0.42863 z m -9.44489,-0.9343 c 0.24115,-0.39021 0.57929,-0.70947 0.75134,-0.70947 0.17211,0 0.31288,0.31926 0.31288,0.70947 0,0.39021 -0.33814,0.70947 -0.75134,0.70947 -0.41326,0 -0.55403,-0.31926 -0.31288,-0.70947 z m 2.12843,-0.60666 c 0.39021,-0.37437 1.98653,-1.20583 3.54737,-1.8477 1.56085,-0.64187 2.51864,-0.86072 2.12843,-0.48635 -0.39021,0.37437 -1.98653,1.20582 -3.54738,1.84769 -1.56084,0.64187 -2.51864,0.86073 -2.12842,0.48636 z m -71.14483,-1.28146 c -1.27918,-0.63049 -2.18682,-1.28529 -2.01703,-1.45512 0.34912,-0.34909 4.6975,1.77743 4.6975,2.29725 0,0.46722 -0.066,0.44643 -2.68047,-0.84213 z m 69.37114,-2.40555 c 2.0391,-1.38832 4.96633,-2.83483 4.96633,-2.45413 0,0.53137 -4.45068,3.19698 -5.32107,3.18691 -0.39021,-0.004 -0.23058,-0.33427 0.35474,-0.73278 z m -69.35121,-2.49327 c -1.65839,-0.99395 -3.01526,-1.95521 -3.01526,-2.13613 0,-0.52855 5.53518,2.44578 6.02429,3.23713 0.63044,1.02016 0.37276,0.92587 -3.00903,-1.101 z m 5.49844,-1.76863 c 0,-0.41324 0.31926,-0.55403 0.70948,-0.31286 0.3902,0.24116 0.70947,0.57927 0.70947,0.75134 0,0.17208 -0.31927,0.31287 -0.70947,0.31287 -0.39022,0 -0.70948,-0.33811 -0.70948,-0.75135 z m 3.91872,-1.71595 c -1.5517,-1.32771 -2.64834,-2.58692 -2.43705,-2.79824 0.21135,-0.21132 1.62548,0.88698 3.14262,2.44066 3.36596,3.44703 3.07649,3.59371 -0.70557,0.35758 z m 66.37843,2.20865 c 0.16261,-0.14224 1.0938,-0.67341 2.06932,-1.18036 1.62243,-0.84312 1.69068,-0.82107 0.80001,0.25864 -0.53559,0.6492 -1.46677,1.18037 -2.06933,1.18037 -0.60256,0 -0.96255,-0.11639 -0.8,-0.25865 z m -6.13576,-1.08571 c 0.26392,-0.42704 1.13913,-1.12927 1.94495,-1.56051 1.04968,-0.56178 1.32899,-0.56395 0.98519,-0.007 -0.26393,0.42704 -1.13913,1.12928 -1.94496,1.56052 -1.04967,0.56178 -1.32899,0.56394 -0.98518,0.007 z m -67.76247,-1.97426 -1.71998,-1.89967 2.30579,1.59324 c 2.32694,1.60784 2.79335,2.20609 1.71998,2.20609 -0.32218,0 -1.35978,-0.85485 -2.30579,-1.89966 z m 62.48753,1.31814 c 0,-0.61896 2.56404,-3.01373 4.28636,-4.00336 0.56907,-0.32699 -0.0652,0.57084 -1.41029,1.99517 -2.58171,2.73457 -2.87607,2.94011 -2.87607,2.00819 z m -55.28572,-6.67856 c -1.72665,-1.88799 -2.64216,-3.24193 -2.03456,-3.00876 1.10713,0.42484 5.88984,5.95842 5.42244,6.27376 -0.13671,0.0923 -1.6613,-1.37701 -3.38788,-3.265 z m 53.15729,3.26871 c 0,-0.39021 0.95779,-1.6271 2.12843,-2.74864 1.17063,-1.12154 2.12842,-1.71989 2.12842,-1.32968 0,0.39021 -0.95779,1.6271 -2.12842,2.74863 -1.17064,1.12154 -2.12843,1.7199 -2.12843,1.32969 z m -57.48097,-1.34593 c -0.74978,-0.90341 -0.70586,-1.00722 0.26789,-0.63357 0.64052,0.24579 1.16454,0.73199 1.16454,1.08045 0,0.91236 -0.41072,0.78423 -1.43243,-0.44688 z m 55.12913,-2.45178 c 1.09841,-1.55251 2.25727,-2.82957 2.57525,-2.83789 0.31792,-0.009 -0.32061,1.25509 -1.41894,2.80761 -1.09842,1.55251 -2.25727,2.82957 -2.57526,2.83789 -0.31791,0.009 0.32061,-1.25509 1.41895,-2.80761 z m 10.86555,1.04907 c 0.48577,-0.58531 1.20248,-1.06421 1.5927,-1.06421 0.39573,0 0.3189,0.47056 -0.17376,1.06421 -0.48578,0.58532 -1.20248,1.06422 -1.5927,1.06422 -0.39575,0 -0.31891,-0.47057 0.17376,-1.06422 z m -57.416,-2.22411 c -0.80873,-1.02814 -1.47045,-2.2076 -1.47045,-2.62099 0,-0.4134 0.79816,0.33021 1.77369,1.65246 0.97552,1.32226 1.77368,2.5017 1.77368,2.621 0,0.62523 -0.76247,0.0186 -2.07692,-1.65247 z m 8.86255,-0.76056 c -0.38503,-1.01114 -0.30351,-1.09264 0.39717,-0.39716 0.48485,0.48127 0.70288,1.05374 0.48443,1.27218 -0.21844,0.21844 -0.61518,-0.17532 -0.8816,-0.87502 z m 30.47495,-1.41311 c 1.11295,-2.66358 1.76056,-3.69078 1.76056,-2.79243 0,0.90062 -2.04804,5.41652 -2.45648,5.41652 -0.22023,0 0.0929,-1.18084 0.69592,-2.62409 z m -35.51605,0.44847 c -0.25725,-0.41617 -0.31551,-0.90884 -0.12955,-1.09481 0.18603,-0.18598 0.52722,0.15452 0.75829,0.75668 0.47975,1.25017 0.071,1.47007 -0.62874,0.33813 z m 12.58325,-1.01702 c 0.0142,-1.17063 0.17347,-1.56363 0.3534,-0.87333 0.17985,0.69029 0.16807,1.64808 -0.0263,2.12842 -0.19433,0.48034 -0.34146,-0.0845 -0.32706,-1.25509 z m 37.46391,1.49486 c 0,-0.15335 0.4955,-0.46896 1.10104,-0.70135 0.63144,-0.24228 0.91622,-0.12334 0.66762,0.27884 -0.41661,0.67414 -1.76866,0.99712 -1.76866,0.42251 z m -62.81771,-1.89679 c -0.76361,-1.23551 0.1061,-1.49717 1.07911,-0.32469 0.55964,0.67428 0.61349,1.08137 0.14303,1.08137 -0.41497,0 -0.96495,-0.34051 -1.22214,-0.75668 z m 16.05854,-1.4868 c -1.07812,-3.09266 -0.57034,-3.229 0.85939,-0.23077 0.64895,1.36083 0.89699,2.47425 0.55126,2.47425 -0.34572,0 -0.98049,-1.00957 -1.41065,-2.24348 z m 17.194,-2.36812 c 0,-2.73147 0.13139,-3.76196 0.285,-2.28997 0.15359,1.472 0.15096,3.70684 -0.007,4.96633 -0.15673,1.25948 -0.28237,0.0551 -0.27925,-2.67636 z m 25.70868,3.69415 c 0.26641,-0.6997 0.66315,-1.09346 0.88159,-0.87502 0.21845,0.21844 4.3e-4,0.79092 -0.48443,1.27218 -0.70068,0.69548 -0.78219,0.61398 -0.39716,-0.39716 z m -30.07046,-2.39453 c -0.0702,-1.62649 -0.33445,-3.54207 -0.58702,-4.25685 -0.34949,-0.98923 -0.2545,-1.11146 0.39765,-0.51175 0.52608,0.48372 0.75269,2.12705 0.58702,4.25685 -0.26619,3.42335 -0.27144,3.43009 -0.39765,0.51175 z m 26.54593,-0.94487 c 1.06194,-1.95107 2.19633,-3.54739 2.52091,-3.54739 0.32459,0 -0.39205,1.59632 -1.59256,3.54739 -1.20051,1.95105 -2.33488,3.54737 -2.52091,3.54737 -0.18595,0 0.53069,-1.59632 1.59256,-3.54737 z m -14.16602,-0.70948 c 0.24434,-1.75595 0.71103,-3.48435 1.03726,-3.84088 0.74075,-0.80976 -0.0354,4.51854 -0.86954,5.9693 -0.36708,0.63846 -0.4342,-0.21306 -0.16772,-2.12842 z m -21.65177,-0.17737 c -0.70366,-2.10953 -0.67939,-2.18858 0.28528,-0.92862 0.58,0.75746 1.0545,1.79507 1.0545,2.3058 0,1.58209 -0.53673,1.03042 -1.33978,-1.37718 z m 4.58307,0.48142 c -0.26094,-1.03973 -0.33764,-2.02726 -0.17042,-2.1945 0.16729,-0.16723 0.51764,0.54664 0.77859,1.58639 0.26094,1.03974 0.33763,2.02726 0.17041,2.1945 -0.16729,0.16723 -0.51763,-0.54664 -0.77858,-1.58639 z m 20.92916,1.46964 c 0,-0.39022 0.45627,-1.50764 1.01392,-2.48317 0.55765,-0.97552 1.01391,-1.45442 1.01391,-1.06421 0,0.39021 -0.45626,1.50763 -1.01391,2.48317 -0.55765,0.97552 -1.01392,1.45441 -1.01392,1.06421 z m 6.02586,-2.69114 c 0.26641,-0.6997 0.66315,-1.09346 0.8816,-0.87502 0.21845,0.21844 4.2e-4,0.79093 -0.48443,1.27218 -0.70068,0.69548 -0.7822,0.61399 -0.39717,-0.39716 z m -13.70145,-2.27519 c 0.007,-1.56085 0.15317,-2.11584 0.32288,-1.23331 0.1697,0.88252 0.16325,2.15958 -0.0141,2.8379 -0.17757,0.67833 -0.31642,-0.0437 -0.30855,-1.60459 z m -19.6895,-2.48316 c -0.24115,-0.39022 -0.10035,-0.70948 0.31288,-0.70948 0.41319,0 0.75133,0.31926 0.75133,0.70948 0,0.3902 -0.14076,0.70947 -0.31288,0.70947 -0.17205,0 -0.51018,-0.31927 -0.75133,-0.70947 z m 15.30969,-0.41386 c 0.0341,-0.8265 0.2022,-0.99462 0.42867,-0.42865 0.20496,0.51216 0.17978,1.12408 -0.0561,1.35983 -0.23576,0.23576 -0.40348,-0.18329 -0.37269,-0.93118 z m 4.96633,-1.41895 c 0.0341,-0.82651 0.2022,-0.99461 0.42867,-0.42864 0.20496,0.51214 0.17977,1.12407 -0.0561,1.35983 -0.23575,0.23574 -0.40347,-0.18329 -0.37269,-0.93119 z m 14.843,-20.51566 c 0,-0.65813 0.66726,-1.06421 1.74872,-1.06421 2.49188,0 3.21761,-1.90974 3.21761,-8.46707 v -5.72244 h -2.48317 c -1.73424,0 -2.48316,-0.32095 -2.48316,-1.06422 0,-0.80406 0.86712,-1.06421 3.54738,-1.06421 h 3.54738 v 8.11874 c 0,7.5854 -0.10355,8.19129 -1.57681,9.22318 -2.05635,1.4403 -5.51795,1.46553 -5.51795,0.0402 z m -90.55955,-3.88086 c -4.01974,-1.66256 -5.23223,-8.58684 -2.05925,-11.75984 1.85521,-1.8552 5.11255,-2.29993 7.49738,-1.02362 1.3573,0.72641 3.08026,5.3856 2.3991,6.48771 -0.20348,0.32928 -2.26678,0.5987 -4.58499,0.5987 -2.98547,0 -4.21499,0.26903 -4.21499,0.92231 0,2.28463 3.771,3.53657 5.48623,1.82138 0.442,-0.44203 1.36255,-0.58923 2.04563,-0.32711 1.16269,0.44619 1.15446,0.56243 -0.12969,1.82315 -1.69976,1.66874 -4.4328,2.28725 -6.43942,1.45732 z m 4.71305,-9.23092 c 0,-1.74018 -3.09204,-2.69361 -4.62081,-1.42481 -1.98185,1.6448 -1.23513,2.83025 1.78291,2.83025 2.35581,0 2.8379,-0.23875 2.8379,-1.40544 z m 11.04752,8.80425 c -0.79894,-0.79899 -1.11487,-2.50773 -1.11487,-6.03054 0,-4.77038 -0.0525,-4.91565 -1.77368,-4.91565 -1.10366,0 -1.77369,-0.40204 -1.77369,-1.06422 0,-0.66217 0.67003,-1.06421 1.77369,-1.06421 1.49777,0 1.77368,-0.33109 1.77368,-2.12842 0,-1.41895 0.35474,-2.12843 1.06421,-2.12843 0.70948,0 1.06421,0.70948 1.06421,2.12843 0,1.9595 0.1971,2.12842 2.48318,2.12842 3.29252,0 3.4452,1.94577 0.17736,2.26085 l -2.30579,0.22232 v 4.25685 c 0,4.11643 0.0646,4.26426 1.95105,4.48134 2.11736,0.24363 2.6396,1.84264 0.82881,2.53751 -1.8093,0.69429 -2.95929,0.50458 -4.14816,-0.68425 z m 60.89305,0.096 c -2.60852,-1.12864 -3.12147,-2.23287 -3.12147,-6.71966 0,-4.10055 2.03172,-6.45093 5.5764,-6.45093 3.46416,0 5.7752,2.66842 5.7752,6.66821 0,5.33125 -3.87005,8.38887 -8.23013,6.50238 z m 4.54086,-2.67035 c 1.0452,-1.04521 1.11359,-5.13728 0.11693,-6.9995 -0.98291,-1.83654 -3.18619,-1.73744 -4.5464,0.20451 -1.27804,1.82466 -1.38099,3.27915 -0.41256,5.82648 0.75197,1.97784 3.31922,2.49133 4.84203,0.96851 z m 27.35524,3.00105 c -4.01975,-1.66256 -5.23225,-8.58684 -2.05925,-11.75984 1.8552,-1.8552 5.11254,-2.29993 7.49738,-1.02361 1.35729,0.72641 3.08025,5.38559 2.39908,6.4877 -0.20347,0.32928 -2.26677,0.5987 -4.58498,0.5987 -2.98548,0 -4.21499,0.26903 -4.21499,0.92231 0,2.28463 3.771,3.53657 5.48623,1.82138 0.442,-0.44202 1.36254,-0.58923 2.04563,-0.32711 1.16268,0.44619 1.15446,0.56244 -0.1297,1.82316 -1.69976,1.66873 -4.4328,2.28724 -6.4394,1.45731 z m 4.71304,-9.23092 c 0,-1.74018 -3.09203,-2.69361 -4.62082,-1.42481 -1.98184,1.6448 -1.23512,2.83025 1.78292,2.83025 2.35581,0 2.8379,-0.23874 2.8379,-1.40544 z m 10.89541,9.23092 c -4.01975,-1.66256 -5.23224,-8.58684 -2.05926,-11.75984 2.2555,-2.25544 6.15165,-2.3621 8.28689,-0.22685 1.36768,1.36766 1.40118,1.57809 0.34488,2.16922 -0.81178,0.45427 -1.50793,0.31643 -2.2748,-0.45039 -1.40561,-1.4056 -2.73325,-1.40244 -4.1456,0.01 -1.31409,1.31409 -1.4855,6.03492 -0.26349,7.25691 1.07491,1.07496 3.58177,1.10076 4.63486,0.0477 0.44199,-0.44202 1.36254,-0.58923 2.04563,-0.32711 1.1627,0.44619 1.1545,0.56244 -0.1297,1.82316 -1.69976,1.66873 -4.4328,2.28724 -6.43941,1.45731 z m 15.76061,-0.42667 c -0.799,-0.79899 -1.1149,-2.50773 -1.1149,-6.03054 0,-4.77038 -0.053,-4.91565 -1.7737,-4.91565 -1.1037,0 -1.7737,-0.40204 -1.7737,-1.06421 0,-0.66218 0.67,-1.06422 1.7737,-1.06422 1.4978,0 1.7737,-0.33108 1.7737,-2.12842 0,-1.41895 0.3547,-2.12843 1.0642,-2.12843 0.7095,0 1.0642,0.70948 1.0642,2.12843 0,1.9595 0.1971,2.12842 2.4832,2.12842 3.2925,0 3.4452,1.94577 0.1773,2.26085 l -2.3057,0.22232 v 4.25685 c 0,4.11643 0.065,4.26426 1.951,4.48134 2.1174,0.24363 2.6396,1.84264 0.8288,2.53751 -1.8093,0.69429 -2.9593,0.50459 -4.1481,-0.68425 z m 14.4935,0.57742 c -2.6498,-0.4601 -3.7471,-1.55957 -2.7525,-2.75805 0.5929,-0.71439 1.0619,-0.77172 1.7362,-0.2122 0.508,0.42166 1.9795,0.66504 3.27,0.54086 3.1016,-0.29846 3.6571,-2.45414 0.8087,-3.1379 -4.1669,-1.00024 -5.9003,-2.33125 -5.9003,-4.53063 0,-2.51485 1.6206,-3.55412 5.5423,-3.55412 3.1113,0 5.1857,1.61695 3.8228,2.9798 -0.582,0.58199 -1.0704,0.55965 -1.8465,-0.0845 -1.3832,-1.148 -4.3259,-0.7065 -4.3259,0.64902 0,0.60744 1.1957,1.4529 2.797,1.97746 3.6053,1.18116 4.6525,2.08889 4.6525,4.03309 0,2.84811 -3.7275,4.80505 -7.8043,4.09721 z m -173.82139,-9.39519 v -9.22317 h 4.5601 c 4.08131,0 4.71448,0.19628 6.03054,1.86937 1.63035,2.07265 1.90138,5.20943 0.65476,7.57782 -1.15532,2.19492 -1.97521,2.59071 -5.39223,2.60302 l -3.01527,0.0109 v 3.19264 c 0,2.71964 -0.21021,3.19263 -1.41894,3.19263 -1.34619,0 -1.41896,-0.47299 -1.41896,-9.22318 z m 9.09184,-2.76758 c 0.2531,-3.53752 -0.44415,-4.29979 -3.94814,-4.31631 l -2.3058,-0.0109 v 3.94291 3.94291 l 3.01527,-0.21817 3.01528,-0.21816 z m 53.34198,2.76758 v -9.22317 h 4.25685 c 5.56264,0 7.09476,1.3702 7.09476,6.34505 0,4.25046 -1.58668,5.71603 -6.1884,5.71603 h -3.03478 v 3.19264 c 0,2.36491 -0.27592,3.19263 -1.06422,3.19263 -0.89138,0 -1.06421,-1.49778 -1.06421,-9.22318 z m 8.65581,-1.09279 c 0.55567,-1.21953 0.60383,-2.42389 0.14899,-3.72475 -0.56758,-1.62326 -1.13941,-1.95643 -3.6743,-2.14063 l -3.00207,-0.21816 v 3.9429 3.94291 h 2.85308 c 2.36695,0 2.99306,-0.30714 3.6743,-1.80227 z m 6.24317,9.25176 c 0,-0.71318 0.71324,-1.06421 2.16227,-1.06421 h 2.16227 l -0.21122,-4.43422 c -0.20241,-4.24961 -0.29244,-4.44356 -2.16227,-4.65871 -1.11671,-0.1285 -1.95105,-0.65944 -1.95105,-1.24159 0,-1.2321 4.97846,-1.43064 6.16328,-0.24579 0.55546,0.55541 0.90473,0.55541 1.24797,0 0.75652,-1.22406 5.3593,-0.97248 5.3593,0.29292 0,0.69659 -0.69727,1.06421 -2.01845,1.06421 -2.90423,0 -4.36682,1.97915 -4.36682,5.90904 0,3.20939 0.0674,3.31414 2.12842,3.31414 1.41896,0 2.12843,0.35473 2.12843,1.06421 0,0.85137 -1.06421,1.06421 -5.32107,1.06421 -4.25685,0 -5.32106,-0.21284 -5.32106,-1.06421 z m 36.89271,-17.0274 c 0,-1.53592 0.28684,-1.83164 1.59632,-1.64567 1.04775,0.14881 1.59632,0.71432 1.59632,1.64567 0,0.93134 -0.54857,1.49686 -1.59632,1.64566 -1.30948,0.18598 -1.59632,-0.10975 -1.59632,-1.64566 z M 637.74563,579.1046 c -13.74614,-1.59759 -25.08492,-5.03508 -38.43581,-11.6523 -42.3262,-20.97852 -67.28603,-67.83033 -61.05741,-114.61016 3.41631,-25.65807 13.98314,-47.0308 32.27653,-65.28328 13.59288,-13.56249 26.99319,-21.86057 44.56015,-27.59371 12.88062,-4.2037 20.46931,-5.36969 34.94821,-5.36969 14.47891,0 22.06759,1.16599 34.94821,5.36969 17.56697,5.73314 30.96727,14.03122 44.56015,27.59371 9.6916,9.66993 15.4372,17.54733 21.2145,29.08574 24.61117,49.15342 10.4589,107.86638 -34.03218,141.18806 -7.67604,5.74899 -22.06243,13.16815 -31.57165,16.28171 -15.08996,4.94086 -32.27333,6.74949 -47.4107,4.99023 z m 35.13607,-2.74719 c 39.38562,-8.49537 71.33874,-37.39699 83.52798,-75.5511 3.97888,-12.45447 5.23317,-22.20127 4.80087,-37.30641 -0.41244,-14.41089 -1.77687,-21.99325 -6.19197,-34.40954 -13.48111,-37.91201 -47.16678,-65.74427 -87.59914,-72.37743 -8.3072,-1.36285 -26.45708,-1.36285 -34.76429,0 -36.20575,5.93976 -66.26974,28.12782 -82.91219,61.19148 -3.25922,6.47514 -6.58533,16.00753 -8.73036,25.02072 -2.62568,11.03274 -3.10825,30.28091 -1.05981,42.27273 4.03224,23.60527 14.46075,43.81215 31.29352,60.63613 17.13844,17.1295 37.68686,27.64298 61.671,31.55365 9.0954,1.48302 30.92108,0.92038 39.96439,-1.03023 z M 659.27278,558.0641 c 0.007,-1.47794 0.30603,-5.56054 0.66507,-9.07243 0.35902,-3.5119 0.87562,-10.45589 1.14799,-15.43108 l 0.49522,-9.04581 h -16.48191 c -14.26167,0 -16.75793,-0.16306 -18.53097,-1.21042 -4.13408,-2.44206 -4.20066,-2.98728 -4.19776,-34.37057 0.003,-27.14079 0.0745,-28.74441 1.38757,-30.89787 2.62408,-4.30362 3.5554,-4.46866 25.2151,-4.46866 21.6597,0 22.59102,0.16504 25.21509,4.46866 1.31304,2.15346 1.38507,3.75708 1.38758,30.89787 0.002,24.87799 -0.14729,28.9425 -1.1424,31.03955 -0.62978,1.32715 -1.54848,2.41301 -2.04155,2.41301 -2.36298,0 -2.50454,1.70602 -1.38939,16.7451 0.60468,8.15461 1.16328,16.26323 1.24138,18.01918 l 0.14197,3.19264 -6.56265,0.204 -6.56264,0.20399 0.0122,-2.68716 z m 0.38267,-36.54509 c -1.3932,-1.98907 -1.40414,-4.29939 -0.0329,-6.95109 2.66001,-5.14388 10.21202,-4.76669 12.90639,0.64462 1.25262,2.51573 1.27919,2.0537 1.46349,-25.46205 0.13346,-19.92666 -0.0485,-28.5962 -0.62989,-30.00359 -1.65178,-3.9987 -1.96597,-4.05122 -24.23926,-4.05122 -12.67839,0 -20.98286,0.27792 -21.82852,0.73051 -3.37125,1.80423 -3.50808,3.07089 -3.50808,32.47373 0,18.33384 0.26343,28.35458 0.78471,29.84995 1.38849,3.983 2.81777,4.28606 20.3624,4.31755 l 15.82606,0.0284 -1.10445,-1.57682 z m -18.80892,-10.79995 c -1.35558,-1.63337 -0.63109,-4.26132 1.24822,-4.52773 3.27564,-0.46436 5.09678,3.32882 2.31339,4.81846 -1.8397,0.98457 -2.55142,0.92648 -3.56161,-0.29073 z m 3.51965,-5.53748 c 0.003,-0.48776 0.6262,-1.82974 1.38586,-2.98215 1.12298,-1.70359 1.46377,-1.8801 1.82292,-0.94417 0.24295,0.63313 -0.0981,1.9751 -0.75799,2.98216 -1.27826,1.95088 -2.4585,2.40556 -2.45079,0.94416 z m 2.86151,-5.10962 c -1.88469,-2.2709 0.88345,-5.75935 3.34172,-4.21126 2.45644,1.54695 1.5813,5.2414 -1.24159,5.2414 -0.68486,0 -1.62992,-0.46356 -2.10013,-1.03014 z m -2.15672,-6.41935 c -1.06591,-1.72469 -1.36238,-2.82353 -0.88939,-3.29651 0.47298,-0.47299 1.24242,0.15287 2.30834,1.87755 1.06592,1.72468 1.36238,2.82353 0.88941,3.29651 -0.47299,0.47299 -1.24244,-0.15287 -2.30836,-1.87755 z m 6.07055,1.83843 c -0.5056,-0.8181 1.01245,-4.3216 1.87252,-4.3216 0.34132,0 0.29471,-0.60888 -0.10354,-1.35306 -0.54974,-1.02721 -0.417,-1.73237 0.55118,-2.92804 2.2516,-2.78061 6.04189,-0.24334 4.35238,2.91354 -0.40255,0.75217 -1.32045,1.36756 -2.03981,1.36756 -0.7864,0 -1.66197,0.85475 -2.19584,2.14365 -1.00286,2.42112 -1.82979,3.16019 -2.43686,2.17795 z M 641.09787,489.917 c -2.28893,-1.5287 -1.24274,-5.13284 1.48994,-5.13284 2.37459,0 3.44533,2.16142 2.05446,4.14716 -1.10792,1.58179 -2.19795,1.88492 -3.5444,0.98568 z m 5.39205,-13.2918 c 0,-0.74326 0.7489,-1.06421 2.48317,-1.06421 1.73427,0 2.48316,0.32095 2.48316,1.06421 0,0.74326 -0.74889,1.06422 -2.48316,1.06422 -1.73427,0 -2.48317,-0.32096 -2.48317,-1.06422 z m -4.96632,-4.96633 c 0,-0.8784 1.3007,-1.06421 7.44949,-1.06421 6.14879,0 7.44949,0.18581 7.44949,1.06421 0,0.8784 -1.3007,1.06422 -7.44949,1.06422 -6.14879,0 -7.44949,-0.18582 -7.44949,-1.06422 z m -5.67581,-4.25685 c 0,-0.90761 1.93136,-1.06421 13.1253,-1.06421 11.19394,0 13.12529,0.1566 13.12529,1.06421 0,0.90762 -1.93135,1.06421 -13.12529,1.06421 -11.19394,0 -13.1253,-0.15659 -13.1253,-1.06421 z m 33.8005,53.15696 c 1.46916,-2.24224 0.98455,-4.49098 -1.34057,-6.2205 -1.56291,-1.16257 -2.33442,-1.31491 -3.88948,-0.76802 -3.77236,1.32667 -4.03322,7.41462 -0.37025,8.64081 2.56946,0.86014 4.2859,0.35373 5.6003,-1.65229 z m -44.86855,-94.94877 c -2.61034,-1.15546 -3.12145,-2.25932 -3.12145,-6.74159 0,-4.2293 2.01379,-6.45093 5.8474,-6.45093 3.05038,0 5.50421,2.57299 5.50421,5.77148 0,2.02582 -0.0155,2.03275 -4.54517,2.03275 -4.20412,0 -4.51718,0.10705 -4.17208,1.42671 0.48256,1.84532 3.38228,2.55773 5.5936,1.37426 2.28446,-1.2226 3.70809,-3.6e-4 1.89882,1.63021 -1.87356,1.68854 -4.5323,2.0518 -7.00533,0.95711 z m 5.2669,-8.68226 c -0.36091,-1.83381 -2.47848,-2.87671 -3.95412,-1.94742 -0.68288,0.43005 -1.34482,1.30638 -1.47098,1.94742 -0.18314,0.93057 0.36372,1.16555 2.71255,1.16555 2.34885,0 2.8957,-0.23498 2.71255,-1.16555 z m 9.93621,8.96753 c -3.07398,-0.89973 -3.60885,-1.40523 -2.67605,-2.52917 0.60874,-0.7335 1.17128,-0.79731 2.19565,-0.24907 0.75748,0.40538 2.4001,0.63813 3.65025,0.51719 3.23036,-0.31248 2.92669,-2.12796 -0.54625,-3.26573 -5.07771,-1.66353 -6.69548,-4.3757 -4.04225,-6.77683 2.10424,-1.90433 9.34468,-1.20442 9.34468,0.9033 0,1.03634 -2.25779,1.53628 -3.24352,0.71821 -1.28733,-1.0684 -4.20597,-0.54892 -4.20597,0.7486 0,0.61387 1.19613,1.44328 2.83789,1.96782 3.39275,1.08398 5.33238,3.15983 4.81197,5.1499 -0.61861,2.36554 -4.76085,3.80082 -8.1264,2.81578 z m 15.23799,-0.0563 c -2.32189,-0.8589 -3.05511,-2.87695 -3.05511,-8.40855 0,-4.50409 0.14102,-5.01297 1.38911,-5.01297 1.24184,0 1.41107,0.58291 1.59631,5.49843 0.19331,5.12925 0.31702,5.514 1.84258,5.73027 2.85505,0.40473 3.6857,-1.0262 3.6857,-6.34924 0,-4.40647 0.13755,-4.87946 1.41895,-4.87946 1.32058,0 1.41896,0.47299 1.41896,6.82276 0,6.52181 -0.064,6.80604 -1.44977,6.44364 -0.79737,-0.20851 -2.31682,-0.13045 -3.37656,0.17348 -1.05973,0.30393 -2.62131,0.29567 -3.47017,-0.0183 z m 31.9279,0.0517 c -2.6784,-1.07887 -3.99268,-3.87711 -3.57238,-7.60595 0.4342,-3.8522 2.35998,-5.86727 5.60732,-5.86727 2.98687,0 4.5756,1.05557 5.47594,3.63827 1.38398,3.97008 1.20401,4.16596 -3.8275,4.16596 -3.31088,0 -4.61158,0.26014 -4.61158,0.92231 0,2.28464 3.77103,3.53658 5.48622,1.82138 0.91362,-0.91362 3.02748,-0.34275 3.02748,0.81762 0,0.71883 -4.25431,2.87798 -5.47564,2.779 -0.3052,-0.0248 -1.25463,-0.32682 -2.10986,-0.67132 z m 5.45708,-8.19881 c 0,-1.28538 -1.66321,-3.14601 -2.8122,-3.14601 -1.40368,0 -3.57308,1.75381 -3.57308,2.88859 0,0.36233 1.43669,0.6588 3.19264,0.6588 1.75595,0 3.19264,-0.18062 3.19264,-0.40138 z m -86.55599,-1.01758 v -9.22317 h 4.09899 c 5.37253,0 7.25262,1.27304 7.25262,4.91087 0,1.65228 -0.56671,3.42246 -1.45874,4.55647 l -1.45872,1.85449 1.45872,3.29771 c 1.77017,4.00176 1.76524,3.82681 0.10763,3.82681 -0.9687,0 -1.8089,-1.10446 -2.96845,-3.90212 -1.3019,-3.14103 -1.93783,-3.9021 -3.26048,-3.9021 -1.51869,0 -1.64314,0.29551 -1.64314,3.9021 0,2.99557 -0.24724,3.90212 -1.06421,3.90212 -0.89139,0 -1.06422,-1.49778 -1.06422,-9.22318 z m 8.44429,-2.30579 c 1.0484,-2.81592 -0.10869,-4.40965 -3.37773,-4.65239 l -2.93813,-0.21816 v 3.23343 3.23344 h 2.86076 c 2.31765,0 2.97361,-0.30307 3.4551,-1.59632 z m 51.86111,4.90132 v -6.62764 l 3.37001,-0.0514 c 1.85351,-0.0282 3.74067,0.25595 4.19369,0.63154 0.53304,0.44195 0.98591,0.42042 1.28345,-0.061 0.77382,-1.25207 3.82415,-0.83611 4.60793,0.62839 0.40393,0.75476 0.73443,3.78777 0.73443,6.74001 0,4.89472 -0.12503,5.36771 -1.41896,5.36771 -1.3007,0 -1.41894,-0.47299 -1.41894,-5.67581 0,-3.12169 -0.25542,-5.6758 -0.56758,-5.6758 -1.54724,0 -2.27033,2.07889 -2.27033,6.52717 0,4.35145 -0.13911,4.82444 -1.41895,4.82444 -1.3007,0 -1.41894,-0.47299 -1.41894,-5.67581 0,-3.12169 -0.25541,-5.6758 -0.56759,-5.6758 -1.54723,0 -2.27032,2.07889 -2.27032,6.52717 0,4.35145 -0.13911,4.82444 -1.41894,4.82444 -1.31769,0 -1.41896,-0.47299 -1.41896,-6.62765 z M 638.6857,319.74439 c -19.15631,-2.38013 -36.12065,-8.60192 -51.7917,-18.99493 -9.40971,-6.24051 -23.37673,-20.02057 -29.55827,-29.16263 -34.55231,-51.1003 -23.31704,-118.04862 26.0109,-154.99287 7.78622,-5.83152 22.19046,-13.2343 31.74518,-16.31485 12.24292,-3.947254 21.13729,-5.294931 34.94549,-5.294931 19.34753,0 33.13717,3.258173 50.72748,11.985701 28.84335,14.31078 50.49356,41.25761 58.57335,72.90304 7.93726,31.08718 1.92206,64.32226 -16.59925,91.71391 -6.18156,9.14206 -20.14856,22.92212 -29.55829,29.16263 -19.14154,12.69465 -38.04142,18.63996 -60.66013,19.08174 -6.24338,0.12195 -12.46903,0.0829 -13.83476,-0.0868 z m 26.60532,-1.74287 c 24.02637,-3.08896 48.17745,-15.45701 65.289,-33.43523 14.47246,-15.20547 23.45448,-31.93986 28.48199,-53.0648 2.62568,-11.03274 3.10824,-30.28091 1.0598,-42.27273 -7.91532,-46.33738 -42.87791,-82.21383 -89.26424,-91.597447 -8.9005,-1.80051 -32.74005,-1.80051 -41.64054,0 -40.52924,8.198767 -73.15204,37.174957 -85.55212,75.988997 -3.97886,12.45447 -5.23316,22.20127 -4.80085,37.30641 0.41133,14.3724 1.75665,21.87567 6.16955,34.40954 11.78611,33.47583 40.94202,60.31313 75.8838,69.84914 13.99496,3.81939 29.1092,4.77859 44.37361,2.81612 z m -49.58433,-70.18405 c -6.13985,-2.39785 -8.50527,-5.6595 -11.08452,-15.28427 -1.62497,-6.06375 -2.52949,-8.12643 -3.56362,-8.12643 -0.56386,0 -1.0699,-8.50089 -0.50714,-8.5196 0.0976,-0.003 3.68926,-0.47589 7.98159,-1.05036 10.70852,-1.43315 17.26056,-1.31726 25.18637,0.44553 9.361,2.08197 23.27485,2.08197 32.63586,0 7.92582,-1.76279 14.47785,-1.87868 25.18637,-0.44553 4.29232,0.57447 7.88404,1.04713 7.9816,1.05036 0.56274,0.0187 0.0567,8.5196 -0.50715,8.5196 -1.03461,0 -1.93879,2.06317 -3.56715,8.13963 -2.57487,9.60844 -5.03961,12.98129 -11.15944,15.27101 -6.58379,2.46331 -13.71712,1.4548 -20.2319,-2.86041 -5.19512,-3.44112 -10.49482,-12.88774 -10.73291,-19.13127 -0.0937,-2.456 -0.12964,-2.48317 -3.28735,-2.48317 -3.15771,0 -3.19368,0.0271 -3.28734,2.48317 -0.12399,3.25149 -2.57593,9.61075 -5.27914,13.69186 -5.28457,7.97823 -16.95829,11.73891 -25.76413,8.29988 z m 12.6947,-3.30146 c 5.24556,-1.78734 10.55607,-7.30806 12.06465,-12.5422 1.4132,-4.90322 0.99154,-8.13415 -1.34848,-10.33247 -3.9345,-3.69628 -19.15025,-4.98854 -25.05884,-2.12824 -3.93695,1.90585 -5.17098,4.3211 -5.17098,10.12068 0,7.6954 3.03163,12.78096 8.89995,14.92969 3.75325,1.37428 6.47687,1.3621 10.6137,-0.0475 z m 53.63027,0.0868 c 6.11733,-2.15832 9.15521,-7.12534 9.15521,-14.96906 0,-5.79958 -1.23403,-8.21483 -5.17098,-10.12068 -5.9086,-2.8603 -21.12435,-1.56804 -25.05886,2.12824 -2.34001,2.19832 -2.76167,5.42925 -1.34846,10.33247 0.9454,3.28016 1.96616,4.8921 4.918,7.76624 5.61547,5.46765 11.30839,7.04911 17.50509,4.86279 z M 634.259,166.53295 c -0.23208,-0.23207 -1.48604,-0.47503 -2.78659,-0.53991 l -2.36463,-0.11796 v -10.27767 c 0,-9.22419 0.12727,-10.3022 1.24159,-10.51679 1.08378,-0.20872 1.24157,0.37163 1.24157,4.5664 0,3.73761 0.1892,4.61631 0.85137,3.95414 1.37003,-1.37003 5.16197,-1.01936 6.6402,0.61406 1.89894,2.09831 1.85681,8.67807 -0.0674,10.52713 -1.54234,1.4821 -4.10122,2.44547 -4.75609,1.7906 z m 2.86585,-3.28294 c 0.46825,-0.46825 0.85137,-2.16035 0.85137,-3.76021 0,-4.36567 -2.3258,-5.93702 -5.08783,-3.43742 -1.43042,1.29452 -1.70443,4.54393 -0.56301,6.6767 0.82095,1.53397 3.49608,1.82433 4.79947,0.52093 z m 10.70917,2.89864 c -3.5632,-1.30731 -4.73496,-8.05519 -2.00208,-11.5295 1.13422,-1.44191 2.09582,-1.86936 4.20536,-1.86936 3.69906,0 5.6758,2.45765 5.6758,7.05664 0,3.17877 -1.77652,6.42339 -3.51699,6.42339 -0.34309,0 -1.04899,0.13434 -1.56867,0.29852 -0.51969,0.1642 -1.77672,-0.006 -2.79342,-0.37969 z m 4.31579,-3.09229 c 0.47701,-0.57476 0.86729,-2.17971 0.86729,-3.56656 0,-2.82014 -1.13618,-4.61159 -2.92477,-4.61159 -1.94068,0 -2.89293,1.51796 -2.89293,4.61159 0,4.19058 2.77391,6.18908 4.95041,3.56656 z m 10.87525,3.11496 c -2.32189,-0.85891 -3.05511,-2.87697 -3.05511,-8.40857 0,-4.50408 0.14102,-5.01296 1.38912,-5.01296 1.24183,0 1.41106,0.58291 1.59632,5.49842 0.19329,5.12925 0.31701,5.51401 1.84258,5.73027 2.85505,0.40474 3.68568,-1.02619 3.68568,-6.34923 0,-4.40648 0.13755,-4.87946 1.41896,-4.87946 1.32058,0 1.41895,0.47298 1.41895,6.82275 0,6.52182 -0.064,6.80605 -1.44977,6.44365 -0.79737,-0.20852 -2.31681,-0.13045 -3.37655,0.17347 -1.05972,0.30394 -2.62131,0.29568 -3.47018,-0.0183 z m 16.85382,-0.60736 c -1.1771,-1.1771 -1.46257,-2.36269 -1.46257,-6.07416 0,-4.44605 -0.0636,-4.61159 -1.77369,-4.61159 -1.10363,0 -1.77369,-0.40203 -1.77369,-1.06421 0,-0.66217 0.67006,-1.06421 1.77369,-1.06421 1.49779,0 1.77369,-0.3311 1.77369,-2.12843 0,-1.65544 0.31532,-2.12842 1.41895,-2.12842 1.10363,0 1.41895,0.47298 1.41895,2.12842 0,1.9595 0.19708,2.12843 2.48317,2.12843 1.73426,0 2.48316,0.32094 2.48316,1.06421 0,0.74326 -0.7489,1.06421 -2.48316,1.06421 h -2.48317 v 4.61159 c 0,4.48109 0.0516,4.61159 1.82571,4.61159 1.35594,0 1.76483,0.31947 1.58907,1.24158 -0.34298,1.79958 -3.08501,1.92609 -4.79011,0.22099 z m -67.4107,0.13374 c 0.0182,-0.29266 0.90463,-4.36328 1.9699,-9.04582 l 1.93684,-8.5137 2.50188,-0.21186 2.50188,-0.21185 1.91548,8.37082 c 2.23062,9.74804 2.26286,10.14452 0.82503,10.14452 -1.11749,0 -1.32742,-0.3795 -2.06042,-3.72476 -0.37713,-1.7211 -0.75304,-1.95105 -3.18954,-1.95105 -2.66947,0 -2.77808,0.0951 -3.24148,2.83791 -0.36396,2.15426 -0.80625,2.8379 -1.83604,2.8379 -0.74612,0 -1.34172,-0.23945 -1.32353,-0.53211 z m 8.46695,-8.15896 c -0.0303,-1.96469 -1.86828,-7.88843 -2.24905,-7.24867 -0.22457,0.37731 -0.62931,1.80344 -0.89944,3.16918 -0.27013,1.36574 -0.64844,3.04188 -0.84071,3.72474 -0.27835,0.98859 0.0939,1.24159 1.82665,1.24159 1.2753,0 2.17057,-0.36715 2.16255,-0.88684 z"
         id="path1922" />
    </g>
  </g>
</svg>
