<?xml version="1.0" encoding="UTF-8" standalone="no"?>
<!-- Created with Inkscape (http://www.inkscape.org/) -->

<svg
   xmlns:dc="http://purl.org/dc/elements/1.1/"
   xmlns:cc="http://creativecommons.org/ns#"
   xmlns:rdf="http://www.w3.org/1999/02/22-rdf-syntax-ns#"
   xmlns:svg="http://www.w3.org/2000/svg"
   xmlns="http://www.w3.org/2000/svg"
   xmlns:sodipodi="http://sodipodi.sourceforge.net/DTD/sodipodi-0.dtd"
   xmlns:inkscape="http://www.inkscape.org/namespaces/inkscape"
   id="svg2"
   version="1.1"
   inkscape:version="0.91 r13725"
   width="898.20001"
   height="898.20001"
   viewBox="0 0 898.20001 898.20001"
   sodipodi:docname="about.svg">
  <metadata
     id="metadata8">
    <rdf:RDF>
      <cc:Work
         rdf:about="">
        <dc:format>image/svg+xml</dc:format>
        <dc:type
           rdf:resource="http://purl.org/dc/dcmitype/StillImage" />
        <dc:title />
      </cc:Work>
    </rdf:RDF>
  </metadata>
  <defs
     id="defs6" />
  <sodipodi:namedview
     pagecolor="#ffffff"
     bordercolor="#666666"
     borderopacity="1"
     objecttolerance="10"
     gridtolerance="10"
     guidetolerance="10"
     inkscape:pageopacity="0"
     inkscape:pageshadow="2"
     inkscape:window-width="1301"
     inkscape:window-height="744"
     id="namedview4"
     showgrid="false"
     inkscape:zoom="0.37158138"
     inkscape:cx="-26.024564"
     inkscape:cy="209.48733"
     inkscape:window-x="65"
     inkscape:window-y="24"
     inkscape:window-maximized="1"
     inkscape:current-layer="svg2" />
  <path
     inkscape:connector-curvature="0"
     d="m 463.88613,521.02546 c -0.34285,1.19997 -0.81326,2.38397 -1.37536,3.48823 0.45446,2.99392 1.39529,5.88018 2.32017,8.76643 1.0923,3.4085 2.16072,6.82099 3.31282,10.20957 0.49433,1.46703 1.0086,2.92613 1.51889,4.38522 0.33087,0.93682 0.66175,1.86967 1.04047,2.79057 2.98593,8.39967 6.82498,16.52027 11.6806,23.99904 4.5686,7.04024 10.03815,13.51839 16.34485,19.04376 6.31871,5.5413 13.48651,10.12184 21.15266,13.56623 3.84304,1.73015 7.81365,3.16931 11.85998,4.34534 4.00649,1.16408 8.08474,2.07301 12.20283,2.72282 0.8332,0.13156 1.6624,0.25116 2.49559,0.36276 0.84913,0.10764 1.69428,0.20731 2.54741,0.29501 2.0132,0.21129 4.03439,0.37075 6.05558,0.51427 5.82434,0.28704 11.67262,-0.0877 17.42121,-1.0644 5.22239,-0.88503 10.35706,-2.26039 15.29641,-4.16595 4.94332,-1.90956 9.69131,-4.34533 14.03267,-7.3791 2.17266,-1.51889 4.24168,-3.18526 6.17116,-5.00713 1.7501,-1.65041 3.3846,-3.42444 4.86759,-5.32205 4.39318,-5.64495 7.84553,-11.96362 10.56437,-18.56536 1.61454,-3.92675 2.97396,-7.95316 4.16992,-12.0314 0.74947,-2.54742 1.43517,-5.10678 2.07699,-7.68209 0.63786,-2.57531 1.23185,-5.16656 1.79794,-7.76181 0.98867,-4.49683 2.02119,-8.98969 3.36065,-13.40278 0.9209,-3.03776 1.99329,-6.03965 3.45236,-8.85813 1.20794,-2.32815 2.68295,-4.53671 4.54866,-6.37847 0.74947,-0.73753 1.56672,-1.41922 2.41983,-2.02917 1.0126,-0.71759 2.081,-1.3355 3.21317,-1.85773 0,-9.59164 0,-19.18329 0,-28.77493 -17.32556,-3.57196 -34.85842,-6.17517 -52.49092,-7.56647 -9.23685,-0.72955 -18.50557,-1.12421 -27.77033,-1.23584 -4.87156,-0.0598 -9.73914,-0.0358 -14.6107,0.0837 -3.75533,0.0917 -7.51465,0.24718 -11.262,0.53819 -0.30298,0.0239 -0.60597,0.0518 -0.91293,0.0758 -1.55475,0.13156 -3.10155,0.27905 -4.65229,0.44251 -1.79794,0.19135 -3.59589,0.40265 -5.38984,0.63783 -1.6305,0.21529 -3.25699,0.45447 -4.88352,0.7176 -1.56272,0.25114 -3.11747,0.5262 -4.66426,0.83717 -1.96936,0.34284 -3.92676,0.71758 -5.88814,1.12022 -1.94943,0.40263 -3.89884,0.83319 -5.83632,1.28766 -2.05306,0.48237 -4.09418,0.99265 -6.1353,1.53084 -1.80589,0.47837 -3.6118,0.97669 -5.40177,1.51487 -0.24718,0.0638 -0.49035,0.12758 -0.73352,0.19136 -3.99851,1.03651 -8.00102,2.0491 -12.01548,3.0258 -1.63448,0.39866 -3.26895,0.78934 -4.90743,1.16805 -1.41124,0.3269 -2.83046,0.64981 -4.24968,0.95678 -1.84177,0.20331 -3.71546,0.29899 -5.56124,0.0997 -0.80528,-0.0877 -1.60656,-0.23123 -2.38793,-0.46643 -0.33087,-0.0997 -0.66177,-0.21528 -0.9807,-0.34285 -0.37872,-0.15548 -0.74946,-0.3269 -1.11224,-0.50229 -0.21129,-0.0997 -0.41859,-0.19934 -0.62589,-0.29502 -0.47441,-0.22324 -0.94482,-0.44649 -1.41524,-0.66974 -10.29726,0 -20.59451,0 -30.88778,0 -0.47441,0.22325 -0.94481,0.4465 -1.41523,0.66974 -0.20731,0.0957 -0.41461,0.19535 -0.6259,0.29502 -0.67372,0.33087 -1.37535,0.62587 -2.09692,0.84514 -0.7734,0.2352 -1.57468,0.37872 -2.37597,0.46245 -0.92489,0.0997 -1.85774,0.12358 -2.78662,0.0997 -0.92886,-0.0239 -1.85773,-0.0957 -2.78261,-0.19932 -1.42718,-0.31096 -2.85039,-0.63388 -4.27359,-0.96076 -1.62651,-0.37872 -3.25301,-0.76542 -4.87553,-1.16406 -4.01446,-0.97672 -8.02096,-1.99329 -12.02346,-3.02978 -0.24318,-0.0638 -0.48636,-0.12758 -0.72953,-0.19136 -1.79793,-0.54219 -3.60784,-1.04048 -5.42169,-1.51888 -2.03316,-0.53819 -4.07428,-1.04846 -6.12336,-1.53084 -1.94146,-0.45447 -3.88688,-0.88501 -5.83632,-1.28765 -1.9534,-0.40265 -3.91479,-0.77739 -5.88016,-1.12022 -1.55077,-0.31096 -3.10552,-0.58603 -4.66426,-0.83718 -1.62254,-0.26312 -3.24505,-0.49831 -4.87555,-0.71359 -1.79395,-0.2392 -3.59189,-0.45049 -5.38983,-0.63785 -1.55076,-0.16744 -3.10153,-0.31096 -4.65628,-0.4425 -0.30298,-0.0239 -0.60597,-0.0478 -0.91293,-0.0758 -3.74735,-0.29101 -7.50667,-0.44251 -11.26599,-0.53819 -4.86758,-0.1196 -9.73914,-0.1475 -14.6107,-0.0877 -9.26476,0.10764 -18.52949,0.51028 -27.77033,1.23982 -8.81028,0.69366 -17.59664,1.68631 -26.33913,2.95802 -4.08623,0.594 -8.16448,1.24779 -12.23075,1.9574 -4.66425,0.8292 -9.30461,1.7142 -13.933,2.66301 0,9.59164 0,19.18329 0,28.77494 2.07698,0.95277 3.99851,2.27631 5.62901,3.88688 1.88166,1.85373 3.36863,4.08621 4.58055,6.44226 1.45509,2.82247 2.5195,5.82434 3.4404,8.8621 0.60993,2.00924 1.1561,4.0304 1.66239,6.06355 0.59797,2.41585 1.14413,4.84764 1.67833,7.27547 2.04909,9.31257 4.40913,18.63314 8.04485,27.46732 1.41125,3.42844 3.01783,6.78912 4.85962,10.01422 0.86508,1.5149 1.78199,2.99788 2.75073,4.45298 0.93286,1.39929 1.91353,2.76666 2.94605,4.09418 3.11749,3.98656 6.89275,7.43492 11.03875,10.33715 4.34136,3.03377 9.08935,5.46555 14.03267,7.3751 4.93935,1.90957 10.07801,3.28494 15.29641,4.16995 2.89424,0.49035 5.81636,0.82919 8.7465,1.00859 2.88626,0.1754 5.78446,0.19932 8.67474,0.0558 2.15672,-0.15149 4.30946,-0.32688 6.4582,-0.55809 0.83319,-0.0877 1.67036,-0.19136 2.50355,-0.29901 0.7136,-0.0957 1.42719,-0.2033 2.1368,-0.31493 8.27608,-1.31955 16.42458,-3.62776 24.07079,-7.06816 7.66613,-3.44836 14.82997,-8.03289 21.14866,-13.5702 6.30671,-5.52936 11.77227,-12.00353 16.33289,-19.0358 2.2843,-3.5241 4.34136,-7.17978 6.19511,-10.94308 2.08099,-4.2377 3.90682,-8.60696 5.48151,-13.05197 0.37872,-0.94083 0.72555,-1.89362 1.06838,-2.85038 0.5063,-1.42719 0.99266,-2.86235 1.47503,-4.2975 0.57806,-1.69829 1.15211,-3.40055 1.69827,-5.10279 0.55414,-1.7222 1.08436,-3.44837 1.63448,-5.17056 0.91292,-2.87431 1.88565,-5.74463 2.31619,-8.73056 -1.00461,-2.05704 -1.774,-4.23371 -1.92949,-6.52199 -0.12358,-1.83381 0.1515,-3.74337 1.08036,-5.3021 0.83717,-1.39928 2.20458,-2.51554 3.73141,-3.14141 1.52286,-0.62191 3.20121,-0.76142 4.83569,-0.79331 1.84976,0.0119 3.69953,0.0279 5.54928,0.0438 0.10764,0 0.21129,0 0.31893,0 1.84974,-0.0119 3.69951,-0.0279 5.54927,-0.0438 1.65044,0.0279 3.35668,0.17538 4.8955,0.82122 1.49493,0.62588 2.83443,1.72219 3.66363,3.10154 0.94082,1.57069 1.21988,3.51214 1.08434,5.35791 -0.0758,1.00462 -0.27508,1.99728 -0.55811,2.97796 z m 19.33875,2.53148 c 0.0957,-0.87705 0.22724,-1.7501 0.38272,-2.61917 0.1196,-0.64981 0.25514,-1.29165 0.41458,-1.92949 0.0155,-0.0718 0.0319,-0.13954 0.0518,-0.2073 0.009,-0.0319 0.0155,-0.0678 0.0239,-0.10366 0.0119,-0.0319 0.0199,-0.0678 0.0279,-0.0997 0.009,-0.0358 0.0199,-0.0718 0.0279,-0.10365 0.009,-0.0358 0.0199,-0.0718 0.0279,-0.10365 0.009,-0.0319 0.0155,-0.0678 0.0279,-0.10366 0.0199,-0.0678 0.0358,-0.13953 0.0558,-0.20332 0.22723,-0.84913 0.48238,-1.69429 0.76542,-2.53145 0.22724,-0.65779 0.46642,-1.3076 0.73352,-1.94943 0.26711,-0.64581 0.55812,-1.27968 0.86908,-1.90557 0.32292,-0.64184 0.66973,-1.26373 1.05244,-1.8697 1.25576,-1.98529 2.9062,-3.68356 4.69218,-5.20245 0.93683,-0.79731 1.91354,-1.54676 2.9301,-2.25239 0.57806,-0.40265 1.16808,-0.78934 1.76604,-1.16408 0.64584,-0.40663 1.3036,-0.79331 1.97336,-1.16406 4.50879,-2.50355 9.38035,-4.27757 14.35159,-5.62902 2.82645,-0.76541 5.68482,-1.39529 8.55912,-1.94145 1.59861,-0.30697 3.20916,-0.58203 4.81577,-0.84116 2.10488,-0.33886 4.21775,-0.64981 6.32664,-0.94881 0.67374,-0.0917 1.34745,-0.18336 2.02116,-0.27904 7.13596,-0.94882 14.32768,-1.54279 21.52741,-1.60259 3.27693,-0.0279 6.55787,0.0558 9.82684,0.27505 1.59062,0.10764 3.18126,0.24319 4.7679,0.4146 1.43517,0.15548 2.87431,0.33886 4.30149,0.55415 3.99851,0.60197 7.93326,1.55873 11.76432,2.85037 3.6756,1.23584 7.25154,2.78262 10.62019,4.70016 3.0218,1.71819 5.87616,3.73938 8.38769,6.14326 1.01658,0.97272 1.97733,2.00923 2.85837,3.10951 0.94878,1.184 1.80589,2.44376 2.5474,3.77127 0.0518,0.0877 0.0957,0.1794 0.14751,0.2711 0.0239,0.0438 0.0478,0.0877 0.0758,0.13554 0.0239,0.0438 0.0478,0.0877 0.0718,0.13555 0.0239,0.0478 0.0478,0.0917 0.0718,0.13954 0.0239,0.0478 0.0478,0.0877 0.0718,0.13554 0.0239,0.0438 0.0478,0.0917 0.0718,0.13555 0.0478,0.0917 0.0877,0.1834 0.13555,0.27508 2.15672,4.4769 3.34074,9.32455 4.04635,14.232 0.84516,5.91204 0.99266,11.90782 0.51427,17.85976 -0.50231,6.24691 -1.69428,12.446 -3.53209,18.43779 -0.90096,2.93807 -1.95741,5.83233 -3.17729,8.6548 -1.20393,2.78661 -2.56335,5.50542 -4.07824,8.13256 -0.12756,0.21529 -0.25116,0.43054 -0.38272,0.64582 -2.48361,4.15398 -5.78446,7.78175 -9.53583,10.83147 -4.17391,3.40052 -8.89796,6.07949 -13.87317,8.13256 -5.5174,2.26836 -11.34175,3.75931 -17.2578,4.47292 -2.80254,0.33487 -5.62503,0.49832 -8.4475,0.46643 -2.65105,-0.0319 -5.29812,-0.23123 -7.92127,-0.61793 -8.07676,-1.19994 -15.92229,-3.81911 -23.17781,-7.5585 -7.06018,-3.63972 -13.57023,-8.33987 -19.28695,-13.86124 -5.80442,-5.61307 -10.79158,-12.07528 -14.65056,-19.17132 -1.83382,-3.37262 -3.4085,-6.88478 -4.68819,-10.50058 -1.35144,-3.8231 -2.36403,-7.76581 -2.98991,-11.77628 -0.0155,-0.10764 -0.0358,-0.21926 -0.0518,-0.33089 -0.009,-0.0558 -0.0155,-0.10764 -0.0239,-0.16345 -0.009,-0.0558 -0.0155,-0.11163 -0.0239,-0.16744 -0.009,-0.0558 -0.0155,-0.11163 -0.0239,-0.16744 -0.009,-0.0558 -0.0199,-0.10764 -0.0239,-0.16346 -0.009,-0.0558 -0.0155,-0.11162 -0.0239,-0.16744 -0.0155,-0.11163 -0.0319,-0.22326 -0.0478,-0.33087 -0.47041,-3.57196 -0.78933,-7.17182 -0.74149,-10.77567 0.009,-1.47103 0.0917,-2.94207 0.25513,-4.40513 z m -68.16204,9.71122 c -0.0638,0.88103 -0.14352,1.76205 -0.23522,2.64309 -0.0997,0.94481 -0.21527,1.88963 -0.33885,2.83046 -0.0155,0.11163 -0.0279,0.22324 -0.0438,0.33487 -0.009,0.0558 -0.0155,0.11162 -0.0239,0.16744 -0.009,0.0558 -0.0155,0.11163 -0.0239,0.16744 -0.009,0.0558 -0.0155,0.10765 -0.0239,0.16745 -0.009,0.0558 -0.0155,0.11162 -0.0239,0.16744 -0.009,0.0558 -0.0155,0.10764 -0.0239,0.16744 -0.0155,0.11163 -0.0319,0.22323 -0.0518,0.33485 -1.21988,7.80568 -3.9108,15.34027 -7.68606,22.27288 -3.85898,7.08808 -8.84217,13.5423 -14.64261,19.15539 -5.71273,5.51738 -12.2108,10.21353 -19.267,13.84928 -3.92677,2.02515 -8.02493,3.72342 -12.23871,5.04297 -3.57594,1.12022 -7.23958,1.96936 -10.94707,2.52348 -5.41773,0.80131 -10.9351,0.80529 -16.37275,0.1515 -5.92004,-0.70961 -11.74439,-2.20057 -17.2618,-4.47292 -4.97919,-2.05306 -9.70724,-4.73601 -13.88115,-8.13255 -1.85773,-1.5149 -3.60784,-3.16932 -5.20245,-4.95929 -1.62254,-1.82184 -3.08161,-3.78322 -4.33737,-5.88014 -0.12758,-0.21927 -0.25116,-0.43056 -0.37874,-0.64584 -2.81051,-4.85959 -5.06689,-10.02618 -6.80504,-15.36416 -1.94143,-5.95989 -3.23308,-12.12708 -3.84302,-18.36604 -0.60198,-6.13132 -0.54617,-12.32641 0.25114,-18.4378 0.37873,-2.89424 0.92488,-5.76854 1.7182,-8.57905 0.63388,-2.24843 1.4232,-4.45299 2.44776,-6.55389 0.0438,-0.0877 0.0877,-0.1794 0.13555,-0.2711 0.0199,-0.0438 0.0438,-0.0877 0.0678,-0.13555 0.0199,-0.0438 0.0438,-0.0877 0.0678,-0.13554 0.0239,-0.0478 0.0478,-0.0877 0.0678,-0.13156 0.0239,-0.0438 0.0478,-0.0877 0.0718,-0.13555 0.0239,-0.0438 0.0478,-0.0877 0.0718,-0.13156 0.0478,-0.0877 0.0957,-0.17542 0.14352,-0.26312 1.41921,-2.56735 3.28493,-4.86758 5.39779,-6.89276 2.50754,-2.40787 5.36589,-4.42904 8.3877,-6.15123 3.37263,-1.92153 6.94856,-3.46831 10.62816,-4.70813 1.94543,-0.65777 3.92276,-1.22387 5.92,-1.70625 1.93349,-0.46642 3.89089,-0.84913 5.85626,-1.14812 6.2549,-0.94082 12.58555,-1.29962 18.90422,-1.2438 3.46831,0.0279 6.93262,0.17939 10.38896,0.43853 1.7222,0.12757 3.44437,0.28302 5.16258,0.45844 1.99727,0.20729 3.99053,0.44251 5.97984,0.70961 0.67373,0.0917 1.34744,0.18339 2.02118,0.27905 6.61767,0.93684 13.2473,1.98132 19.70153,3.73939 2.79857,0.75744 5.56523,1.65442 8.25216,2.73876 1.14016,0.45845 2.26834,0.95278 3.37662,1.48698 0.92088,0.44251 1.82583,0.90894 2.71882,1.40327 2.35206,1.31556 4.60448,2.82646 6.66153,4.57656 0.94082,0.80129 1.83781,1.65043 2.66301,2.56335 0.39468,0.43454 0.7734,0.889 1.12819,1.35543 0.31893,0.41461 0.61793,0.84116 0.89698,1.28765 0.37871,0.60198 0.72555,1.22786 1.04847,1.86173 0.31095,0.62191 0.59796,1.25576 0.86508,1.90159 0.26709,0.64581 0.51027,1.29563 0.73751,1.9534 0.28703,0.83319 0.54218,1.68232 0.7694,2.53544 0.0155,0.0718 0.0358,0.13954 0.0558,0.20731 0.009,0.0358 0.0155,0.0718 0.0279,0.10365 0.009,0.0358 0.0155,0.0678 0.0239,0.0997 0.009,0.0358 0.0155,0.0718 0.0279,0.10365 0.009,0.0319 0.0155,0.0678 0.0239,0.10366 0.009,0.0358 0.0155,0.0678 0.0279,0.10365 0.0155,0.0718 0.0319,0.13954 0.0518,0.2073 0.7136,2.93011 1.01656,5.94394 1.06041,8.95778 0.0358,1.76204 -0.0279,3.52809 -0.15548,5.29414 z"
     id="path4"
     style="fill:#2e3436;stroke:#2e3436;stroke-width:1.32890368" />
</svg>
