<?xml version="1.0" encoding="UTF-8" standalone="no"?>
<!-- Created with Inkscape (http://www.inkscape.org/) -->

<svg
   id="svg2"
   version="1.1"
   inkscape:version="1.2.2 (b0a84865, 2022-12-01)"
   xml:space="preserve"
   width="1062.9875"
   height="1062.9875"
   viewBox="0 0 1062.9875 1062.9875"
   sodipodi:docname="code.svg"
   inkscape:export-filename="code.png"
   inkscape:export-xdpi="96"
   inkscape:export-ydpi="96"
   xmlns:inkscape="http://www.inkscape.org/namespaces/inkscape"
   xmlns:sodipodi="http://sodipodi.sourceforge.net/DTD/sodipodi-0.dtd"
   xmlns="http://www.w3.org/2000/svg"
   xmlns:svg="http://www.w3.org/2000/svg"
   xmlns:rdf="http://www.w3.org/1999/02/22-rdf-syntax-ns#"
   xmlns:cc="http://creativecommons.org/ns#"
   xmlns:dc="http://purl.org/dc/elements/1.1/"><metadata
     id="metadata8"><rdf:RDF><cc:Work
         rdf:about=""><dc:format>image/svg+xml</dc:format><dc:type
           rdf:resource="http://purl.org/dc/dcmitype/StillImage" /><dc:title /></cc:Work></rdf:RDF></metadata><defs
     id="defs6"><inkscape:path-effect
       effect="spiro"
       id="path-effect4293"
       is_visible="true" /><inkscape:path-effect
       effect="spiro"
       id="path-effect4289"
       is_visible="true" /><inkscape:path-effect
       effect="spiro"
       id="path-effect4285"
       is_visible="true" /><inkscape:path-effect
       effect="spiro"
       id="path-effect4281"
       is_visible="true" /><inkscape:path-effect
       effect="spiro"
       id="path-effect4277"
       is_visible="true" /><inkscape:path-effect
       effect="spiro"
       id="path-effect4273"
       is_visible="true" /><inkscape:path-effect
       effect="spiro"
       id="path-effect4269"
       is_visible="true" /><inkscape:path-effect
       effect="spiro"
       id="path-effect4265"
       is_visible="true" /><inkscape:path-effect
       effect="spiro"
       id="path-effect4259"
       is_visible="true" /><inkscape:path-effect
       effect="spiro"
       id="path-effect4255"
       is_visible="true" /><inkscape:path-effect
       effect="spiro"
       id="path-effect4251"
       is_visible="true" /><inkscape:path-effect
       effect="spiro"
       id="path-effect4247"
       is_visible="true" /><inkscape:path-effect
       effect="spiro"
       id="path-effect4197"
       is_visible="true" /><inkscape:path-effect
       effect="spiro"
       id="path-effect3356"
       is_visible="true" /><inkscape:path-effect
       effect="spiro"
       id="path-effect3352"
       is_visible="true" /><inkscape:path-effect
       effect="spiro"
       id="path-effect3348"
       is_visible="true" /><clipPath
       clipPathUnits="userSpaceOnUse"
       id="clipPath3340"><rect
         style="opacity:1;fill:#000000;fill-opacity:1;stroke:#000000;stroke-width:2;stroke-linecap:butt;stroke-linejoin:round;stroke-miterlimit:4;stroke-dasharray:none;stroke-dashoffset:0;stroke-opacity:1"
         id="rect3342"
         width="776.01971"
         height="714.41003"
         x="60.298832"
         y="16.397089"
         rx="2.2398601" /></clipPath><inkscape:path-effect
       effect="spiro"
       id="path-effect3356-3"
       is_visible="true" /></defs><sodipodi:namedview
     pagecolor="#ffffff"
     bordercolor="#666666"
     borderopacity="1"
     objecttolerance="10"
     gridtolerance="10"
     guidetolerance="10"
     inkscape:pageopacity="0"
     inkscape:pageshadow="2"
     inkscape:window-width="1309"
     inkscape:window-height="456"
     id="namedview4"
     showgrid="false"
     inkscape:zoom="0.22467353"
     inkscape:cx="801.16246"
     inkscape:cy="551.91192"
     inkscape:window-x="69"
     inkscape:window-y="295"
     inkscape:window-maximized="0"
     inkscape:current-layer="g12"
     showguides="false"
     inkscape:showpageshadow="2"
     inkscape:pagecheckerboard="0"
     inkscape:deskcolor="#d1d1d1" /><g
     id="g10"
     inkscape:groupmode="layer"
     inkscape:label="ink_ext_XXXXXX"
     transform="matrix(1.25,0,0,-1.25,0,1062.9875)"><g
       id="g12"
       transform="scale(0.1,0.1)"><path
         style="fill:#241f31;stroke-width:8.2035"
         d="m 3139.1119,1911.1043 c -78.1216,24.8293 -141.5506,79.7719 -175.3833,151.9175 l -21.5005,45.8479 v 988.5209 988.5209 l 21.7226,46.3331 c 27.6128,58.8969 73.5507,104.8345 135.0135,135.0134 l 48.3512,23.7408 h 1308.4571 1308.4571 l 46.4289,-22.8003 c 61.0363,-29.9738 110.0671,-78.6413 136.908,-135.8931 l 21.7504,-46.3939 v -988.5209 -988.5209 l -21.7504,-46.394 c -27.0319,-57.6589 -79.2083,-109.5224 -138.2177,-137.3873 l -45.1192,-21.306 -1296.1518,-1.5535 c -1029.2913,-1.2331 -1302.9079,0.5947 -1328.9659,8.8757 z m 2629.0711,127.9601 c 35.8563,18.2925 67.0587,55.9011 81.0505,97.6908 6.722,20.0777 9.3363,249.4143 9.3363,819.0758 v 791.19 l -867.5194,-5.9902 c -477.1357,-3.2945 -1107.4715,-8.2589 -1400.7464,-11.0317 l -533.227,-5.0414 v -791.637 c 0,-784.4785 0.1538,-791.9338 16.9784,-824.451 9.8041,-18.9481 33.5945,-44.08 56.3006,-59.4753 l 39.3223,-26.6613 h 1283.2464 c 1265.0737,0 1283.6995,0.2307 1315.2583,16.3313 z m -1558.5153,404.4584 c -32.6454,16.5128 -43.2241,46.7692 -29.6485,84.8008 19.4143,54.3879 333.4732,777.2351 346.1521,796.7139 17.6003,27.0395 62.4311,25.3719 84.8722,-3.1571 9.3513,-11.8883 17.0023,-28.2232 17.0023,-36.2994 0,-8.0766 -42.9279,-113.7114 -95.3953,-234.7443 -52.4675,-121.0326 -103.8207,-240.3633 -114.118,-265.1789 -67.9576,-163.7698 -146.1786,-333.8068 -157.5561,-342.4958 -16.7383,-12.783 -25.4433,-12.7218 -51.3087,0.3615 z m -236.8412,303.1685 c -131.9266,143.4835 -132.0631,144.0222 -57.2158,225.803 124.8651,136.4315 173.3462,182.3207 192.6179,182.3207 36.1938,0 71.5156,-55.4642 54.5869,-85.7146 -4.0235,-7.1893 -41.7692,-50.1683 -83.8794,-95.5086 l -76.5646,-82.4364 31.7726,-34.2909 c 17.4747,-18.8601 52.951,-56.448 78.8359,-83.5292 55.6764,-58.2489 65.3395,-88.0215 39.3091,-121.1137 -12.8772,-16.3707 -24.9828,-22.4301 -44.8113,-22.4301 -24.4547,0 -37.8994,11.6723 -134.6513,116.8998 z m 770.6637,-95.2845 c -32.2449,40.9921 -25.4258,54.997 81.4395,167.2564 2.256,2.3687 18.4665,19.6746 36.0233,38.4557 l 31.9214,34.1471 -79.3966,84.6046 c -43.6683,46.5324 -81.5738,93.1823 -84.2345,103.6671 -10.8776,42.8624 34.9309,86.4674 74.1592,70.592 10.3557,-4.1908 65.5805,-58.2931 122.7217,-120.2273 89.4797,-96.9854 103.8598,-116.3326 103.6547,-139.4593 -0.2051,-22.8686 -16.1541,-44.1944 -107.5215,-143.7518 -96.7195,-105.3896 -109.9653,-116.8998 -134.5238,-116.8998 -19.6579,0 -31.9741,6.0171 -44.2434,21.6153 z M 4390.1446,3856.205 c 489.5434,2.3124 1020.2068,6.508 1179.2521,9.3232 l 289.1731,5.1185 -0.051,74.8184 c -0.077,119.7963 -24.5095,176.667 -90.341,210.2517 -31.5534,16.1 -50.1791,16.3313 -1315.2528,16.3313 H 3169.6783 l -39.3223,-26.6613 c -58.8287,-39.887 -72.4964,-73.0185 -76.138,-184.5601 -1.6567,-50.7488 -0.731,-98.2163 2.0579,-105.4834 4.5526,-11.8643 27.4496,-12.709 224.4299,-8.2775 120.6478,2.7142 619.8953,6.8268 1109.4388,9.1392 z m 683.1429,106.017 c -31.867,26.8143 -39.861,59.4202 -23.9215,97.569 14.4526,34.5893 34.3359,46.6292 77.0068,46.6292 54.7458,0 92.7661,-51.4923 75.8551,-102.7333 -11.8522,-35.9122 -33.4687,-53.69 -71.4823,-58.789 -26.0615,-3.4955 -36.4309,-0.3691 -57.4581,17.3241 z m 296.0013,-11.7373 c -55.3557,22.3387 -59.2686,122.438 -5.7399,146.8274 53.4173,24.3384 112.7122,-1.294 122.3955,-52.9103 13.1047,-69.8543 -50.1301,-120.7635 -116.6556,-93.9171 z m 275.0718,4.168 c -45.7332,24.8553 -51.4606,102.3728 -9.9757,135.0051 52.247,41.0973 133.9464,3.8428 133.9464,-61.0791 0,-38.451 -11.0525,-58.4278 -40.853,-73.8382 -29.54,-15.2758 -55.123,-15.3028 -83.1177,-0.086 z"
         id="path323" /></g></g></svg>
