<svg xmlns="http://www.w3.org/2000/svg" xmlns:xlink="http://www.w3.org/1999/xlink" version="1.1" x="0px" y="0px" viewBox="0 0 105 131.25" enable-background="new 0 0 105 105" xml:space="preserve"><path d="M55.711,46.186c-0.086,0.301-0.204,0.598-0.345,0.875c0.114,0.751,0.35,1.475,0.582,2.199  c0.274,0.855,0.542,1.711,0.831,2.561c0.124,0.368,0.253,0.734,0.381,1.1c0.083,0.235,0.166,0.469,0.261,0.7  c0.749,2.107,1.712,4.144,2.93,6.02c1.146,1.766,2.518,3.391,4.1,4.777c1.585,1.39,3.383,2.539,5.306,3.403  c0.964,0.434,1.96,0.795,2.975,1.09c1.005,0.292,2.028,0.52,3.061,0.683c0.209,0.033,0.417,0.063,0.626,0.091  c0.213,0.027,0.425,0.052,0.639,0.074c0.505,0.053,1.012,0.093,1.519,0.129c1.461,0.072,2.928-0.022,4.37-0.267  c1.31-0.222,2.598-0.567,3.837-1.045c1.24-0.479,2.431-1.09,3.52-1.851c0.545-0.381,1.064-0.799,1.548-1.256  c0.439-0.414,0.849-0.859,1.221-1.335c1.102-1.416,1.968-3.001,2.65-4.657c0.405-0.985,0.746-1.995,1.046-3.018  c0.188-0.639,0.36-1.281,0.521-1.927c0.16-0.646,0.309-1.296,0.451-1.947c0.248-1.128,0.507-2.255,0.843-3.362  c0.231-0.762,0.5-1.515,0.866-2.222c0.303-0.584,0.673-1.138,1.141-1.6c0.188-0.185,0.393-0.356,0.607-0.509  c0.254-0.18,0.522-0.335,0.806-0.466c0-2.406,0-4.812,0-7.218c-4.346-0.896-8.744-1.549-13.167-1.898  c-2.317-0.183-4.642-0.282-6.966-0.31c-1.222-0.015-2.443-0.009-3.665,0.021c-0.942,0.023-1.885,0.062-2.825,0.135  c-0.076,0.006-0.152,0.013-0.229,0.019c-0.39,0.033-0.778,0.07-1.167,0.111c-0.451,0.048-0.902,0.101-1.352,0.16  c-0.409,0.054-0.817,0.114-1.225,0.18c-0.392,0.063-0.782,0.132-1.17,0.21c-0.494,0.086-0.985,0.18-1.477,0.281  c-0.489,0.101-0.978,0.209-1.464,0.323c-0.515,0.121-1.027,0.249-1.539,0.384c-0.453,0.12-0.906,0.245-1.355,0.38  c-0.062,0.016-0.123,0.032-0.184,0.048c-1.003,0.26-2.007,0.514-3.014,0.759c-0.41,0.1-0.82,0.198-1.231,0.293  c-0.354,0.082-0.71,0.163-1.066,0.24c-0.462,0.051-0.932,0.075-1.395,0.025c-0.202-0.022-0.403-0.058-0.599-0.117  c-0.083-0.025-0.166-0.054-0.246-0.086c-0.095-0.039-0.188-0.082-0.279-0.126c-0.053-0.025-0.105-0.05-0.157-0.074  c-0.119-0.056-0.237-0.112-0.355-0.168c-2.583,0-5.166,0-7.748,0c-0.119,0.056-0.237,0.112-0.355,0.168  c-0.052,0.024-0.104,0.049-0.157,0.074c-0.169,0.083-0.345,0.157-0.526,0.212c-0.194,0.059-0.395,0.095-0.596,0.116  c-0.232,0.025-0.466,0.031-0.699,0.025s-0.466-0.024-0.698-0.05c-0.358-0.078-0.715-0.159-1.072-0.241  c-0.408-0.095-0.816-0.192-1.223-0.292c-1.007-0.245-2.012-0.5-3.016-0.76c-0.061-0.016-0.122-0.032-0.183-0.048  c-0.451-0.136-0.905-0.261-1.36-0.381c-0.51-0.135-1.022-0.263-1.536-0.384c-0.487-0.114-0.975-0.222-1.464-0.323  c-0.49-0.101-0.982-0.195-1.475-0.281c-0.389-0.078-0.779-0.147-1.17-0.21c-0.407-0.066-0.814-0.125-1.223-0.179  c-0.45-0.06-0.901-0.113-1.352-0.16c-0.389-0.042-0.778-0.078-1.168-0.111c-0.076-0.006-0.152-0.012-0.229-0.019  c-0.94-0.073-1.883-0.111-2.826-0.135c-1.221-0.03-2.443-0.037-3.665-0.022c-2.324,0.027-4.648,0.128-6.966,0.311  c-2.21,0.174-4.414,0.423-6.607,0.742c-1.025,0.149-2.048,0.313-3.068,0.491C4.325,36.749,3.161,36.971,2,37.209  c0,2.406,0,4.812,0,7.218c0.521,0.239,1.003,0.571,1.412,0.975c0.472,0.465,0.845,1.025,1.149,1.616  c0.365,0.708,0.632,1.461,0.863,2.223c0.153,0.504,0.29,1.011,0.417,1.521c0.15,0.606,0.287,1.216,0.421,1.825  c0.514,2.336,1.106,4.674,2.018,6.89c0.354,0.86,0.757,1.703,1.219,2.512c0.217,0.38,0.447,0.752,0.69,1.117  c0.234,0.351,0.48,0.694,0.739,1.027c0.782,1,1.729,1.865,2.769,2.593c1.089,0.761,2.28,1.371,3.52,1.85  c1.239,0.479,2.528,0.824,3.837,1.046c0.726,0.123,1.459,0.208,2.194,0.253c0.724,0.044,1.451,0.05,2.176,0.014  c0.541-0.038,1.081-0.082,1.62-0.14c0.209-0.022,0.419-0.048,0.628-0.075c0.179-0.024,0.358-0.051,0.536-0.079  c2.076-0.331,4.12-0.91,6.038-1.773c1.923-0.865,3.72-2.015,5.305-3.404c1.582-1.387,2.953-3.011,4.097-4.775  c0.573-0.884,1.089-1.801,1.554-2.745c0.522-1.063,0.98-2.159,1.375-3.274c0.095-0.236,0.182-0.475,0.268-0.715  c0.127-0.358,0.249-0.718,0.37-1.078c0.145-0.426,0.289-0.853,0.426-1.28c0.139-0.432,0.272-0.865,0.41-1.297  c0.229-0.721,0.473-1.441,0.581-2.19c-0.252-0.516-0.445-1.062-0.484-1.636c-0.031-0.46,0.038-0.939,0.271-1.33  c0.21-0.351,0.553-0.631,0.936-0.788c0.382-0.156,0.803-0.191,1.213-0.199c0.464,0.003,0.928,0.007,1.392,0.011  c0.027,0,0.053,0,0.08,0c0.464-0.003,0.928-0.007,1.392-0.011c0.414,0.007,0.842,0.044,1.228,0.206  c0.375,0.157,0.711,0.432,0.919,0.778c0.236,0.394,0.306,0.881,0.272,1.344C55.832,45.691,55.782,45.94,55.711,46.186z   M60.562,46.821c0.024-0.22,0.057-0.439,0.096-0.657c0.03-0.163,0.064-0.324,0.104-0.484c0.004-0.018,0.008-0.035,0.013-0.052  c0.002-0.008,0.004-0.017,0.006-0.026c0.003-0.008,0.005-0.017,0.007-0.025c0.002-0.009,0.005-0.018,0.007-0.026  c0.002-0.009,0.005-0.018,0.007-0.026c0.002-0.008,0.004-0.017,0.007-0.026c0.005-0.017,0.009-0.035,0.014-0.051  c0.057-0.213,0.121-0.425,0.192-0.635c0.057-0.165,0.117-0.328,0.184-0.489c0.067-0.162,0.14-0.321,0.218-0.478  c0.081-0.161,0.168-0.317,0.264-0.469c0.315-0.498,0.729-0.924,1.177-1.305c0.235-0.2,0.48-0.388,0.735-0.565  c0.145-0.101,0.293-0.198,0.443-0.292c0.162-0.102,0.327-0.199,0.495-0.292c1.131-0.628,2.353-1.073,3.6-1.412  c0.709-0.192,1.426-0.35,2.147-0.487c0.401-0.077,0.805-0.146,1.208-0.211c0.528-0.085,1.058-0.163,1.587-0.238  c0.169-0.023,0.338-0.046,0.507-0.07c1.79-0.238,3.594-0.387,5.4-0.402c0.822-0.007,1.645,0.014,2.465,0.069  c0.399,0.027,0.798,0.061,1.196,0.104c0.36,0.039,0.721,0.085,1.079,0.139c1.003,0.151,1.99,0.391,2.951,0.715  c0.922,0.31,1.819,0.698,2.664,1.179c0.758,0.431,1.474,0.938,2.104,1.541c0.255,0.244,0.496,0.504,0.717,0.78  c0.238,0.297,0.453,0.613,0.639,0.946c0.013,0.022,0.024,0.045,0.037,0.068c0.006,0.011,0.012,0.022,0.019,0.034  c0.006,0.011,0.012,0.022,0.018,0.034c0.006,0.012,0.012,0.023,0.018,0.035s0.012,0.022,0.018,0.034  c0.006,0.011,0.012,0.023,0.018,0.034c0.012,0.023,0.022,0.046,0.034,0.069c0.541,1.123,0.838,2.339,1.015,3.57  c0.212,1.483,0.249,2.987,0.129,4.48c-0.126,1.567-0.425,3.122-0.886,4.625c-0.226,0.737-0.491,1.463-0.797,2.171  c-0.302,0.699-0.643,1.381-1.023,2.04c-0.032,0.054-0.063,0.108-0.096,0.162c-0.623,1.042-1.451,1.952-2.392,2.717  c-1.047,0.853-2.232,1.525-3.48,2.04c-1.384,0.569-2.845,0.943-4.329,1.122c-0.703,0.084-1.411,0.125-2.119,0.117  c-0.665-0.008-1.329-0.058-1.987-0.155c-2.026-0.301-3.994-0.958-5.814-1.896c-1.771-0.913-3.404-2.092-4.838-3.477  c-1.456-1.408-2.707-3.029-3.675-4.809c-0.46-0.846-0.855-1.727-1.176-2.634c-0.339-0.959-0.593-1.948-0.75-2.954  c-0.004-0.027-0.009-0.055-0.013-0.083c-0.002-0.014-0.004-0.027-0.006-0.041c-0.002-0.014-0.004-0.028-0.006-0.042  c-0.002-0.014-0.004-0.028-0.006-0.042c-0.002-0.014-0.005-0.027-0.006-0.041c-0.002-0.014-0.004-0.028-0.006-0.042  c-0.004-0.028-0.008-0.056-0.012-0.083c-0.118-0.896-0.198-1.799-0.186-2.703C60.5,47.557,60.521,47.188,60.562,46.821z   M43.464,49.257c-0.016,0.221-0.036,0.442-0.059,0.663c-0.025,0.237-0.054,0.474-0.085,0.71c-0.004,0.028-0.007,0.056-0.011,0.084  c-0.002,0.014-0.004,0.028-0.006,0.042c-0.002,0.014-0.004,0.028-0.006,0.042c-0.002,0.014-0.004,0.027-0.006,0.042  c-0.002,0.014-0.004,0.028-0.006,0.042c-0.002,0.014-0.004,0.027-0.006,0.042c-0.004,0.028-0.008,0.056-0.013,0.084  c-0.306,1.958-0.981,3.848-1.928,5.587c-0.968,1.778-2.218,3.397-3.673,4.805c-1.433,1.384-3.063,2.562-4.833,3.474  c-0.985,0.508-2.013,0.934-3.07,1.265c-0.897,0.281-1.816,0.494-2.746,0.633c-1.359,0.201-2.743,0.202-4.107,0.038  c-1.485-0.178-2.946-0.552-4.33-1.122c-1.249-0.515-2.435-1.188-3.482-2.04c-0.466-0.38-0.905-0.795-1.305-1.244  c-0.407-0.457-0.773-0.949-1.088-1.475c-0.032-0.055-0.063-0.108-0.095-0.162c-0.705-1.219-1.271-2.515-1.707-3.854  c-0.487-1.495-0.811-3.042-0.964-4.607c-0.151-1.538-0.137-3.092,0.063-4.625c0.095-0.726,0.232-1.447,0.431-2.152  c0.159-0.564,0.357-1.117,0.614-1.644c0.011-0.022,0.022-0.045,0.034-0.068c0.005-0.011,0.011-0.022,0.017-0.034  c0.005-0.011,0.011-0.022,0.017-0.034s0.012-0.022,0.017-0.033c0.006-0.011,0.012-0.022,0.018-0.034  c0.006-0.011,0.012-0.022,0.018-0.033c0.012-0.022,0.024-0.044,0.036-0.066c0.356-0.644,0.824-1.221,1.354-1.729  c0.629-0.604,1.346-1.111,2.104-1.543c0.846-0.482,1.743-0.87,2.666-1.181c0.488-0.165,0.984-0.307,1.485-0.428  c0.485-0.117,0.976-0.213,1.469-0.288c1.569-0.236,3.157-0.326,4.742-0.312c0.87,0.007,1.739,0.045,2.606,0.11  c0.432,0.032,0.864,0.071,1.295,0.115c0.501,0.052,1.001,0.111,1.5,0.178c0.169,0.023,0.338,0.046,0.507,0.07  c1.66,0.235,3.323,0.497,4.942,0.938c0.702,0.19,1.396,0.415,2.07,0.687c0.286,0.115,0.569,0.239,0.847,0.373  c0.231,0.111,0.458,0.228,0.682,0.352c0.59,0.33,1.155,0.709,1.671,1.148c0.236,0.201,0.461,0.414,0.668,0.643  c0.099,0.109,0.194,0.223,0.283,0.34c0.08,0.104,0.155,0.211,0.225,0.323c0.095,0.151,0.182,0.308,0.263,0.467  c0.078,0.156,0.15,0.315,0.217,0.477c0.067,0.162,0.128,0.325,0.185,0.49c0.072,0.209,0.136,0.422,0.193,0.636  c0.004,0.018,0.009,0.035,0.014,0.052c0.002,0.009,0.004,0.018,0.007,0.026c0.002,0.009,0.004,0.017,0.006,0.025  c0.002,0.009,0.004,0.018,0.007,0.026c0.002,0.008,0.004,0.017,0.006,0.026c0.002,0.009,0.004,0.017,0.007,0.026  c0.004,0.018,0.008,0.035,0.013,0.052c0.179,0.735,0.255,1.491,0.266,2.247C43.512,48.371,43.496,48.814,43.464,49.257z"/><text x="0" y="120" fill="#000000" font-size="5px" font-weight="bold" font-family="'Helvetica Neue', Helvetica, Arial-Unicode, Arial, Sans-serif">Created by Achille Bianchi</text><text x="0" y="125" fill="#000000" font-size="5px" font-weight="bold" font-family="'Helvetica Neue', Helvetica, Arial-Unicode, Arial, Sans-serif">from the Noun Project</text></svg>