<?xml version="1.0" encoding="UTF-8" standalone="no"?>
<!-- Created with Inkscape (http://www.inkscape.org/) -->

<svg
   xmlns:dc="http://purl.org/dc/elements/1.1/"
   xmlns:cc="http://creativecommons.org/ns#"
   xmlns:rdf="http://www.w3.org/1999/02/22-rdf-syntax-ns#"
   xmlns:svg="http://www.w3.org/2000/svg"
   xmlns="http://www.w3.org/2000/svg"
   xmlns:xlink="http://www.w3.org/1999/xlink"
   xmlns:sodipodi="http://sodipodi.sourceforge.net/DTD/sodipodi-0.dtd"
   xmlns:inkscape="http://www.inkscape.org/namespaces/inkscape"
   id="svg2"
   version="1.1"
   inkscape:version="0.91 r13725"
   width="898.20001"
   height="898.20001"
   viewBox="0 0 898.20001 898.20001"
   sodipodi:docname="projects.svg">
  <metadata
     id="metadata8">
    <rdf:RDF>
      <cc:Work
         rdf:about="">
        <dc:format>image/svg+xml</dc:format>
        <dc:type
           rdf:resource="http://purl.org/dc/dcmitype/StillImage" />
        <dc:title />
      </cc:Work>
    </rdf:RDF>
  </metadata>
  <defs
     id="defs6">
    <inkscape:path-effect
       effect="spiro"
       id="path-effect4179"
       is_visible="true" />
    <inkscape:path-effect
       effect="spiro"
       id="path-effect4175"
       is_visible="true" />
    <inkscape:path-effect
       effect="spiro"
       id="path-effect4171"
       is_visible="true" />
    <inkscape:path-effect
       effect="spiro"
       id="path-effect4167"
       is_visible="true" />
    <inkscape:path-effect
       effect="spiro"
       id="path-effect4163"
       is_visible="true" />
    <inkscape:path-effect
       effect="spiro"
       id="path-effect4159"
       is_visible="true" />
    <inkscape:path-effect
       effect="spiro"
       id="path-effect4155"
       is_visible="true" />
    <clipPath
       id="clip1">
      <path
         inkscape:connector-curvature="0"
         d="m 59.039062,121 267.718748,0 0,134 -267.718748,0 z m 0,0"
         id="path108" />
    </clipPath>
    <clipPath
       id="clip2">
      <path
         inkscape:connector-curvature="0"
         d="m 59.039062,99 267.718748,0 0,168.55859 -267.718748,0 z m 0,0"
         id="path111" />
    </clipPath>
  </defs>
  <sodipodi:namedview
     pagecolor="#ffffff"
     bordercolor="#666666"
     borderopacity="1"
     objecttolerance="10"
     gridtolerance="10"
     guidetolerance="10"
     inkscape:pageopacity="0"
     inkscape:pageshadow="2"
     inkscape:window-width="1301"
     inkscape:window-height="744"
     id="namedview4"
     showgrid="false"
     inkscape:zoom="0.26274772"
     inkscape:cx="-385.01471"
     inkscape:cy="912.65514"
     inkscape:window-x="65"
     inkscape:window-y="24"
     inkscape:window-maximized="1"
     inkscape:current-layer="svg2" />
  <g
     id="g226"
     style="fill:#000000;fill-opacity:1"
     transform="matrix(1.25,0,0,1.25,106.71314,74.847887)">
    <use
       height="100%"
       width="100%"
       id="use228"
       y="292.25684"
       x="78.460938"
       xlink:href="#glyph0-1" />
    <use
       height="100%"
       width="100%"
       id="use230"
       y="292.25684"
       x="82.457031"
       xlink:href="#glyph0-2" />
  </g>
  <g
     id="g232"
     style="fill:#000000;fill-opacity:1"
     transform="matrix(1.25,0,0,1.25,106.71314,74.847887)">
    <use
       height="100%"
       width="100%"
       id="use234"
       y="292.25684"
       x="147.14844"
       xlink:href="#glyph0-3" />
  </g>
  <g
     id="g236"
     style="fill:#000000;fill-opacity:1"
     transform="matrix(1.25,0,0,1.25,106.71314,74.847887)">
    <use
       height="100%"
       width="100%"
       id="use238"
       y="292.25684"
       x="213.83594"
       xlink:href="#glyph0-2" />
  </g>
  <g
     id="g240"
     style="fill:#000000;fill-opacity:1"
     transform="matrix(1.25,0,0,1.25,106.71314,74.847887)">
    <use
       height="100%"
       width="100%"
       id="use242"
       y="292.25684"
       x="280.51953"
       xlink:href="#glyph0-4" />
  </g>
  <g
     id="g254"
     style="fill:#000000;fill-opacity:1"
     transform="matrix(1.25,0,0,1.25,106.71314,74.847887)">
    <use
       height="100%"
       width="100%"
       id="use256"
       y="264.96875"
       x="41.538086"
       xlink:href="#glyph1-1" />
  </g>
  <g
     id="g258"
     style="fill:#000000;fill-opacity:1"
     transform="matrix(1.25,0,0,1.25,106.71314,74.847887)">
    <use
       height="100%"
       width="100%"
       id="use260"
       y="213.03906"
       x="41.538086"
       xlink:href="#glyph1-2" />
  </g>
  <g
     id="g262"
     style="fill:#000000;fill-opacity:1"
     transform="matrix(1.25,0,0,1.25,106.71314,74.847887)">
    <use
       height="100%"
       width="100%"
       id="use264"
       y="164.60547"
       x="41.538086"
       xlink:href="#glyph1-3" />
    <use
       height="100%"
       width="100%"
       id="use266"
       y="157.93359"
       x="41.538086"
       xlink:href="#glyph1-4" />
  </g>
  <g
     id="g268"
     style="fill:#000000;fill-opacity:1"
     transform="matrix(1.25,0,0,1.25,106.71314,74.847887)">
    <use
       height="100%"
       width="100%"
       id="use270"
       y="112.67578"
       x="41.538086"
       xlink:href="#glyph1-3" />
    <use
       height="100%"
       width="100%"
       id="use272"
       y="106.00391"
       x="41.538086"
       xlink:href="#glyph1-5" />
  </g>
  <g
     id="g276"
     style="fill:#000000;fill-opacity:1"
     transform="matrix(1.25,0,0,1.25,106.71314,74.847887)">
    <use
       height="100%"
       width="100%"
       id="use278"
       y="321.05762"
       x="130.39844"
       xlink:href="#glyph0-5" />
    <use
       height="100%"
       width="100%"
       id="use280"
       y="321.05762"
       x="138.2832"
       xlink:href="#glyph0-6" />
    <use
       height="100%"
       width="100%"
       id="use282"
       y="321.05762"
       x="144.95508"
       xlink:href="#glyph0-7" />
    <use
       height="100%"
       width="100%"
       id="use284"
       y="321.05762"
       x="151.62695"
       xlink:href="#glyph0-8" />
    <use
       height="100%"
       width="100%"
       id="use286"
       y="321.05762"
       x="154.96289"
       xlink:href="#glyph0-9" />
    <use
       height="100%"
       width="100%"
       id="use288"
       y="321.05762"
       x="164.95898"
       xlink:href="#glyph0-10" />
    <use
       height="100%"
       width="100%"
       id="use290"
       y="321.05762"
       x="171.63086"
       xlink:href="#glyph0-11" />
    <use
       height="100%"
       width="100%"
       id="use292"
       y="321.05762"
       x="175.62695"
       xlink:href="#glyph0-11" />
    <use
       height="100%"
       width="100%"
       id="use294"
       y="321.05762"
       x="179.62305"
       xlink:href="#glyph0-12" />
    <use
       height="100%"
       width="100%"
       id="use296"
       y="321.05762"
       x="182.28711"
       xlink:href="#glyph0-10" />
    <use
       height="100%"
       width="100%"
       id="use298"
       y="321.05762"
       x="188.95898"
       xlink:href="#glyph0-6" />
    <use
       height="100%"
       width="100%"
       id="use300"
       y="321.05762"
       x="195.63086"
       xlink:href="#glyph0-7" />
    <use
       height="100%"
       width="100%"
       id="use302"
       y="321.05762"
       x="202.30273"
       xlink:href="#glyph0-8" />
    <use
       height="100%"
       width="100%"
       id="use304"
       y="321.05762"
       x="205.63867"
       xlink:href="#glyph0-11" />
    <use
       height="100%"
       width="100%"
       id="use306"
       y="321.05762"
       x="209.51562"
       xlink:href="#glyph0-7" />
    <use
       height="100%"
       width="100%"
       id="use308"
       y="321.05762"
       x="216.1875"
       xlink:href="#glyph0-13" />
    <use
       height="100%"
       width="100%"
       id="use310"
       y="321.05762"
       x="222.1875"
       xlink:href="#glyph0-12" />
    <use
       height="100%"
       width="100%"
       id="use312"
       y="321.05762"
       x="224.85156"
       xlink:href="#glyph0-14" />
    <use
       height="100%"
       width="100%"
       id="use314"
       y="321.05762"
       x="231.52344"
       xlink:href="#glyph0-15" />
    <use
       height="100%"
       width="100%"
       id="use316"
       y="321.05762"
       x="238.19531"
       xlink:href="#glyph0-10" />
    <use
       height="100%"
       width="100%"
       id="use318"
       y="321.05762"
       x="244.86719"
       xlink:href="#glyph0-16" />
    <use
       height="100%"
       width="100%"
       id="use320"
       y="321.05762"
       x="247.53125"
       xlink:href="#glyph0-13" />
  </g>
  <g
     id="g322"
     style="fill:#000000;fill-opacity:1"
     transform="matrix(1.25,0,0,1.25,106.71314,74.847887)">
    <use
       height="100%"
       width="100%"
       id="use324"
       y="195.30078"
       x="12.737305"
       xlink:href="#glyph1-6" />
    <use
       height="100%"
       width="100%"
       id="use326"
       y="186.63672"
       x="12.737305"
       xlink:href="#glyph1-7" />
    <use
       height="100%"
       width="100%"
       id="use328"
       y="183.97266"
       x="12.737305"
       xlink:href="#glyph1-8" />
    <use
       height="100%"
       width="100%"
       id="use330"
       y="178.15234"
       x="12.737305"
       xlink:href="#glyph1-9" />
    <use
       height="100%"
       width="100%"
       id="use332"
       y="171.48047"
       x="12.737305"
       xlink:href="#glyph1-10" />
    <use
       height="100%"
       width="100%"
       id="use334"
       y="167.54395"
       x="12.737305"
       xlink:href="#glyph1-11" />
    <use
       height="100%"
       width="100%"
       id="use336"
       y="161.54395"
       x="12.737305"
       xlink:href="#glyph1-12" />
    <use
       height="100%"
       width="100%"
       id="use338"
       y="154.87207"
       x="12.737305"
       xlink:href="#glyph1-13" />
    <use
       height="100%"
       width="100%"
       id="use340"
       y="151.53613"
       x="12.737305"
       xlink:href="#glyph1-10" />
    <use
       height="100%"
       width="100%"
       id="use342"
       y="147.59961"
       x="12.737305"
       xlink:href="#glyph1-14" />
    <use
       height="100%"
       width="100%"
       id="use344"
       y="140.92773"
       x="12.737305"
       xlink:href="#glyph1-15" />
    <use
       height="100%"
       width="100%"
       id="use346"
       y="137.77148"
       x="12.737305"
       xlink:href="#glyph1-12" />
  </g>
  <path
     style="fill:none;fill-rule:evenodd;stroke:#2e3436;stroke-width:4;stroke-linecap:butt;stroke-linejoin:miter;stroke-miterlimit:9.76923084;stroke-dasharray:none;stroke-opacity:1"
     d="m 225.43259,352.42929 0,361.04334"
     id="path4157"
     inkscape:path-effect="#path-effect4159"
     inkscape:original-d="m 225.43259,352.42929 0,361.04334"
     inkscape:connector-curvature="0" />
  <path
     style="fill:none;fill-rule:evenodd;stroke:#2e3436;stroke-width:4;stroke-linecap:butt;stroke-linejoin:miter;stroke-miterlimit:9.76923084;stroke-dasharray:none;stroke-opacity:1"
     d="m 224.12524,712.13412 448.86238,0"
     id="path4165"
     inkscape:path-effect="#path-effect4167"
     inkscape:original-d="m 224.12524,712.13412 448.86238,0"
     inkscape:connector-curvature="0" />
  <path
     inkscape:connector-curvature="0"
     id="path116"
     d="m 318.25039,415.05307 c 0,5.99275 -8.99237,5.99275 -8.99237,0 0,-5.99927 8.99237,-5.99927 8.99237,0"
     style="fill:none;stroke:#7f7fff;stroke-width:4;stroke-linecap:round;stroke-linejoin:round;stroke-miterlimit:9.76923084;stroke-dasharray:none;stroke-opacity:1" />
  <path
     inkscape:connector-curvature="0"
     id="path118"
     d="m 430.47944,423.70057 c 0,5.99928 -8.99238,5.99928 -8.99238,0 0,-5.99274 8.99238,-5.99274 8.99238,0"
     style="fill:none;stroke:#7f7fff;stroke-width:4;stroke-linecap:round;stroke-linejoin:round;stroke-miterlimit:9.76923084;stroke-dasharray:none;stroke-opacity:1" />
  <path
     inkscape:connector-curvature="0"
     id="path120"
     d="m 365.00165,497.23377 c 0,5.99274 -8.99887,5.99274 -8.99887,0 0,-5.99927 8.99887,-5.99927 8.99887,0"
     style="fill:none;stroke:#7f7fff;stroke-width:4;stroke-linecap:round;stroke-linejoin:round;stroke-miterlimit:9.76923084;stroke-dasharray:none;stroke-opacity:1" />
  <path
     inkscape:connector-curvature="0"
     id="path122"
     d="m 358.44933,380.44998 c 0,5.99275 -8.9989,5.99275 -8.9989,0 0,-5.99925 8.9989,-5.99925 8.9989,0"
     style="fill:none;stroke:#7f7fff;stroke-width:4;stroke-linecap:round;stroke-linejoin:round;stroke-miterlimit:9.76923084;stroke-dasharray:none;stroke-opacity:1" />
  <path
     inkscape:connector-curvature="0"
     id="path124"
     d="m 429.24965,618.33806 c 0,5.99925 -8.99238,5.99925 -8.99238,0 0,-5.99925 8.99238,-5.99925 8.99238,0"
     style="fill:none;stroke:#7f7fff;stroke-width:4;stroke-linecap:round;stroke-linejoin:round;stroke-miterlimit:9.76923084;stroke-dasharray:none;stroke-opacity:1" />
  <path
     inkscape:connector-curvature="0"
     id="path126"
     d="m 422.91204,462.63068 c 0,5.99276 -8.99237,5.99276 -8.99237,0 0,-5.99925 8.99237,-5.99925 8.99237,0"
     style="fill:none;stroke:#7f7fff;stroke-width:4;stroke-linecap:round;stroke-linejoin:round;stroke-miterlimit:9.76923084;stroke-dasharray:none;stroke-opacity:1" />
  <path
     inkscape:connector-curvature="0"
     id="path128"
     d="m 458.92711,674.56321 c 0,5.99925 -8.99239,5.99925 -8.99239,0 0,-5.99276 8.99239,-5.99276 8.99239,0"
     style="fill:none;stroke:#7f7fff;stroke-width:4;stroke-linecap:round;stroke-linejoin:round;stroke-miterlimit:9.76923084;stroke-dasharray:none;stroke-opacity:1" />
  <path
     inkscape:connector-curvature="0"
     id="path130"
     d="m 494.94869,579.40797 c 0,5.99926 -8.9989,5.99926 -8.9989,0 0,-5.99276 8.9989,-5.99276 8.9989,0"
     style="fill:none;stroke:#7f7fff;stroke-width:4;stroke-linecap:round;stroke-linejoin:round;stroke-miterlimit:9.76923084;stroke-dasharray:none;stroke-opacity:1" />
  <path
     inkscape:connector-curvature="0"
     id="path132"
     d="m 659.0368,691.86475 c 0,5.99926 -8.99889,5.99926 -8.99889,0 0,-5.99276 8.99889,-5.99276 8.99889,0"
     style="fill:none;stroke:#7f7fff;stroke-width:4;stroke-linecap:round;stroke-linejoin:round;stroke-miterlimit:9.76923084;stroke-dasharray:none;stroke-opacity:1" />
  <path
     inkscape:connector-curvature="0"
     id="path134"
     d="m 349.65215,596.70952 c 0,5.99925 -8.99239,5.99925 -8.99239,0 0,-5.99276 8.99239,-5.99276 8.99239,0"
     style="fill:none;stroke:#7f7fff;stroke-width:4;stroke-linecap:round;stroke-linejoin:round;stroke-miterlimit:9.76923084;stroke-dasharray:none;stroke-opacity:1" />
  <path
     inkscape:connector-curvature="0"
     id="path136"
     d="m 411.53167,466.95119 c 0,5.99925 -8.99236,5.99925 -8.99236,0 0,-5.99277 8.99236,-5.99277 8.99236,0"
     style="fill:none;stroke:#7f7fff;stroke-width:4;stroke-linecap:round;stroke-linejoin:round;stroke-miterlimit:9.76923084;stroke-dasharray:none;stroke-opacity:1" />
  <path
     inkscape:connector-curvature="0"
     id="path138"
     d="m 559.34632,605.36354 c 0,5.99275 -8.99235,5.99275 -8.99235,0 0,-5.99925 8.99235,-5.99925 8.99235,0"
     style="fill:none;stroke:#7f7fff;stroke-width:4;stroke-linecap:round;stroke-linejoin:round;stroke-miterlimit:9.76923084;stroke-dasharray:none;stroke-opacity:1" />
  <path
     inkscape:connector-curvature="0"
     id="path140"
     d="m 247.65827,631.31259 c 0,5.99927 -8.99236,5.99927 -8.99236,0 0,-5.99275 8.99236,-5.99275 8.99236,0"
     style="fill:none;stroke:#7f7fff;stroke-width:4;stroke-linecap:round;stroke-linejoin:round;stroke-miterlimit:9.76923084;stroke-dasharray:none;stroke-opacity:1" />
  <path
     inkscape:connector-curvature="0"
     id="path142"
     d="m 422.04665,618.33806 c 0,5.99925 -8.99237,5.99925 -8.99237,0 0,-5.99925 8.99237,-5.99925 8.99237,0"
     style="fill:none;stroke:#7f7fff;stroke-width:4;stroke-linecap:round;stroke-linejoin:round;stroke-miterlimit:9.76923084;stroke-dasharray:none;stroke-opacity:1" />
  <path
     inkscape:connector-curvature="0"
     id="path144"
     d="m 345.62445,488.57974 c 0,5.99926 -8.99888,5.99926 -8.99888,0 0,-5.99926 8.99888,-5.99926 8.99888,0"
     style="fill:none;stroke:#7f7fff;stroke-width:4;stroke-linecap:round;stroke-linejoin:round;stroke-miterlimit:9.76923084;stroke-dasharray:none;stroke-opacity:1" />
  <path
     inkscape:connector-curvature="0"
     id="path146"
     d="m 354.33704,523.18283 c 0,5.99276 -8.99238,5.99276 -8.99238,0 0,-5.99926 8.99238,-5.99926 8.99238,0"
     style="fill:none;stroke:#7f7fff;stroke-width:4;stroke-linecap:round;stroke-linejoin:round;stroke-miterlimit:9.76923084;stroke-dasharray:none;stroke-opacity:1" />
  <path
     inkscape:connector-curvature="0"
     id="path148"
     d="m 331.14685,505.88128 c 0,5.99927 -8.99888,5.99927 -8.99888,0 0,-5.99925 8.99888,-5.99925 8.99888,0"
     style="fill:none;stroke:#7f7fff;stroke-width:4;stroke-linecap:round;stroke-linejoin:round;stroke-miterlimit:9.76923084;stroke-dasharray:none;stroke-opacity:1" />
  <path
     inkscape:connector-curvature="0"
     id="path150"
     d="m 315.36791,419.37356 c 0,5.99927 -8.99239,5.99927 -8.99239,0 0,-5.99275 8.99239,-5.99275 8.99239,0"
     style="fill:none;stroke:#7f7fff;stroke-width:4;stroke-linecap:round;stroke-linejoin:round;stroke-miterlimit:9.76923084;stroke-dasharray:none;stroke-opacity:1" />
  <path
     inkscape:connector-curvature="0"
     id="path152"
     d="m 380.2015,488.57974 c 0,5.99926 -8.99887,5.99926 -8.99887,0 0,-5.99926 8.99887,-5.99926 8.99887,0"
     style="fill:none;stroke:#7f7fff;stroke-width:4;stroke-linecap:round;stroke-linejoin:round;stroke-miterlimit:9.76923084;stroke-dasharray:none;stroke-opacity:1" />
  <path
     inkscape:connector-curvature="0"
     id="path154"
     d="m 276.54191,402.07203 c 0,5.99925 -8.99889,5.99925 -8.99889,0 0,-5.99275 8.99889,-5.99275 8.99889,0"
     style="fill:none;stroke:#7f7fff;stroke-width:4;stroke-linecap:round;stroke-linejoin:round;stroke-miterlimit:9.76923084;stroke-dasharray:none;stroke-opacity:1" />
  <path
     inkscape:connector-curvature="0"
     id="path156"
     d="m 457.20281,583.73497 c 0,5.99927 -8.99889,5.99927 -8.99889,0 0,-5.99925 8.99889,-5.99925 8.99889,0"
     style="fill:none;stroke:#7f7fff;stroke-width:4;stroke-linecap:round;stroke-linejoin:round;stroke-miterlimit:9.76923084;stroke-dasharray:none;stroke-opacity:1" />
  <path
     inkscape:connector-curvature="0"
     id="path158"
     d="m 512.15912,626.98559 c 0,5.99924 -8.99238,5.99924 -8.99238,0 0,-5.99276 8.99238,-5.99276 8.99238,0"
     style="fill:none;stroke:#7f7fff;stroke-width:4;stroke-linecap:round;stroke-linejoin:round;stroke-miterlimit:9.76923084;stroke-dasharray:none;stroke-opacity:1" />
  <path
     inkscape:connector-curvature="0"
     id="path160"
     d="m 339.20876,566.43344 c 0,5.99925 -8.99238,5.99925 -8.99238,0 0,-5.99275 8.99238,-5.99275 8.99238,0"
     style="fill:none;stroke:#7f7fff;stroke-width:4;stroke-linecap:round;stroke-linejoin:round;stroke-miterlimit:9.76923084;stroke-dasharray:none;stroke-opacity:1" />
  <path
     inkscape:connector-curvature="0"
     id="path162"
     d="m 305.2108,644.28713 c 0,5.99925 -8.99888,5.99925 -8.99888,0 0,-5.99275 8.99888,-5.99275 8.99888,0"
     style="fill:none;stroke:#7f7fff;stroke-width:4;stroke-linecap:round;stroke-linejoin:round;stroke-miterlimit:9.76923084;stroke-dasharray:none;stroke-opacity:1" />
  <path
     inkscape:connector-curvature="0"
     id="path164"
     d="m 344.10836,484.25273 c 0,5.99925 -8.99238,5.99925 -8.99238,0 0,-5.99276 8.99238,-5.99276 8.99238,0"
     style="fill:none;stroke:#7f7fff;stroke-width:4;stroke-linecap:round;stroke-linejoin:round;stroke-miterlimit:9.76923084;stroke-dasharray:none;stroke-opacity:1" />
  <path
     inkscape:connector-curvature="0"
     id="path166"
     d="m 311.62,553.4589 c 0,5.99927 -8.99238,5.99927 -8.99238,0 0,-5.99925 8.99238,-5.99925 8.99238,0"
     style="fill:none;stroke:#7f7fff;stroke-width:4;stroke-linecap:round;stroke-linejoin:round;stroke-miterlimit:9.76923084;stroke-dasharray:none;stroke-opacity:1" />
  <path
     inkscape:connector-curvature="0"
     id="path168"
     d="m 318.46512,570.76045 c 0,5.99925 -8.99238,5.99925 -8.99238,0 0,-5.99926 8.99238,-5.99926 8.99238,0"
     style="fill:none;stroke:#7f7fff;stroke-width:4;stroke-linecap:round;stroke-linejoin:round;stroke-miterlimit:9.76923084;stroke-dasharray:none;stroke-opacity:1" />
  <path
     inkscape:connector-curvature="0"
     id="path170"
     d="m 314.64564,583.73497 c 0,5.99927 -8.99238,5.99927 -8.99238,0 0,-5.99925 8.99238,-5.99925 8.99238,0"
     style="fill:none;stroke:#7f7fff;stroke-width:4;stroke-linecap:round;stroke-linejoin:round;stroke-miterlimit:9.76923084;stroke-dasharray:none;stroke-opacity:1" />
  <path
     inkscape:connector-curvature="0"
     id="path172"
     d="m 379.11488,527.50985 c 0,5.99274 -8.99238,5.99274 -8.99238,0 0,-5.99925 8.99238,-5.99925 8.99238,0"
     style="fill:none;stroke:#7f7fff;stroke-width:4;stroke-linecap:round;stroke-linejoin:round;stroke-miterlimit:9.76923084;stroke-dasharray:none;stroke-opacity:1" />
  <path
     inkscape:connector-curvature="0"
     id="path174"
     d="m 419.81482,700.51878 c 0,5.99274 -8.99888,5.99274 -8.99888,0 0,-5.99925 8.99888,-5.99925 8.99888,0"
     style="fill:none;stroke:#7f7fff;stroke-width:4;stroke-linecap:round;stroke-linejoin:round;stroke-miterlimit:9.76923084;stroke-dasharray:none;stroke-opacity:1" />
  <path
     inkscape:connector-curvature="0"
     id="path176"
     d="m 367.09033,523.18283 c 0,5.99276 -8.9989,5.99276 -8.9989,0 0,-5.99926 8.9989,-5.99926 8.9989,0"
     style="fill:none;stroke:#7f7fff;stroke-width:4;stroke-linecap:round;stroke-linejoin:round;stroke-miterlimit:9.76923084;stroke-dasharray:none;stroke-opacity:1" />
  <path
     inkscape:connector-curvature="0"
     id="path178"
     d="m 524.1186,678.89021 c 0,5.99926 -8.99239,5.99926 -8.99239,0 0,-5.99274 8.99239,-5.99274 8.99239,0"
     style="fill:none;stroke:#7f7fff;stroke-width:4;stroke-linecap:round;stroke-linejoin:round;stroke-miterlimit:9.76923084;stroke-dasharray:none;stroke-opacity:1" />
  <path
     inkscape:connector-curvature="0"
     id="path180"
     d="m 358.1565,536.15736 c 0,5.99927 -8.99236,5.99927 -8.99236,0 0,-5.99925 8.99236,-5.99925 8.99236,0"
     style="fill:none;stroke:#7f7fff;stroke-width:4;stroke-linecap:round;stroke-linejoin:round;stroke-miterlimit:9.76923084;stroke-dasharray:none;stroke-opacity:1" />
  <path
     inkscape:connector-curvature="0"
     id="path182"
     d="m 454.03401,618.33806 c 0,5.99925 -8.99238,5.99925 -8.99238,0 0,-5.99925 8.99238,-5.99925 8.99238,0"
     style="fill:none;stroke:#7f7fff;stroke-width:4;stroke-linecap:round;stroke-linejoin:round;stroke-miterlimit:9.76923084;stroke-dasharray:none;stroke-opacity:1" />
  <path
     inkscape:connector-curvature="0"
     id="path184"
     d="m 338.63618,553.4589 c 0,5.99927 -8.9989,5.99927 -8.9989,0 0,-5.99925 8.9989,-5.99925 8.9989,0"
     style="fill:none;stroke:#7f7fff;stroke-width:4;stroke-linecap:round;stroke-linejoin:round;stroke-miterlimit:9.76923084;stroke-dasharray:none;stroke-opacity:1" />
  <path
     inkscape:connector-curvature="0"
     id="path186"
     d="m 313.06448,410.72606 c 0,5.99925 -8.99235,5.99925 -8.99235,0 0,-5.99926 8.99235,-5.99926 8.99235,0"
     style="fill:none;stroke:#7f7fff;stroke-width:4;stroke-linecap:round;stroke-linejoin:round;stroke-miterlimit:9.76923084;stroke-dasharray:none;stroke-opacity:1" />
  <path
     inkscape:connector-curvature="0"
     id="path188"
     d="m 353.61478,514.5288 c 0,5.99925 -8.99239,5.99925 -8.99239,0 0,-5.99275 8.99239,-5.99275 8.99239,0"
     style="fill:none;stroke:#7f7fff;stroke-width:4;stroke-linecap:round;stroke-linejoin:round;stroke-miterlimit:9.76923084;stroke-dasharray:none;stroke-opacity:1" />
  <path
     inkscape:connector-curvature="0"
     id="path190"
     d="m 380.84567,631.31259 c 0,5.99927 -8.99888,5.99927 -8.99888,0 0,-5.99275 8.99888,-5.99275 8.99888,0"
     style="fill:none;stroke:#7f7fff;stroke-width:4;stroke-linecap:round;stroke-linejoin:round;stroke-miterlimit:9.76923084;stroke-dasharray:none;stroke-opacity:1" />
  <path
     inkscape:connector-curvature="0"
     id="path192"
     d="m 468.65476,557.78591 c 0,5.99277 -8.99889,5.99277 -8.99889,0 0,-5.99925 8.99889,-5.99925 8.99889,0"
     style="fill:none;stroke:#7f7fff;stroke-width:4;stroke-linecap:round;stroke-linejoin:round;stroke-miterlimit:9.76923084;stroke-dasharray:none;stroke-opacity:1" />
  <path
     inkscape:connector-curvature="0"
     id="path194"
     d="m 372.63411,614.01106 c 0,5.99926 -8.99239,5.99926 -8.99239,0 0,-5.99276 8.99239,-5.99276 8.99239,0"
     style="fill:none;stroke:#7f7fff;stroke-width:4;stroke-linecap:round;stroke-linejoin:round;stroke-miterlimit:9.76923084;stroke-dasharray:none;stroke-opacity:1" />
  <path
     inkscape:connector-curvature="0"
     id="path196"
     d="m 342.95666,492.90676 c 0,5.99275 -8.99237,5.99275 -8.99237,0 0,-5.99925 8.99237,-5.99925 8.99237,0"
     style="fill:none;stroke:#7f7fff;stroke-width:4;stroke-linecap:round;stroke-linejoin:round;stroke-miterlimit:9.76923084;stroke-dasharray:none;stroke-opacity:1" />
  <path
     inkscape:connector-curvature="0"
     id="path198"
     d="m 292.60715,471.27821 c 0,5.99925 -8.99888,5.99925 -8.99888,0 0,-5.99276 8.99888,-5.99276 8.99888,0"
     style="fill:none;stroke:#7f7fff;stroke-width:4;stroke-linecap:round;stroke-linejoin:round;stroke-miterlimit:9.76923084;stroke-dasharray:none;stroke-opacity:1" />
  <path
     inkscape:connector-curvature="0"
     id="path200"
     d="m 336.4759,531.83034 c 0,5.99925 -8.99887,5.99925 -8.99887,0 0,-5.99274 8.99887,-5.99274 8.99887,0"
     style="fill:none;stroke:#7f7fff;stroke-width:4;stroke-linecap:round;stroke-linejoin:round;stroke-miterlimit:9.76923084;stroke-dasharray:none;stroke-opacity:1" />
  <path
     inkscape:connector-curvature="0"
     id="path202"
     d="m 335.97489,523.18283 c 0,5.99276 -8.99238,5.99276 -8.99238,0 0,-5.99926 8.99238,-5.99926 8.99238,0"
     style="fill:none;stroke:#7f7fff;stroke-width:4;stroke-linecap:round;stroke-linejoin:round;stroke-miterlimit:9.76923084;stroke-dasharray:none;stroke-opacity:1" />
  <path
     inkscape:connector-curvature="0"
     id="path204"
     d="m 381.78266,549.1319 c 0,5.99925 -8.99889,5.99925 -8.99889,0 0,-5.99276 8.99889,-5.99276 8.99889,0"
     style="fill:none;stroke:#7f7fff;stroke-width:4;stroke-linecap:round;stroke-linejoin:round;stroke-miterlimit:9.76923084;stroke-dasharray:none;stroke-opacity:1" />
  <path
     inkscape:connector-curvature="0"
     id="path206"
     d="m 422.76891,579.40797 c 0,5.99926 -8.99238,5.99926 -8.99238,0 0,-5.99276 8.99238,-5.99276 8.99238,0"
     style="fill:none;stroke:#7f7fff;stroke-width:4;stroke-linecap:round;stroke-linejoin:round;stroke-miterlimit:9.76923084;stroke-dasharray:none;stroke-opacity:1" />
  <path
     inkscape:connector-curvature="0"
     id="path208"
     d="m 396.91093,531.83034 c 0,5.99925 -8.99237,5.99925 -8.99237,0 0,-5.99274 8.99237,-5.99274 8.99237,0"
     style="fill:none;stroke:#7f7fff;stroke-width:4;stroke-linecap:round;stroke-linejoin:round;stroke-miterlimit:9.76923084;stroke-dasharray:none;stroke-opacity:1" />
  <path
     inkscape:connector-curvature="0"
     id="path210"
     d="m 333.23554,492.90676 c 0,5.99275 -8.9989,5.99275 -8.9989,0 0,-5.99925 8.9989,-5.99925 8.9989,0"
     style="fill:none;stroke:#7f7fff;stroke-width:4;stroke-linecap:round;stroke-linejoin:round;stroke-miterlimit:9.76923084;stroke-dasharray:none;stroke-opacity:1" />
  <path
     inkscape:connector-curvature="0"
     id="path212"
     d="m 344.90218,605.36354 c 0,5.99275 -8.99886,5.99275 -8.99886,0 0,-5.99925 8.99886,-5.99925 8.99886,0"
     style="fill:none;stroke:#7f7fff;stroke-width:4;stroke-linecap:round;stroke-linejoin:round;stroke-miterlimit:9.76923084;stroke-dasharray:none;stroke-opacity:1" />
  <path
     inkscape:connector-curvature="0"
     id="path214"
     d="m 439.34169,518.85583 c 0,5.99925 -8.99238,5.99925 -8.99238,0 0,-5.99276 8.99238,-5.99276 8.99238,0"
     style="fill:none;stroke:#7f7fff;stroke-width:4;stroke-linecap:round;stroke-linejoin:round;stroke-miterlimit:9.76923084;stroke-dasharray:none;stroke-opacity:1" />
  <g
     style="clip-rule:nonzero;fill:none;stroke-width:2.40133929;stroke-miterlimit:9.76923084;stroke-dasharray:none"
     id="g348"
     clip-path="url(#clip1)"
     transform="matrix(1.6657372,0,0,1.6657372,128.36287,269.30107)">
    <path
       inkscape:connector-curvature="0"
       id="path350"
       d="m 58.3125,125.14844 30.78125,13.5625 7.691406,3.39062 30.781254,13.5625 7.6914,3.39063 7.69531,3.38672 23.08594,10.17187 7.69141,3.39063 38.47656,16.95312 7.69141,3.39063 7.69531,3.38671 23.08594,10.17188 7.6914,3.39062 30.78125,13.5625 7.69141,3.39063 7.69531,3.39062 7.69531,3.38672 15.07011,6.526"
       style="fill:none;stroke:#2e3436;stroke-width:2.40133929;stroke-linecap:round;stroke-linejoin:round;stroke-miterlimit:9.76923084;stroke-dasharray:none;stroke-opacity:1"
       sodipodi:nodetypes="cccccccccccccccccc" />
  </g>
  <path
     style="clip-rule:nonzero;fill:#000000;fill-opacity:0.20707074;fill-rule:nonzero;stroke:none;stroke-width:4;stroke-miterlimit:9.76923084;stroke-dasharray:none"
     d="m 225.49617,513.40962 12.81836,4.91263 12.81838,3.1558 12.81837,0.16917 12.81836,2.98663 12.81187,4.98419 12.81836,5.10132 12.81835,2.91504 12.81838,4.35954 12.81837,4.75647 12.81186,5.20543 12.81836,4.54172 12.81839,4.9777 12.81836,6.34412 12.81836,5.3616 12.81188,6.73452 12.81836,6.18795 12.81836,7.13795 12.81837,7.98381 12.81838,7.79513 12.81836,7.01433 12.81186,7.52183 12.81837,7.45027 12.81837,8.69308 12.81835,9.47387 12.81838,7.17047 12.81185,9.69512 12.81839,8.02287 12.81836,7.35267 12.81837,7.03384 12.81837,7.17046 12.81186,7.98384 12.81837,8.13347 36.59217,0.0396 1.86293,-96.34649 -12.81836,4.4116 -12.81839,-3.56572 -12.81835,-7.86021 -12.81837,-3.12325 -12.81186,-3.25988 -12.81837,-2.72635 -12.81837,-2.90854 -12.81836,-2.96059 -12.81839,-4.08625 -12.81185,-5.30954 -12.81838,-2.73286 -12.81835,-5.27049 -12.81837,-3.86503 -12.81837,-3.57874 -12.81186,-3.93009 -12.81836,-3.75442 -12.81838,-4.28146 -12.81837,-4.31402 -12.81836,-3.99515 -12.81836,-3.49414 -12.81188,-4.83454 -12.81836,-4.45066 -12.81836,-6.59788 -12.81839,-5.23145 -12.81836,-5.46569 -12.81186,-6.70199 -12.81837,-6.84513 -12.81835,-7.7496 -12.81838,-6.85816 -12.81836,-8.9143 -12.81187,-9.63652 -12.81836,-7.74308 -12.81837,-4.21641 -12.81837,-7.57391 -12.81837,-9.37625 z"
     id="path354"
     inkscape:connector-curvature="0"
     sodipodi:nodetypes="ccccccccccccccccccccccccccccccccccccccccccccccccccccccccccccccccccccccc" />
</svg>
