<?xml version="1.0" encoding="UTF-8" standalone="no"?>
<!-- Created with Inkscape (http://www.inkscape.org/) -->

<svg
   xmlns:dc="http://purl.org/dc/elements/1.1/"
   xmlns:cc="http://creativecommons.org/ns#"
   xmlns:rdf="http://www.w3.org/1999/02/22-rdf-syntax-ns#"
   xmlns:svg="http://www.w3.org/2000/svg"
   xmlns="http://www.w3.org/2000/svg"
   xmlns:sodipodi="http://sodipodi.sourceforge.net/DTD/sodipodi-0.dtd"
   xmlns:inkscape="http://www.inkscape.org/namespaces/inkscape"
   id="svg2"
   version="1.1"
   inkscape:version="0.91 r13725"
   xml:space="preserve"
   width="1062.9875"
   height="1062.9875"
   viewBox="0 0 1062.9875 1062.9875"
   sodipodi:docname="publications.svg"><metadata
     id="metadata8"><rdf:RDF><cc:Work
         rdf:about=""><dc:format>image/svg+xml</dc:format><dc:type
           rdf:resource="http://purl.org/dc/dcmitype/StillImage" /><dc:title /></cc:Work></rdf:RDF></metadata><defs
     id="defs6"><inkscape:path-effect
       effect="spiro"
       id="path-effect4293"
       is_visible="true" /><inkscape:path-effect
       effect="spiro"
       id="path-effect4289"
       is_visible="true" /><inkscape:path-effect
       effect="spiro"
       id="path-effect4285"
       is_visible="true" /><inkscape:path-effect
       effect="spiro"
       id="path-effect4281"
       is_visible="true" /><inkscape:path-effect
       effect="spiro"
       id="path-effect4277"
       is_visible="true" /><inkscape:path-effect
       effect="spiro"
       id="path-effect4273"
       is_visible="true" /><inkscape:path-effect
       effect="spiro"
       id="path-effect4269"
       is_visible="true" /><inkscape:path-effect
       effect="spiro"
       id="path-effect4265"
       is_visible="true" /><inkscape:path-effect
       effect="spiro"
       id="path-effect4259"
       is_visible="true" /><inkscape:path-effect
       effect="spiro"
       id="path-effect4255"
       is_visible="true" /><inkscape:path-effect
       effect="spiro"
       id="path-effect4251"
       is_visible="true" /><inkscape:path-effect
       effect="spiro"
       id="path-effect4247"
       is_visible="true" /><inkscape:path-effect
       effect="spiro"
       id="path-effect4197"
       is_visible="true" /><inkscape:path-effect
       effect="spiro"
       id="path-effect3356"
       is_visible="true" /><inkscape:path-effect
       effect="spiro"
       id="path-effect3352"
       is_visible="true" /><inkscape:path-effect
       effect="spiro"
       id="path-effect3348"
       is_visible="true" /><clipPath
       clipPathUnits="userSpaceOnUse"
       id="clipPath3340"><rect
         style="opacity:1;fill:#000000;fill-opacity:1;stroke:#000000;stroke-width:2;stroke-linecap:butt;stroke-linejoin:round;stroke-miterlimit:4;stroke-dasharray:none;stroke-dashoffset:0;stroke-opacity:1"
         id="rect3342"
         width="776.01971"
         height="714.41003"
         x="60.298832"
         y="16.397089"
         rx="2.2398601" /></clipPath><inkscape:path-effect
       effect="spiro"
       id="path-effect3356-3"
       is_visible="true" /></defs><sodipodi:namedview
     pagecolor="#ffffff"
     bordercolor="#666666"
     borderopacity="1"
     objecttolerance="10"
     gridtolerance="10"
     guidetolerance="10"
     inkscape:pageopacity="0"
     inkscape:pageshadow="2"
     inkscape:window-width="1301"
     inkscape:window-height="744"
     id="namedview4"
     showgrid="false"
     inkscape:zoom="0.31397771"
     inkscape:cx="66.205501"
     inkscape:cy="668.69334"
     inkscape:window-x="65"
     inkscape:window-y="24"
     inkscape:window-maximized="1"
     inkscape:current-layer="g12" /><g
     id="g10"
     inkscape:groupmode="layer"
     inkscape:label="ink_ext_XXXXXX"
     transform="matrix(1.25,0,0,-1.25,0,1062.9875)"><g
       id="g12"
       transform="scale(0.1,0.1)"><rect
         style="fill:none"
         x="2213.4312"
         y="-9457.5508"
         width="3040"
         height="3040"
         id="rect4"
         transform="scale(1,-1)" /><g
         transform="matrix(35.734227,0,0,-35.734227,2465.2388,5006.0296)"
         id="g6"
         style="fill:#2e3436"><path
           inkscape:connector-curvature="0"
           d="m 94.775,46.308 c 0,-0.067 -0.006,-0.135 -0.016,-0.2 -0.064,-0.437 -0.709,-4.791 -2.096,-10.041 l 0.926,0 c 0.654,0 1.186,-0.531 1.186,-1.185 l 0,-5.176 c 0,-0.654 -0.531,-1.186 -1.186,-1.186 l -3.346,0 c -1.09,-2.782 -2.275,-5.092 -3.533,-6.878 -0.225,-0.314 -0.584,-0.503 -0.971,-0.503 l -14.882,0 0,-1.877 c 0,-0.655 -0.531,-1.186 -1.186,-1.186 l -39.343,0 c -0.654,0 -1.185,0.531 -1.185,1.186 l 0,1.877 -14.885,0 c -0.386,0 -0.748,0.188 -0.97,0.503 -1.256,1.787 -2.444,4.097 -3.533,6.878 l -3.345,0 c -0.654,0 -1.185,0.531 -1.185,1.186 l 0,5.176 c 0,0.654 0.531,1.185 1.185,1.185 l 0.926,0 c -1.387,5.251 -2.033,9.606 -2.095,10.042 -0.011,0.064 -0.016,0.13 -0.016,0.198 0,0.068 0.006,0.134 0.018,0.2 l 1.345,8.988 c -0.291,6.508 -0.582,12.996 -0.873,19.457 -0.01,0.225 0.043,0.447 0.155,0.643 0.758,1.326 1.538,2.754 2.319,4.242 0.19,0.361 0.553,0.6 0.962,0.631 11.833,0.881 23.847,1.383 35.709,1.494 1.705,0.016 3.422,0.023 5.138,0.023 1.719,0 3.438,-0.008 5.143,-0.023 11.865,-0.111 23.879,-0.613 35.709,-1.494 0.408,-0.031 0.771,-0.27 0.961,-0.631 0.781,-1.488 1.563,-2.916 2.32,-4.242 C 94.24,75.4 94.295,75.177 94.285,74.952 93.994,68.491 93.703,62.003 93.41,55.495 l 1.348,-8.988 c 0.01,-0.066 0.017,-0.132 0.017,-0.199 z m -11.605,-8.037 -13.275,0 0,-3.053 10.613,0 c 0.393,0 0.711,-0.318 0.711,-0.712 l 0,-3.295 1.951,7.06 z m -53.065,-4.476 -9.902,0 0,-6.109 9.902,0 0,6.109 z m -10.613,1.423 10.613,0 0,3.053 -12.998,0 1.673,-6.053 0,2.288 c 0,0.394 0.319,0.712 0.712,0.712 z m 48.979,3.053 -36.944,0 0,-17.81 36.943,0 0,17.81 z m 11.326,-4.476 -9.902,0 0,-6.109 9.902,0 0,6.109 z m -49.692,-10.284 0,2.753 -10.613,0 c -0.037,0 -0.072,0.002 -0.106,0.009 -0.007,0 -0.013,0.001 -0.02,0.002 -0.033,0.006 -0.066,0.015 -0.098,0.026 -0.005,0.001 -0.009,0.003 -0.014,0.005 -0.033,0.011 -0.064,0.024 -0.095,0.041 -10e-4,0 -0.002,0 -0.003,10e-4 -0.03,0.016 -0.058,0.035 -0.086,0.055 -0.005,0.003 -0.01,0.007 -0.016,0.011 -0.025,0.021 -0.05,0.042 -0.073,0.066 -0.004,0.003 -0.008,0.008 -0.012,0.013 -0.021,0.024 -0.043,0.049 -0.062,0.076 -0.001,0.001 -0.002,0.003 -0.003,0.005 -0.02,0.029 -0.037,0.059 -0.052,0.091 -0.002,0.005 -0.004,0.009 -0.007,0.015 -0.015,0.032 -0.027,0.065 -0.036,0.099 0,0.002 -0.001,0.003 -0.002,0.006 l -3.319,12.007 c -0.061,0.214 -0.015,0.444 0.119,0.621 0.135,0.176 0.344,0.281 0.566,0.281 l 67.931,0 c 0.223,0 0.434,-0.105 0.566,-0.281 0.137,-0.177 0.18,-0.407 0.121,-0.621 L 81.473,26.785 c -0.084,-0.308 -0.367,-0.521 -0.686,-0.521 l -0.279,0 -10.613,0 0,-2.753 15.219,0 c 1.131,1.721 2.205,3.941 3.203,6.611 0.174,0.464 0.617,0.771 1.111,0.771 l 2.977,0 0,2.804 -1.295,0 c -0.371,0 -0.721,0.175 -0.947,0.472 -0.221,0.296 -0.295,0.681 -0.193,1.038 1.273,4.499 2.023,8.654 2.311,10.399 l -41.554,0.36 c -0.042,0 -0.082,0.004 -0.122,0.011 l -0.597,-0.004 c -0.005,0 -0.011,0 -0.014,0 l -0.597,0.004 C 49.356,45.97 49.317,45.966 49.274,45.966 L 7.72,45.604 C 8.007,43.859 8.755,39.704 10.031,35.205 10.132,34.848 10.06,34.463 9.835,34.167 9.612,33.87 9.262,33.695 8.889,33.695 l -1.293,0 0,-2.804 2.975,0 c 0.495,0 0.937,-0.306 1.11,-0.771 0.998,-2.669 2.074,-4.89 3.204,-6.611 l 15.22,0 z m -21.173,32.633 82.137,0 c 0.273,6.104 0.545,12.182 0.818,18.24 -13.416,1.029 -27.025,1.568 -40.473,1.604 -0.943,0.002 -1.887,0.002 -2.83,0 C 35.138,75.953 21.527,75.414 8.113,74.384 8.386,68.325 8.658,62.247 8.932,56.144 Z m 8.213,-3.465 65.71,0 -0.219,1.961 -65.274,0 -0.217,-1.961 z m 73.986,2.043 -7.07,0 0.297,-2.678 c 0.02,-0.199 -0.043,-0.402 -0.178,-0.553 -0.137,-0.15 -0.33,-0.236 -0.529,-0.236 l -67.3,0 c -0.203,0 -0.395,0.086 -0.53,0.236 -0.135,0.15 -0.2,0.354 -0.177,0.553 l 0.296,2.678 -7.07,0 -1.152,-7.694 42.276,0.378 c 0.003,0 0.009,0 0.014,0 l 0.722,-0.006 0.002,0 c 0.003,0 0.003,0 0.003,0 l 41.548,-0.372 -1.152,7.694 z m -42.55,22.685 c 0.473,0.004 0.946,0.004 1.417,0.004 0.474,0 0.947,0 1.42,-0.004 13.236,-0.031 26.633,-0.555 39.842,-1.549 -0.41,0.744 -0.824,1.51 -1.24,2.295 -11.566,0.842 -23.307,1.326 -34.902,1.436 -3.395,0.035 -6.84,0.035 -10.236,0 C 33.288,79.479 21.55,78.995 9.98,78.153 9.563,77.368 9.149,76.602 8.738,75.858 c 13.212,0.995 26.605,1.518 39.843,1.549 z"
           id="path8"
           style="fill:#2e3436" /><path
           inkscape:connector-curvature="0"
           d="m 77.844,72.606 c 0.133,-0.139 0.207,-0.328 0.199,-0.521 L 77.594,58.909 c -0.014,-0.385 -0.33,-0.688 -0.713,-0.688 l -53.764,0 c -0.383,0 -0.697,0.303 -0.71,0.688 l -0.451,13.176 c -0.006,0.193 0.065,0.383 0.199,0.521 0.135,0.139 0.319,0.215 0.512,0.215 l 54.665,0 c 0.193,0 0.379,-0.076 0.512,-0.215 z m -54.442,-1.207 0.403,-11.756 52.389,0 0.402,11.756 -53.194,0 z"
           id="path10"
           style="fill:#2e3436" /><path
           inkscape:connector-curvature="0"
           d="m 33.219,61.665 -1.041,0 c -0.908,0 -1.646,0.736 -1.646,1.645 l 0,1.039 c 0,0.91 0.739,1.646 1.646,1.646 l 1.041,0 c 0.908,0 1.646,-0.736 1.646,-1.646 l 0,-1.039 c 0,-0.909 -0.739,-1.645 -1.646,-1.645 z m 0.698,2.684 c 0,0.387 -0.313,0.699 -0.698,0.699 l -1.041,0 c -0.385,0 -0.697,-0.313 -0.697,-0.699 l 0,-1.039 c 0,-0.385 0.312,-0.697 0.697,-0.697 l 1.041,0 c 0.384,0 0.698,0.313 0.698,0.697 l 0,1.039 z"
           id="path12"
           style="fill:#2e3436" /><path
           inkscape:connector-curvature="0"
           d="m 47.374,65.048 -1.041,0 c -0.908,0 -1.646,0.74 -1.646,1.645 l 0,1.041 c 0,0.91 0.738,1.646 1.646,1.646 l 1.041,0 c 0.908,0 1.646,-0.736 1.646,-1.646 l 0,-1.041 c 0,-0.905 -0.738,-1.645 -1.646,-1.645 z m 0.697,2.685 c 0,0.385 -0.312,0.697 -0.697,0.697 l -1.041,0 c -0.384,0 -0.697,-0.313 -0.697,-0.697 l 0,-1.041 c 0,-0.383 0.313,-0.697 0.697,-0.697 l 1.041,0 c 0.385,0 0.697,0.314 0.697,0.697 l 0,1.041 z"
           id="path14"
           style="fill:#2e3436" /><path
           inkscape:connector-curvature="0"
           d="m 63.115,61.665 -1.041,0 c -0.906,0 -1.646,0.736 -1.646,1.645 l 0,1.039 c 0,0.91 0.74,1.646 1.646,1.646 l 1.041,0 c 0.906,0 1.646,-0.736 1.646,-1.646 l 0,-1.039 c 0.001,-0.909 -0.74,-1.645 -1.646,-1.645 z m 0.698,2.684 c 0,0.387 -0.313,0.699 -0.697,0.699 l -1.041,0 c -0.385,0 -0.695,-0.313 -0.695,-0.699 l 0,-1.039 c 0,-0.385 0.311,-0.697 0.695,-0.697 l 1.041,0 c 0.385,0 0.697,0.313 0.697,0.697 l 0,1.039 z"
           id="path16"
           style="fill:#2e3436" /><path
           inkscape:connector-curvature="0"
           d="m 55.984,61.665 -1.041,0 c -0.908,0 -1.645,0.736 -1.645,1.645 l 0,1.039 c 0,0.91 0.736,1.646 1.645,1.646 l 1.041,0 c 0.908,0 1.646,-0.736 1.646,-1.646 l 0,-1.039 c 10e-4,-0.909 -0.737,-1.645 -1.646,-1.645 z m 0.698,2.684 c 0,0.387 -0.311,0.699 -0.697,0.699 l -1.041,0 c -0.385,0 -0.695,-0.313 -0.695,-0.699 l 0,-1.039 c 0,-0.385 0.311,-0.697 0.695,-0.697 l 1.041,0 c 0.387,0 0.697,0.313 0.697,0.697 l 0,1.039 z"
           id="path18"
           style="fill:#2e3436" /><path
           inkscape:connector-curvature="0"
           d="m 72.125,62.165 -2.148,0 c -0.904,0 -1.645,0.738 -1.645,1.648 l 0,3.578 c 0,0.906 0.74,1.645 1.645,1.645 l 2.148,0 c 0.908,0 1.646,-0.738 1.646,-1.645 l 0,-3.578 c 0,-0.91 -0.738,-1.648 -1.646,-1.648 z m 0.699,5.227 c 0,0.383 -0.314,0.695 -0.699,0.695 l -2.148,0 c -0.383,0 -0.695,-0.313 -0.695,-0.695 l 0,-3.578 c 0,-0.387 0.313,-0.701 0.695,-0.701 l 2.148,0 c 0.385,0 0.699,0.314 0.699,0.701 l 0,3.578 z"
           id="path20"
           style="fill:#2e3436" /></g></g></g></svg>