<?xml version="1.0" encoding="UTF-8" standalone="no"?>
<!-- Created with Inkscape (http://www.inkscape.org/) -->

<svg
   xmlns:dc="http://purl.org/dc/elements/1.1/"
   xmlns:cc="http://creativecommons.org/ns#"
   xmlns:rdf="http://www.w3.org/1999/02/22-rdf-syntax-ns#"
   xmlns:svg="http://www.w3.org/2000/svg"
   xmlns="http://www.w3.org/2000/svg"
   xmlns:sodipodi="http://sodipodi.sourceforge.net/DTD/sodipodi-0.dtd"
   xmlns:inkscape="http://www.inkscape.org/namespaces/inkscape"
   id="svg2"
   version="1.1"
   inkscape:version="0.91 r13725"
   xml:space="preserve"
   width="1062.9875"
   height="1062.9875"
   viewBox="0 0 1062.9875 1062.9875"
   sodipodi:docname="resume.svg"><metadata
     id="metadata8"><rdf:RDF><cc:Work
         rdf:about=""><dc:format>image/svg+xml</dc:format><dc:type
           rdf:resource="http://purl.org/dc/dcmitype/StillImage" /><dc:title /></cc:Work></rdf:RDF></metadata><defs
     id="defs6" /><sodipodi:namedview
     pagecolor="#ffffff"
     bordercolor="#666666"
     borderopacity="1"
     objecttolerance="10"
     gridtolerance="10"
     guidetolerance="10"
     inkscape:pageopacity="0"
     inkscape:pageshadow="2"
     inkscape:window-width="1301"
     inkscape:window-height="744"
     id="namedview4"
     showgrid="false"
     inkscape:zoom="0.44403154"
     inkscape:cx="648.72388"
     inkscape:cy="455.20897"
     inkscape:window-x="65"
     inkscape:window-y="24"
     inkscape:window-maximized="1"
     inkscape:current-layer="g12" /><g
     id="g10"
     inkscape:groupmode="layer"
     inkscape:label="ink_ext_XXXXXX"
     transform="matrix(1.25,0,0,-1.25,0,1062.9875)"><g
       id="g12"
       transform="scale(0.1,0.1)"><g
         id="g3364"
         transform="matrix(0.71197166,0,0,0.71197166,1184.6716,-308.0986)"
         inkscape:export-xdpi="300"
         inkscape:export-ydpi="300"
         style="stroke:#000000"><path
           inkscape:connector-curvature="0"
           id="path16"
           style="fill:#2e3436;fill-opacity:1;fill-rule:nonzero;stroke:#2e3436;stroke-width:37.79059219;stroke-miterlimit:4;stroke-dasharray:none"
           d="m 5370.6,3374.92 c -44.33,-17.05 -92.05,-26.16 -142.07,-26.16 l -248.82,0 c -15.9,9.11 -30.67,18.2 -45.47,28.42 l 294.29,0 c 79.56,0 154.54,25.02 215.88,67.1 -9.04,-10.23 -18.14,-21.61 -28.39,-30.69 -13.64,-14.79 -28.4,-27.29 -45.42,-38.67 l 0,0 z m -2095.27,3711.7 1953.2,0 c 112.5,0 214.77,-45.48 289.75,-120.5 73.87,-73.9 119.34,-176.22 119.34,-288.75 l 0,-2918.21 c 0,-112.53 -45.47,-215.99 -119.34,-289.88 -17.01,-17.06 -35.19,-31.83 -54.51,-45.48 21.56,26.17 39.75,55.74 53.4,86.41 57.93,67.08 93.16,154.62 93.16,248.95 l 0,2918.21 c 0,104.58 -43.16,200.05 -112.48,269.41 -69.32,69.36 -164.75,111.41 -269.32,111.41 l -1953.2,0 c -104.51,0 -199.98,-42.05 -269.26,-111.41 -69.31,-69.36 -111.36,-164.83 -111.36,-269.41 l 0,-2918.21 c 0,-105.73 42.05,-201.21 111.36,-269.42 69.28,-69.34 164.75,-112.56 269.26,-112.56 l 1614.61,0 c 11.35,-10.22 22.74,-19.31 35.25,-28.42 l -1649.86,0 c -112.48,0 -214.74,46.64 -288.61,120.52 -75,73.89 -120.41,177.35 -120.41,289.88 l 0,2918.21 c 0,112.53 45.41,214.85 120.41,288.75 73.87,75.02 176.13,120.5 288.61,120.5 l 0,0" /><path
           inkscape:connector-curvature="0"
           id="path18"
           style="fill:#3b393d;fill-opacity:1;fill-rule:nonzero;stroke:#000000"
           d="m 4472.95,5131.31 -143.18,-234.2 c 22.73,-9.1 43.2,-22.74 60.23,-39.79 4.53,-3.39 7.95,-6.81 11.39,-11.36 l 146.56,239.86 -1.13,0 0,0 -1.18,1.13 -2.24,0 -1.13,0 -1.16,1.13 -2.26,0 0,1.15 -2.29,0 0,0 -1.13,1.14 -2.25,0 -1.13,1.16 -1.17,0 0,0 -1.11,1.13 -1.14,0 0,0 -1.13,1.13 -2.29,0 0,1.13 -2.26,0 0,1.13 -1.15,0 0,0 -1.14,1.15 -1.13,0 0,0 -1.11,1.14 -1.17,0 0,0 -1.14,1.11 -1.11,0 -1.13,1.16 -2.29,0 0,1.15 -1.13,0 0,0 -1.13,1.11 -1.18,0 0,0 -1.11,1.13 -1.13,0 -1.13,1.16 0,0 -1.16,1.13 0,0 -1.13,1.13 -1.13,0 0,1.13 -2.29,0 0,1.16 -1.13,1.13 -1.11,0 -1.14,1.14 0,0 -1.13,1.13 -1.15,0 -1.13,1.12 -1.14,1.16 0,0 -1.13,1.14 -1.15,0 -1.14,1.11 0,0 -1.13,1.15 0,1.15 -1.11,0 -1.17,1.11 0,0 -1.14,1.14 0,0 -1.11,1.15 -1.13,0 -1.17,1.15 0,1.12 -1.12,1.12 0,0 -1.13,1.16 -1.13,0 0,0 -1.18,1.14 -1.11,2.28 -1.13,0" /><path
           inkscape:connector-curvature="0"
           id="path20"
           style="fill:#3b393d;fill-opacity:1;fill-rule:evenodd;stroke:#ffffff;stroke-width:25.19372749;stroke-miterlimit:4;stroke-dasharray:none"
           d="m 4599.08,5414.37 c -88.63,0 -161.37,-72.77 -161.37,-161.42 0,-88.67 72.74,-160.29 161.37,-160.29 88.63,0 161.33,71.62 161.33,160.29 0,88.65 -72.7,161.42 -161.33,161.42 l 0,0"
           sodipodi:nodetypes="cssscc" /><path
           inkscape:connector-curvature="0"
           id="path22"
           style="fill:#3b393d;fill-opacity:1;fill-rule:nonzero;stroke:#000000"
           d="m 4030.92,5186.99 176.13,-287.6 c -23.85,-9.09 -46.58,-23.88 -64.77,-42.07 -2.24,-2.27 -4.55,-4.52 -6.79,-7.96 l -179.55,292.19 c 28.43,7.94 53.41,23.84 72.73,43.17 l 2.25,2.27" /><path
           inkscape:connector-curvature="0"
           id="path24"
           style="fill:#3b393d;fill-opacity:1;fill-rule:evenodd;stroke:#ffffff;stroke-width:25.19372749;stroke-miterlimit:4;stroke-dasharray:none"
           d="m 3904.84,5470.05 c 88.6,0 161.33,-72.75 161.33,-161.41 0,-88.66 -72.73,-161.44 -161.33,-161.44 -88.63,0 -160.25,72.78 -160.25,161.44 0,88.66 71.62,161.41 160.25,161.41 l 0,0"
           sodipodi:nodetypes="cssscc" /><path
           inkscape:connector-curvature="0"
           id="path26"
           style="fill:#3b393d;fill-opacity:1;fill-rule:nonzero;stroke:#000000"
           d="m 4049.12,4295.74 165.9,270.57 -1.11,0 -1.18,1.13 -2.24,0 0,1.13 -2.31,0 -1.13,0 -1.11,1.14 -1.14,0 -1.17,1.13 -1.11,0 0,0 -2.27,1.15 -2.28,0 0,1.13 -2.25,0 -1.17,1.14 -1.13,0 -1.12,1.14 -1.13,0 0,1.15 -2.3,0 0,0 -1.12,1.11 -1.13,0 0,0 -1.17,1.15 -1.11,0 -1.14,1.15 0,0 -1.13,1.13 -1.11,0 0,0 -1.18,1.11 -1.13,0 -1.11,1.15 -1.13,0 -1.18,1.16 0,0 -1.13,1.11 -1.11,0 -1.14,1.14 0,0 -1.17,1.14 -1.11,0 -1.13,1.15 0,0 -1.14,1.13 -1.15,0 -1.13,1.13 0,0 -1.13,1.13 -1.12,0 -1.17,1.15 0,0 -1.13,1.13 -1.13,0 -1.12,1.14 0,0 -1.17,1.13 0,0 -1.13,1.15 0,0 -1.12,1.14 0,0 -1.13,1.11 0,0 -1.17,1.16 -1.11,0 0,0 -1.14,1.14 0,0 -1.13,1.12 0,0 -1.15,1.13 0,0 -1.13,1.15 0,0 -1.14,1.13 0,0 -1.11,1.13 0,0 -1.13,1.14 -1.18,0 -1.13,2.29 0,0 -165.86,-270.55 1.12,0 2.26,-1.16 1.15,0 1.14,0 1.13,-1.13 1.11,0 1.17,0 1.14,-1.13 3.38,-1.13 1.17,0 0,0 1.11,-1.16 1.13,0 1.14,-1.13 2.28,0 0,0 1.13,-1.13 1.12,0 0,0 1.17,-1.15 1.13,0 1.14,-1.13 1.11,0 1.17,-1.14 1.13,0 1.12,-1.13 1.13,0 0,-1.14 2.28,0 0,-1.14 1.14,0 0,0 1.13,-1.13 1.15,0 0,0 1.14,-1.12 0,0 1.13,-1.15 1.11,0 0,0 1.17,-1.16 1.14,0 0,0 1.13,-1.13 0,0 1.11,-1.11 1.17,0 0,0 1.14,-1.15 0,0 1.11,-1.16 1.13,0 0,0 1.18,-1.11 0,0 1.11,-1.14 1.13,0 0,0 1.13,-1.14 0,-1.13 1.12,0 1.17,-1.14 0,0 1.13,-1.14 0,0 1.13,-1.13 1.12,0 0,-1.15 1.17,0 0,0 1.13,-1.13 1.12,-1.13 1.13,-1.14 1.17,0 0,-1.15 1.11,-1.14 0,0 1.14,-1.11 1.13,0 0,-1.14 1.15,0 0,-1.16 1.13,0 0,-1.11 2.27,-1.14 0,-1.15" /><path
           inkscape:connector-curvature="0"
           id="path28"
           style="fill:#3b393d;fill-opacity:1;fill-rule:evenodd;stroke:#ffffff;stroke-width:25.19372749;stroke-miterlimit:4;stroke-dasharray:none"
           d="m 3924.16,4012.66 c 88.61,0 160.19,72.79 160.19,161.44 0,88.68 -71.58,161.42 -160.19,161.42 -89.81,0 -161.37,-72.74 -161.37,-161.42 0,-88.65 71.56,-161.44 161.37,-161.44 l 0,0"
           sodipodi:nodetypes="cssscc" /><path
           inkscape:connector-curvature="0"
           id="path30"
           style="fill:#3b393d;fill-opacity:1;fill-rule:evenodd;stroke:#ffffff;stroke-width:25.19372749;stroke-miterlimit:4;stroke-dasharray:none"
           d="m 4266.15,4894.84 c 89.77,0 161.33,-71.6 161.33,-161.43 0,-88.69 -71.56,-160.29 -161.33,-160.29 -88.61,0 -160.23,71.6 -160.23,160.29 0,89.83 71.62,161.43 160.23,161.43 l 0,0"
           sodipodi:nodetypes="cssscc" /><path
           inkscape:connector-curvature="0"
           id="path32"
           style="fill:#3b393d;fill-opacity:1;fill-rule:evenodd;stroke:#000000"
           d="m 3912.77,6205.58 678.34,0 c 32.95,0 60.22,-27.3 60.22,-60.25 l 0,0 c 0,-32.99 -27.27,-60.26 -60.22,-60.26 l -678.34,0 c -32.95,0 -60.23,27.27 -60.23,60.26 l 0,0 c 0,32.95 27.28,60.25 60.23,60.25 l 0,0 z m 263.64,-248.96 151.11,0 c 32.95,0 60.21,-27.28 60.21,-60.26 l 0,0 c 0,-32.97 -27.26,-60.22 -60.21,-60.22 l -151.11,0 c -32.95,0 -60.24,27.25 -60.24,60.22 l 0,0 c 0,32.98 27.29,60.26 60.24,60.26 l 0,0 z m -564.73,497.93 1280.53,0 c 34.12,0 60.21,-27.28 60.21,-60.25 l 0,0 c 0,-32.97 -26.09,-60.25 -60.21,-60.25 l -1280.53,0 c -32.95,0 -60.24,27.28 -60.24,60.25 l 0,0 c 0,32.97 27.29,60.25 60.24,60.25 l 0,0" /><path
           inkscape:connector-curvature="0"
           id="path34"
           style="fill:#3b393d;fill-opacity:1;fill-rule:evenodd;stroke:#000000"
           d="m 5361.5,3334 145.43,-1916.67 -704.49,0 145.45,1916.67 c 60.21,-36.38 130.66,-57.96 206.82,-57.96 75,0 146.56,21.58 206.79,57.96 l 0,0" /><path
           d="m 5154.7096,3952.3435 c 153.0123,0 277.1441,-124.1534 277.1441,-277.3144 0,-153.1069 -124.1318,-277.2821 -277.1441,-277.2821 -153.0431,0 -277.1655,124.1752 -277.1655,277.2821 0,153.161 124.1224,277.3144 277.1655,277.3144 l 0,0 z m 0,130.2303 c 225.3341,0 407.3326,-182.073 407.3326,-407.5447 0,-225.4394 -181.9985,-407.5129 -407.3326,-407.5129 -225.3757,0 -407.3218,182.0735 -407.3218,407.5129 0,225.4717 181.9461,407.5447 407.3218,407.5447 l 0,0"
           style="fill:#ffffff;fill-opacity:1;fill-rule:evenodd;stroke:#ffffff;stroke-width:1.05545437;stroke-miterlimit:4;stroke-dasharray:none"
           id="path4156"
           inkscape:connector-curvature="0" /><path
           inkscape:connector-curvature="0"
           id="path36"
           style="fill:#3b393d;fill-opacity:1;fill-rule:evenodd;stroke:#ffffff;stroke-width:0.99515224;stroke-miterlimit:4;stroke-dasharray:none"
           d="m 5154.71,3936.5 c 144.27,0 261.31,-117.06 261.31,-261.47 0,-144.36 -117.04,-261.44 -261.31,-261.44 -144.3,0 -261.33,117.08 -261.33,261.44 0,144.41 117.03,261.47 261.33,261.47 l 0,0 z m 0,122.79 c 212.46,0 384.06,-171.67 384.06,-384.26 0,-212.56 -171.6,-384.23 -384.06,-384.23 -212.5,0 -384.05,171.67 -384.05,384.23 0,212.59 171.55,384.26 384.05,384.26 l 0,0" /></g></g></g></svg>