<?xml version="1.0" encoding="UTF-8" standalone="no"?>
<!-- Created with Inkscape (http://www.inkscape.org/) -->

<svg
   id="svg2"
   version="1.1"
   inkscape:version="1.2.2 (b0a84865, 2022-12-01)"
   xml:space="preserve"
   width="1062.9875"
   height="1062.9875"
   viewBox="0 0 1062.9875 1062.9875"
   sodipodi:docname="visualization.svg"
   inkscape:export-filename="visualization.png"
   inkscape:export-xdpi="96"
   inkscape:export-ydpi="96"
   xmlns:inkscape="http://www.inkscape.org/namespaces/inkscape"
   xmlns:sodipodi="http://sodipodi.sourceforge.net/DTD/sodipodi-0.dtd"
   xmlns="http://www.w3.org/2000/svg"
   xmlns:svg="http://www.w3.org/2000/svg"
   xmlns:rdf="http://www.w3.org/1999/02/22-rdf-syntax-ns#"
   xmlns:cc="http://creativecommons.org/ns#"
   xmlns:dc="http://purl.org/dc/elements/1.1/"><metadata
     id="metadata8"><rdf:RDF><cc:Work
         rdf:about=""><dc:format>image/svg+xml</dc:format><dc:type
           rdf:resource="http://purl.org/dc/dcmitype/StillImage" /></cc:Work></rdf:RDF></metadata><defs
     id="defs6"><inkscape:path-effect
       effect="spiro"
       id="path-effect4293"
       is_visible="true" /><inkscape:path-effect
       effect="spiro"
       id="path-effect4289"
       is_visible="true" /><inkscape:path-effect
       effect="spiro"
       id="path-effect4285"
       is_visible="true" /><inkscape:path-effect
       effect="spiro"
       id="path-effect4281"
       is_visible="true" /><inkscape:path-effect
       effect="spiro"
       id="path-effect4277"
       is_visible="true" /><inkscape:path-effect
       effect="spiro"
       id="path-effect4273"
       is_visible="true" /><inkscape:path-effect
       effect="spiro"
       id="path-effect4269"
       is_visible="true" /><inkscape:path-effect
       effect="spiro"
       id="path-effect4265"
       is_visible="true" /><inkscape:path-effect
       effect="spiro"
       id="path-effect4259"
       is_visible="true" /><inkscape:path-effect
       effect="spiro"
       id="path-effect4255"
       is_visible="true" /><inkscape:path-effect
       effect="spiro"
       id="path-effect4251"
       is_visible="true" /><inkscape:path-effect
       effect="spiro"
       id="path-effect4247"
       is_visible="true" /><inkscape:path-effect
       effect="spiro"
       id="path-effect4197"
       is_visible="true" /><inkscape:path-effect
       effect="spiro"
       id="path-effect3356"
       is_visible="true" /><inkscape:path-effect
       effect="spiro"
       id="path-effect3352"
       is_visible="true" /><inkscape:path-effect
       effect="spiro"
       id="path-effect3348"
       is_visible="true" /><clipPath
       clipPathUnits="userSpaceOnUse"
       id="clipPath3340"><rect
         style="opacity:1;fill:#000000;fill-opacity:1;stroke:#000000;stroke-width:2;stroke-linecap:butt;stroke-linejoin:round;stroke-miterlimit:4;stroke-dasharray:none;stroke-dashoffset:0;stroke-opacity:1"
         id="rect3342"
         width="776.01971"
         height="714.41003"
         x="60.298832"
         y="16.397089"
         rx="2.2398601" /></clipPath><inkscape:path-effect
       effect="spiro"
       id="path-effect3356-3"
       is_visible="true" /><clipPath
       clipPathUnits="userSpaceOnUse"
       id="clipPath1346"><ellipse
         style="fill:#1f1f1f;stroke:none;stroke-width:6.4;stroke-linecap:square;stroke-linejoin:miter;stroke-dasharray:none"
         id="ellipse1348"
         cx="719.27673"
         cy="-690.93665"
         rx="43.59481"
         ry="43.795269"
         transform="scale(1,-1)" /></clipPath></defs><sodipodi:namedview
     pagecolor="#ffffff"
     bordercolor="#666666"
     borderopacity="1"
     objecttolerance="10"
     gridtolerance="10"
     guidetolerance="10"
     inkscape:pageopacity="0"
     inkscape:pageshadow="2"
     inkscape:window-width="1684"
     inkscape:window-height="766"
     id="namedview4"
     showgrid="false"
     inkscape:zoom="0.3325017"
     inkscape:cx="-169.92394"
     inkscape:cy="433.08049"
     inkscape:window-x="69"
     inkscape:window-y="25"
     inkscape:window-maximized="0"
     inkscape:current-layer="g10"
     showguides="false"
     inkscape:showpageshadow="2"
     inkscape:pagecheckerboard="true"
     inkscape:deskcolor="#d1d1d1" /><g
     id="g10"
     inkscape:groupmode="layer"
     inkscape:label="ink_ext_XXXXXX"
     transform="matrix(1.25,0,0,-1.25,0,1062.9875)"><g
       id="g1356"
       transform="matrix(1.3104598,0,0,1.3104598,213.27056,-547.15643)"><path
         id="path1339-7"
         style="fill:none;stroke:#3c3c3c;stroke-width:3.2;stroke-linecap:square;stroke-linejoin:miter;stroke-dasharray:none"
         d="m 194.82611,711.9624 35.43311,31.36035 m -80.2336,-37.87678 30.95306,-0.40728 m -82.269986,-39.91316 35.840386,34.61856 m 110.66611,49.28054 a 8.5122757,8.5122749 0 0 0 -8.51227,-8.51228 8.5122757,8.5122749 0 0 0 -8.51228,8.51228 8.5122757,8.5122749 0 0 0 8.51228,8.51227 8.5122757,8.5122749 0 0 0 8.51227,-8.51227 z m -47.12998,-43.98594 a 8.5122757,8.5122749 0 0 0 -8.51227,-8.51227 8.5122757,8.5122749 0 0 0 -8.51228,8.51227 8.5122757,8.5122749 0 0 0 8.51228,8.51228 8.5122757,8.5122749 0 0 0 8.51227,-8.51228 z m -47.928,-0.22539 a 8.5122757,8.5122749 0 0 0 -8.51228,-8.51227 8.5122757,8.5122749 0 0 0 -8.51227,8.51227 8.5122757,8.5122749 0 0 0 8.51227,8.51228 8.5122757,8.5122749 0 0 0 8.51228,-8.51228 z m -48.94202,-46.02231 a 8.5122757,8.5122749 0 0 0 -8.512266,-8.51228 8.5122757,8.5122749 0 0 0 -8.51228,8.51228 8.5122757,8.5122749 0 0 0 8.51228,8.51227 8.5122757,8.5122749 0 0 0 8.512266,-8.51227 z M 65.042234,589.16658 H 258.39304 m -31.58837,101.95688 h 19.79648 V 589.16658 h -19.79648 z m -47.44633,-17.99024 h 20.42924 v -83.96663 h -20.42924 z m -48.40977,-23.13691 h 21.39271 V 589.1666 H 130.94857 Z M 81.474334,629.69904 H 103.93149 V 589.16658 H 81.474334 Z" /><path
         id="path1339-5"
         style="fill:none;stroke:#92a9f7;stroke-width:4.8;stroke-linecap:square;stroke-linejoin:miter;stroke-dasharray:none;stroke-opacity:1"
         d="m 714.02484,709.40897 35.43311,31.36035 m -80.2336,-37.87678 30.95306,-0.40728 m -82.26999,-39.91316 35.84039,34.61856 m 110.66611,49.28054 a 8.5122757,8.5122749 0 0 0 -8.51227,-8.51228 8.5122757,8.5122749 0 0 0 -8.51228,8.51228 8.5122757,8.5122749 0 0 0 8.51228,8.51227 8.5122757,8.5122749 0 0 0 8.51227,-8.51227 z m -47.12998,-43.98594 a 8.5122757,8.5122749 0 0 0 -8.51227,-8.51227 8.5122757,8.5122749 0 0 0 -8.51228,8.51227 8.5122757,8.5122749 0 0 0 8.51228,8.51228 8.5122757,8.5122749 0 0 0 8.51227,-8.51228 z m -47.928,-0.22539 a 8.5122757,8.5122749 0 0 0 -8.51228,-8.51227 8.5122757,8.5122749 0 0 0 -8.51227,8.51227 8.5122757,8.5122749 0 0 0 8.51227,8.51228 8.5122757,8.5122749 0 0 0 8.51228,-8.51228 z m -48.94202,-46.02231 a 8.5122757,8.5122749 0 0 0 -8.51227,-8.51228 8.5122757,8.5122749 0 0 0 -8.51228,8.51228 8.5122757,8.5122749 0 0 0 8.51228,8.51227 8.5122757,8.5122749 0 0 0 8.51227,-8.51227 z M 584.24096,586.61315 H 777.59177 M 746.0034,688.57003 h 19.79648 V 586.61315 H 746.0034 Z m -47.44633,-17.99024 h 20.42924 V 586.61316 H 698.55707 Z M 650.1473,647.44288 h 21.39271 V 586.61317 H 650.1473 Z m -49.47424,-20.29727 h 22.45716 v -40.53246 h -22.45716 z"
         clip-path="url(#clipPath1346)"
         transform="translate(-519.06006,2.4914883)" /><ellipse
         style="fill:none;stroke:#3c3c3c;stroke-width:6.4;stroke-linecap:square;stroke-linejoin:miter;stroke-dasharray:none"
         id="path1438-3"
         cx="200.078"
         cy="-693.49005"
         transform="scale(1,-1)"
         rx="43.59481"
         ry="43.795269" /><path
         style="fill:none;stroke:#3c3c3c;stroke-width:12;stroke-linecap:round;stroke-dasharray:none"
         d="m 228.76882,655.07291 23.8615,-32.8038"
         id="path385-9"
         sodipodi:nodetypes="cc" /></g></g></svg>
